<mxfile host="Electron" modified="2023-10-19T09:36:58.716Z" agent="Mozilla/5.0 (X11; Linux x86_64) AppleWebKit/537.36 (KHTML, like Gecko) draw.io/22.0.3 Chrome/114.0.5735.289 Electron/25.8.4 Safari/537.36" etag="j_Ffhbu2w-E1_UBaBNsM" version="22.0.3" type="device" pages="6">
  <diagram name="Global" id="SPwLQs9R6obMajQkDJeG">
    <mxGraphModel dx="2620" dy="1135" grid="1" gridSize="10" guides="1" tooltips="1" connect="1" arrows="1" fold="1" page="1" pageScale="1" pageWidth="827" pageHeight="1169" math="0" shadow="0">
      <root>
        <mxCell id="0" />
        <mxCell id="1" parent="0" />
        <mxCell id="Zz4HGBn9w1sTz2FdMFSa-4" style="edgeStyle=orthogonalEdgeStyle;rounded=0;orthogonalLoop=1;jettySize=auto;html=1;exitX=0.25;exitY=1;exitDx=0;exitDy=0;" parent="1" source="Zz4HGBn9w1sTz2FdMFSa-1" target="Zz4HGBn9w1sTz2FdMFSa-2" edge="1">
          <mxGeometry relative="1" as="geometry" />
        </mxCell>
        <mxCell id="Zz4HGBn9w1sTz2FdMFSa-5" style="edgeStyle=orthogonalEdgeStyle;rounded=0;orthogonalLoop=1;jettySize=auto;html=1;exitX=0.75;exitY=1;exitDx=0;exitDy=0;entryX=0;entryY=0.25;entryDx=0;entryDy=0;" parent="1" source="Zz4HGBn9w1sTz2FdMFSa-1" target="Zz4HGBn9w1sTz2FdMFSa-3" edge="1">
          <mxGeometry relative="1" as="geometry" />
        </mxCell>
        <mxCell id="Zz4HGBn9w1sTz2FdMFSa-19" style="edgeStyle=orthogonalEdgeStyle;rounded=0;orthogonalLoop=1;jettySize=auto;html=1;exitX=0.5;exitY=1;exitDx=0;exitDy=0;" parent="1" source="Zz4HGBn9w1sTz2FdMFSa-1" target="Zz4HGBn9w1sTz2FdMFSa-21" edge="1">
          <mxGeometry relative="1" as="geometry" />
        </mxCell>
        <mxCell id="Zz4HGBn9w1sTz2FdMFSa-28" style="edgeStyle=orthogonalEdgeStyle;rounded=0;orthogonalLoop=1;jettySize=auto;html=1;exitX=0.5;exitY=0;exitDx=0;exitDy=0;entryX=0.5;entryY=1;entryDx=0;entryDy=0;" parent="1" source="Zz4HGBn9w1sTz2FdMFSa-1" target="Zz4HGBn9w1sTz2FdMFSa-27" edge="1">
          <mxGeometry relative="1" as="geometry" />
        </mxCell>
        <mxCell id="M3nt_7f2Ili-oSDeTOe9-7" style="edgeStyle=orthogonalEdgeStyle;rounded=0;orthogonalLoop=1;jettySize=auto;html=1;exitX=0;exitY=0.5;exitDx=0;exitDy=0;entryX=0.75;entryY=0;entryDx=0;entryDy=0;" parent="1" source="Zz4HGBn9w1sTz2FdMFSa-1" target="M3nt_7f2Ili-oSDeTOe9-1" edge="1">
          <mxGeometry relative="1" as="geometry" />
        </mxCell>
        <mxCell id="M3nt_7f2Ili-oSDeTOe9-8" value="Host sur&amp;nbsp;" style="edgeLabel;html=1;align=center;verticalAlign=middle;resizable=0;points=[];fontSize=16;" parent="M3nt_7f2Ili-oSDeTOe9-7" vertex="1" connectable="0">
          <mxGeometry x="0.0458" y="4" relative="1" as="geometry">
            <mxPoint x="24" y="-4" as="offset" />
          </mxGeometry>
        </mxCell>
        <mxCell id="z-sRQCuc9GMqZfbiebyK-3" style="rounded=0;orthogonalLoop=1;jettySize=auto;html=1;exitX=0;exitY=0;exitDx=0;exitDy=0;entryX=1;entryY=1;entryDx=0;entryDy=0;" parent="1" source="Zz4HGBn9w1sTz2FdMFSa-1" target="z-sRQCuc9GMqZfbiebyK-2" edge="1">
          <mxGeometry relative="1" as="geometry" />
        </mxCell>
        <mxCell id="Zz4HGBn9w1sTz2FdMFSa-1" value="Geonature" style="rounded=1;whiteSpace=wrap;html=1;fontSize=17;fillColor=#f8cecc;strokeColor=#b85450;" parent="1" vertex="1">
          <mxGeometry x="320" y="310" width="120" height="60" as="geometry" />
        </mxCell>
        <mxCell id="Zz4HGBn9w1sTz2FdMFSa-12" style="edgeStyle=orthogonalEdgeStyle;rounded=0;orthogonalLoop=1;jettySize=auto;html=1;exitX=0.5;exitY=1;exitDx=0;exitDy=0;" parent="1" source="Zz4HGBn9w1sTz2FdMFSa-2" target="Zz4HGBn9w1sTz2FdMFSa-11" edge="1">
          <mxGeometry relative="1" as="geometry" />
        </mxCell>
        <mxCell id="Zz4HGBn9w1sTz2FdMFSa-13" style="edgeStyle=orthogonalEdgeStyle;rounded=0;orthogonalLoop=1;jettySize=auto;html=1;exitX=0.5;exitY=1;exitDx=0;exitDy=0;entryX=0.5;entryY=0;entryDx=0;entryDy=0;" parent="1" source="Zz4HGBn9w1sTz2FdMFSa-2" target="Zz4HGBn9w1sTz2FdMFSa-8" edge="1">
          <mxGeometry relative="1" as="geometry" />
        </mxCell>
        <mxCell id="M3nt_7f2Ili-oSDeTOe9-25" style="edgeStyle=orthogonalEdgeStyle;rounded=0;orthogonalLoop=1;jettySize=auto;html=1;exitX=0.5;exitY=1;exitDx=0;exitDy=0;entryX=0.5;entryY=0;entryDx=0;entryDy=0;" parent="1" source="Zz4HGBn9w1sTz2FdMFSa-2" target="M3nt_7f2Ili-oSDeTOe9-24" edge="1">
          <mxGeometry relative="1" as="geometry" />
        </mxCell>
        <mxCell id="Zz4HGBn9w1sTz2FdMFSa-2" value="Frontend" style="rounded=1;whiteSpace=wrap;html=1;fillColor=#d5e8d4;strokeColor=#82b366;" parent="1" vertex="1">
          <mxGeometry y="440" width="120" height="60" as="geometry" />
        </mxCell>
        <mxCell id="Zz4HGBn9w1sTz2FdMFSa-17" value="" style="edgeStyle=orthogonalEdgeStyle;rounded=0;orthogonalLoop=1;jettySize=auto;html=1;" parent="1" source="Zz4HGBn9w1sTz2FdMFSa-3" target="Zz4HGBn9w1sTz2FdMFSa-16" edge="1">
          <mxGeometry relative="1" as="geometry" />
        </mxCell>
        <mxCell id="Zz4HGBn9w1sTz2FdMFSa-23" style="edgeStyle=orthogonalEdgeStyle;rounded=0;orthogonalLoop=1;jettySize=auto;html=1;exitX=0.5;exitY=1;exitDx=0;exitDy=0;entryX=0.5;entryY=0;entryDx=0;entryDy=0;" parent="1" source="Zz4HGBn9w1sTz2FdMFSa-3" target="Zz4HGBn9w1sTz2FdMFSa-18" edge="1">
          <mxGeometry relative="1" as="geometry" />
        </mxCell>
        <mxCell id="M3nt_7f2Ili-oSDeTOe9-19" style="edgeStyle=orthogonalEdgeStyle;rounded=0;orthogonalLoop=1;jettySize=auto;html=1;exitX=0.25;exitY=1;exitDx=0;exitDy=0;entryX=0.5;entryY=0;entryDx=0;entryDy=0;" parent="1" source="Zz4HGBn9w1sTz2FdMFSa-3" target="M3nt_7f2Ili-oSDeTOe9-17" edge="1">
          <mxGeometry relative="1" as="geometry" />
        </mxCell>
        <mxCell id="M3nt_7f2Ili-oSDeTOe9-22" style="edgeStyle=orthogonalEdgeStyle;rounded=0;orthogonalLoop=1;jettySize=auto;html=1;exitX=0.25;exitY=0;exitDx=0;exitDy=0;entryX=0.5;entryY=1;entryDx=0;entryDy=0;" parent="1" source="Zz4HGBn9w1sTz2FdMFSa-3" target="M3nt_7f2Ili-oSDeTOe9-23" edge="1">
          <mxGeometry relative="1" as="geometry">
            <mxPoint x="600" y="350" as="targetPoint" />
          </mxGeometry>
        </mxCell>
        <mxCell id="Ut7abCRih5LVc8Av2Z_T-7" style="edgeStyle=orthogonalEdgeStyle;rounded=0;orthogonalLoop=1;jettySize=auto;html=1;exitX=0.5;exitY=0;exitDx=0;exitDy=0;entryX=0.5;entryY=1;entryDx=0;entryDy=0;" edge="1" parent="1" source="Zz4HGBn9w1sTz2FdMFSa-3" target="Ut7abCRih5LVc8Av2Z_T-5">
          <mxGeometry relative="1" as="geometry" />
        </mxCell>
        <mxCell id="Zz4HGBn9w1sTz2FdMFSa-3" value="BackEnd" style="rounded=1;whiteSpace=wrap;html=1;fillColor=#d5e8d4;strokeColor=#82b366;" parent="1" vertex="1">
          <mxGeometry x="530" y="410" width="120" height="60" as="geometry" />
        </mxCell>
        <mxCell id="Zz4HGBn9w1sTz2FdMFSa-8" value="&lt;b&gt;Angular15&lt;/b&gt;&lt;br&gt;(Frontend)" style="rounded=1;whiteSpace=wrap;html=1;" parent="1" vertex="1">
          <mxGeometry y="560" width="120" height="60" as="geometry" />
        </mxCell>
        <mxCell id="Zz4HGBn9w1sTz2FdMFSa-11" value="&lt;b&gt;Cypress&lt;/b&gt;&lt;br&gt;(unit testing)" style="rounded=1;whiteSpace=wrap;html=1;" parent="1" vertex="1">
          <mxGeometry x="140" y="560" width="120" height="60" as="geometry" />
        </mxCell>
        <mxCell id="Zz4HGBn9w1sTz2FdMFSa-14" value="&lt;b&gt;PostgreSQL&lt;/b&gt; + &lt;b&gt;PostGIS&lt;/b&gt; (Database)" style="rounded=1;whiteSpace=wrap;html=1;" parent="1" vertex="1">
          <mxGeometry x="400" y="860" width="120" height="60" as="geometry" />
        </mxCell>
        <mxCell id="M3nt_7f2Ili-oSDeTOe9-12" style="edgeStyle=orthogonalEdgeStyle;rounded=0;orthogonalLoop=1;jettySize=auto;html=1;exitX=1;exitY=0.5;exitDx=0;exitDy=0;entryX=0;entryY=0.5;entryDx=0;entryDy=0;" parent="1" source="Zz4HGBn9w1sTz2FdMFSa-16" target="M3nt_7f2Ili-oSDeTOe9-11" edge="1">
          <mxGeometry relative="1" as="geometry" />
        </mxCell>
        <mxCell id="M3nt_7f2Ili-oSDeTOe9-13" style="edgeStyle=orthogonalEdgeStyle;rounded=0;orthogonalLoop=1;jettySize=auto;html=1;exitX=1;exitY=0.5;exitDx=0;exitDy=0;entryX=0;entryY=0.5;entryDx=0;entryDy=0;" parent="1" source="Zz4HGBn9w1sTz2FdMFSa-16" target="M3nt_7f2Ili-oSDeTOe9-10" edge="1">
          <mxGeometry relative="1" as="geometry" />
        </mxCell>
        <mxCell id="M3nt_7f2Ili-oSDeTOe9-15" style="edgeStyle=orthogonalEdgeStyle;rounded=0;orthogonalLoop=1;jettySize=auto;html=1;exitX=1;exitY=0.5;exitDx=0;exitDy=0;entryX=0;entryY=0.5;entryDx=0;entryDy=0;" parent="1" source="Zz4HGBn9w1sTz2FdMFSa-16" target="M3nt_7f2Ili-oSDeTOe9-14" edge="1">
          <mxGeometry relative="1" as="geometry" />
        </mxCell>
        <mxCell id="sMPUkUyO-1WGFbfjUuqQ-3" style="edgeStyle=orthogonalEdgeStyle;rounded=0;orthogonalLoop=1;jettySize=auto;html=1;exitX=0.5;exitY=0;exitDx=0;exitDy=0;entryX=0.5;entryY=1;entryDx=0;entryDy=0;" edge="1" parent="1" source="Zz4HGBn9w1sTz2FdMFSa-16" target="M3nt_7f2Ili-oSDeTOe9-4">
          <mxGeometry relative="1" as="geometry" />
        </mxCell>
        <mxCell id="Ut7abCRih5LVc8Av2Z_T-2" style="edgeStyle=orthogonalEdgeStyle;rounded=0;orthogonalLoop=1;jettySize=auto;html=1;exitX=1;exitY=0.5;exitDx=0;exitDy=0;entryX=0;entryY=0.5;entryDx=0;entryDy=0;" edge="1" parent="1" source="Zz4HGBn9w1sTz2FdMFSa-16" target="M3nt_7f2Ili-oSDeTOe9-26">
          <mxGeometry relative="1" as="geometry" />
        </mxCell>
        <mxCell id="Ut7abCRih5LVc8Av2Z_T-3" style="edgeStyle=orthogonalEdgeStyle;rounded=0;orthogonalLoop=1;jettySize=auto;html=1;exitX=1;exitY=0.5;exitDx=0;exitDy=0;entryX=0;entryY=0.5;entryDx=0;entryDy=0;" edge="1" parent="1" source="Zz4HGBn9w1sTz2FdMFSa-16" target="M3nt_7f2Ili-oSDeTOe9-27">
          <mxGeometry relative="1" as="geometry" />
        </mxCell>
        <mxCell id="Ut7abCRih5LVc8Av2Z_T-4" style="edgeStyle=orthogonalEdgeStyle;rounded=0;orthogonalLoop=1;jettySize=auto;html=1;exitX=1;exitY=0.5;exitDx=0;exitDy=0;entryX=0;entryY=0.5;entryDx=0;entryDy=0;" edge="1" parent="1" source="Zz4HGBn9w1sTz2FdMFSa-16" target="M3nt_7f2Ili-oSDeTOe9-28">
          <mxGeometry relative="1" as="geometry" />
        </mxCell>
        <mxCell id="Zz4HGBn9w1sTz2FdMFSa-16" value="&lt;b&gt;Flask&lt;/b&gt;(web server)" style="whiteSpace=wrap;html=1;rounded=1;" parent="1" vertex="1">
          <mxGeometry x="827" y="330" width="120" height="60" as="geometry" />
        </mxCell>
        <mxCell id="Zz4HGBn9w1sTz2FdMFSa-24" style="edgeStyle=orthogonalEdgeStyle;rounded=0;orthogonalLoop=1;jettySize=auto;html=1;exitX=0.5;exitY=1;exitDx=0;exitDy=0;entryX=1;entryY=0.5;entryDx=0;entryDy=0;endArrow=classicThin;endFill=1;startArrow=classicThin;startFill=1;dashed=1;dashPattern=8 8;" parent="1" source="Zz4HGBn9w1sTz2FdMFSa-18" target="Zz4HGBn9w1sTz2FdMFSa-14" edge="1">
          <mxGeometry relative="1" as="geometry" />
        </mxCell>
        <mxCell id="Zz4HGBn9w1sTz2FdMFSa-25" value="Connexion BDD" style="edgeLabel;html=1;align=center;verticalAlign=middle;resizable=0;points=[];" parent="Zz4HGBn9w1sTz2FdMFSa-24" vertex="1" connectable="0">
          <mxGeometry x="-0.32" y="4" relative="1" as="geometry">
            <mxPoint as="offset" />
          </mxGeometry>
        </mxCell>
        <mxCell id="Zz4HGBn9w1sTz2FdMFSa-18" value="&lt;b&gt;SqlAlchemy&lt;/b&gt; (ORM)" style="rounded=1;whiteSpace=wrap;html=1;" parent="1" vertex="1">
          <mxGeometry x="630" y="525" width="120" height="60" as="geometry" />
        </mxCell>
        <mxCell id="Zz4HGBn9w1sTz2FdMFSa-22" style="edgeStyle=orthogonalEdgeStyle;rounded=0;orthogonalLoop=1;jettySize=auto;html=1;exitX=0.5;exitY=1;exitDx=0;exitDy=0;entryX=0;entryY=0.5;entryDx=0;entryDy=0;" parent="1" source="Zz4HGBn9w1sTz2FdMFSa-21" target="Zz4HGBn9w1sTz2FdMFSa-14" edge="1">
          <mxGeometry relative="1" as="geometry" />
        </mxCell>
        <mxCell id="Zz4HGBn9w1sTz2FdMFSa-21" value="Base de données" style="rounded=1;whiteSpace=wrap;html=1;fillColor=#d5e8d4;strokeColor=#82b366;" parent="1" vertex="1">
          <mxGeometry x="320" y="480" width="120" height="60" as="geometry" />
        </mxCell>
        <mxCell id="Zz4HGBn9w1sTz2FdMFSa-31" style="edgeStyle=orthogonalEdgeStyle;rounded=0;orthogonalLoop=1;jettySize=auto;html=1;exitX=1;exitY=0.5;exitDx=0;exitDy=0;entryX=0;entryY=0.5;entryDx=0;entryDy=0;" parent="1" source="Zz4HGBn9w1sTz2FdMFSa-27" target="Zz4HGBn9w1sTz2FdMFSa-30" edge="1">
          <mxGeometry relative="1" as="geometry" />
        </mxCell>
        <mxCell id="Zz4HGBn9w1sTz2FdMFSa-27" value="CommandLine" style="rounded=1;whiteSpace=wrap;html=1;fillColor=#d5e8d4;strokeColor=#82b366;" parent="1" vertex="1">
          <mxGeometry x="320" y="30" width="120" height="60" as="geometry" />
        </mxCell>
        <mxCell id="Zz4HGBn9w1sTz2FdMFSa-30" value="&lt;b&gt;click&lt;/b&gt; (enhanced argparse)" style="rounded=1;whiteSpace=wrap;html=1;" parent="1" vertex="1">
          <mxGeometry x="510" y="30" width="120" height="60" as="geometry" />
        </mxCell>
        <mxCell id="M3nt_7f2Ili-oSDeTOe9-3" style="edgeStyle=orthogonalEdgeStyle;rounded=0;orthogonalLoop=1;jettySize=auto;html=1;exitX=0;exitY=0.5;exitDx=0;exitDy=0;" parent="1" source="M3nt_7f2Ili-oSDeTOe9-1" target="M3nt_7f2Ili-oSDeTOe9-2" edge="1">
          <mxGeometry relative="1" as="geometry" />
        </mxCell>
        <mxCell id="M3nt_7f2Ili-oSDeTOe9-6" style="edgeStyle=orthogonalEdgeStyle;rounded=0;orthogonalLoop=1;jettySize=auto;html=1;exitX=0;exitY=0.5;exitDx=0;exitDy=0;entryX=0.5;entryY=0;entryDx=0;entryDy=0;" parent="1" source="M3nt_7f2Ili-oSDeTOe9-1" target="M3nt_7f2Ili-oSDeTOe9-5" edge="1">
          <mxGeometry relative="1" as="geometry" />
        </mxCell>
        <mxCell id="M3nt_7f2Ili-oSDeTOe9-1" value="&lt;b&gt;Debian&lt;br&gt;&lt;/b&gt;&amp;nbsp;(Operating System)" style="rounded=1;whiteSpace=wrap;html=1;" parent="1" vertex="1">
          <mxGeometry x="-195" y="355" width="120" height="60" as="geometry" />
        </mxCell>
        <mxCell id="M3nt_7f2Ili-oSDeTOe9-2" value="&lt;b&gt;Apache2&lt;/b&gt; (redirection+proxypass)" style="rounded=1;whiteSpace=wrap;html=1;" parent="1" vertex="1">
          <mxGeometry x="-380" y="260" width="130" height="70" as="geometry" />
        </mxCell>
        <mxCell id="M3nt_7f2Ili-oSDeTOe9-4" value="&lt;b&gt;Celery&lt;/b&gt;(Asynchrone pour Flask)" style="rounded=1;whiteSpace=wrap;html=1;" parent="1" vertex="1">
          <mxGeometry x="827" y="180" width="120" height="60" as="geometry" />
        </mxCell>
        <mxCell id="M3nt_7f2Ili-oSDeTOe9-5" value="&lt;b&gt;Gunicorn&lt;/b&gt; +&lt;b&gt;WSGI&lt;/b&gt; (Flask server)" style="rounded=1;whiteSpace=wrap;html=1;" parent="1" vertex="1">
          <mxGeometry x="-375" y="445" width="120" height="60" as="geometry" />
        </mxCell>
        <mxCell id="M3nt_7f2Ili-oSDeTOe9-10" value="&lt;b&gt;Flask-admin &lt;br&gt;&lt;/b&gt;(Administration frontend generator)" style="rounded=1;whiteSpace=wrap;html=1;" parent="1" vertex="1">
          <mxGeometry x="1057" y="110" width="200" height="70" as="geometry" />
        </mxCell>
        <mxCell id="M3nt_7f2Ili-oSDeTOe9-11" value="&lt;b&gt;Flask-alchemy&lt;/b&gt; &lt;br&gt;(bridge between sqlalchemy and Flask)" style="rounded=1;whiteSpace=wrap;html=1;" parent="1" vertex="1">
          <mxGeometry x="1057" y="210" width="150" height="60" as="geometry" />
        </mxCell>
        <mxCell id="M3nt_7f2Ili-oSDeTOe9-30" style="rounded=0;orthogonalLoop=1;jettySize=auto;html=1;exitX=1;exitY=0.5;exitDx=0;exitDy=0;entryX=0;entryY=0.5;entryDx=0;entryDy=0;startArrow=classic;startFill=1;" parent="1" source="M3nt_7f2Ili-oSDeTOe9-14" target="M3nt_7f2Ili-oSDeTOe9-29" edge="1">
          <mxGeometry relative="1" as="geometry" />
        </mxCell>
        <mxCell id="M3nt_7f2Ili-oSDeTOe9-14" value="&lt;b&gt;flask-marshmallow&lt;/b&gt; (additional API functionnalities for Flask + ORM)" style="rounded=1;whiteSpace=wrap;html=1;" parent="1" vertex="1">
          <mxGeometry x="1057" y="330" width="120" height="60" as="geometry" />
        </mxCell>
        <mxCell id="M3nt_7f2Ili-oSDeTOe9-20" style="edgeStyle=orthogonalEdgeStyle;rounded=0;orthogonalLoop=1;jettySize=auto;html=1;exitX=0.5;exitY=1;exitDx=0;exitDy=0;" parent="1" source="M3nt_7f2Ili-oSDeTOe9-17" target="Zz4HGBn9w1sTz2FdMFSa-14" edge="1">
          <mxGeometry relative="1" as="geometry" />
        </mxCell>
        <mxCell id="M3nt_7f2Ili-oSDeTOe9-21" value="migrations" style="edgeLabel;html=1;align=center;verticalAlign=middle;resizable=0;points=[];" parent="M3nt_7f2Ili-oSDeTOe9-20" vertex="1" connectable="0">
          <mxGeometry x="-0.2714" y="2" relative="1" as="geometry">
            <mxPoint as="offset" />
          </mxGeometry>
        </mxCell>
        <mxCell id="sMPUkUyO-1WGFbfjUuqQ-4" style="rounded=0;orthogonalLoop=1;jettySize=auto;html=1;exitX=1;exitY=0;exitDx=0;exitDy=0;entryX=0;entryY=1;entryDx=0;entryDy=0;startArrow=classic;startFill=1;dashed=1;" edge="1" parent="1" source="M3nt_7f2Ili-oSDeTOe9-17" target="Zz4HGBn9w1sTz2FdMFSa-18">
          <mxGeometry relative="1" as="geometry" />
        </mxCell>
        <mxCell id="M3nt_7f2Ili-oSDeTOe9-17" value="&lt;b&gt;Alembic&lt;/b&gt; (versionnage base de données)" style="rounded=1;whiteSpace=wrap;html=1;" parent="1" vertex="1">
          <mxGeometry x="430" y="640" width="120" height="60" as="geometry" />
        </mxCell>
        <mxCell id="M3nt_7f2Ili-oSDeTOe9-23" value="&lt;b&gt;Python&lt;/b&gt;(language)" style="rounded=1;whiteSpace=wrap;html=1;" parent="1" vertex="1">
          <mxGeometry x="500" y="220" width="120" height="60" as="geometry" />
        </mxCell>
        <mxCell id="M3nt_7f2Ili-oSDeTOe9-24" value="&lt;b&gt;Javascript(TS)/HTML&lt;br&gt;&lt;/b&gt;(Prog. Language)" style="rounded=1;whiteSpace=wrap;html=1;" parent="1" vertex="1">
          <mxGeometry x="-150" y="560" width="130" height="60" as="geometry" />
        </mxCell>
        <mxCell id="M3nt_7f2Ili-oSDeTOe9-26" value="&lt;b&gt;flask-migrate &lt;/b&gt;(alembic scripting)" style="rounded=1;whiteSpace=wrap;html=1;" parent="1" vertex="1">
          <mxGeometry x="1057" y="430" width="120" height="60" as="geometry" />
        </mxCell>
        <mxCell id="M3nt_7f2Ili-oSDeTOe9-32" style="rounded=0;orthogonalLoop=1;jettySize=auto;html=1;exitX=1;exitY=0.25;exitDx=0;exitDy=0;entryX=0;entryY=0.5;entryDx=0;entryDy=0;startArrow=classic;startFill=1;" parent="1" source="M3nt_7f2Ili-oSDeTOe9-27" target="M3nt_7f2Ili-oSDeTOe9-31" edge="1">
          <mxGeometry relative="1" as="geometry" />
        </mxCell>
        <mxCell id="M3nt_7f2Ili-oSDeTOe9-27" value="&lt;b&gt;flask-weasyprint &lt;/b&gt;(PDF generation)" style="rounded=1;whiteSpace=wrap;html=1;" parent="1" vertex="1">
          <mxGeometry x="1057" y="510" width="120" height="60" as="geometry" />
        </mxCell>
        <mxCell id="M3nt_7f2Ili-oSDeTOe9-28" value="&lt;b&gt;flask_wtf&lt;/b&gt; (Form validation + capcha + image upload)" style="rounded=1;whiteSpace=wrap;html=1;" parent="1" vertex="1">
          <mxGeometry x="1057" y="590" width="120" height="60" as="geometry" />
        </mxCell>
        <mxCell id="M3nt_7f2Ili-oSDeTOe9-29" value="&lt;b&gt;Marshmallow&lt;/b&gt; (python object serialization)" style="rounded=1;whiteSpace=wrap;html=1;" parent="1" vertex="1">
          <mxGeometry x="1207" y="290" width="120" height="60" as="geometry" />
        </mxCell>
        <mxCell id="M3nt_7f2Ili-oSDeTOe9-31" value="&lt;b&gt;weasyprint&lt;/b&gt;" style="rounded=1;whiteSpace=wrap;html=1;" parent="1" vertex="1">
          <mxGeometry x="1217" y="480" width="120" height="60" as="geometry" />
        </mxCell>
        <mxCell id="z-sRQCuc9GMqZfbiebyK-5" style="edgeStyle=orthogonalEdgeStyle;rounded=0;orthogonalLoop=1;jettySize=auto;html=1;exitX=0;exitY=0.25;exitDx=0;exitDy=0;entryX=1;entryY=0.75;entryDx=0;entryDy=0;" parent="1" source="z-sRQCuc9GMqZfbiebyK-2" target="z-sRQCuc9GMqZfbiebyK-4" edge="1">
          <mxGeometry relative="1" as="geometry" />
        </mxCell>
        <mxCell id="z-sRQCuc9GMqZfbiebyK-7" style="edgeStyle=orthogonalEdgeStyle;rounded=0;orthogonalLoop=1;jettySize=auto;html=1;exitX=0;exitY=0.75;exitDx=0;exitDy=0;entryX=1;entryY=0.75;entryDx=0;entryDy=0;" parent="1" source="z-sRQCuc9GMqZfbiebyK-2" target="z-sRQCuc9GMqZfbiebyK-6" edge="1">
          <mxGeometry relative="1" as="geometry" />
        </mxCell>
        <mxCell id="ogPMKlegpOBfkFZ8R0NH-2" style="edgeStyle=orthogonalEdgeStyle;rounded=0;orthogonalLoop=1;jettySize=auto;html=1;exitX=0.25;exitY=0;exitDx=0;exitDy=0;entryX=1;entryY=0.5;entryDx=0;entryDy=0;" parent="1" source="z-sRQCuc9GMqZfbiebyK-2" target="ogPMKlegpOBfkFZ8R0NH-1" edge="1">
          <mxGeometry relative="1" as="geometry" />
        </mxCell>
        <mxCell id="sMPUkUyO-1WGFbfjUuqQ-2" style="edgeStyle=orthogonalEdgeStyle;rounded=0;orthogonalLoop=1;jettySize=auto;html=1;exitX=0.5;exitY=0;exitDx=0;exitDy=0;entryX=0.5;entryY=1;entryDx=0;entryDy=0;" edge="1" parent="1" source="z-sRQCuc9GMqZfbiebyK-2" target="sMPUkUyO-1WGFbfjUuqQ-1">
          <mxGeometry relative="1" as="geometry" />
        </mxCell>
        <mxCell id="z-sRQCuc9GMqZfbiebyK-2" value="Service" style="rounded=1;whiteSpace=wrap;html=1;fillColor=#d5e8d4;strokeColor=#82b366;" parent="1" vertex="1">
          <mxGeometry x="50" y="170" width="120" height="60" as="geometry" />
        </mxCell>
        <mxCell id="z-sRQCuc9GMqZfbiebyK-4" value="&lt;b&gt;geonature&lt;br&gt;&lt;/b&gt;(backend +frontend)" style="rounded=1;whiteSpace=wrap;html=1;" parent="1" vertex="1">
          <mxGeometry x="-210" y="100" width="120" height="60" as="geometry" />
        </mxCell>
        <mxCell id="z-sRQCuc9GMqZfbiebyK-6" value="&lt;b&gt;geonature-worker&lt;/b&gt; (celery for asynchrone tasks)" style="rounded=1;whiteSpace=wrap;html=1;" parent="1" vertex="1">
          <mxGeometry x="-210" y="200" width="120" height="60" as="geometry" />
        </mxCell>
        <mxCell id="ccAqn1v2qJIzaA1RyJOq-4" style="edgeStyle=orthogonalEdgeStyle;rounded=0;orthogonalLoop=1;jettySize=auto;html=1;exitX=0.5;exitY=1;exitDx=0;exitDy=0;entryX=0.5;entryY=0;entryDx=0;entryDy=0;" parent="1" source="ccAqn1v2qJIzaA1RyJOq-1" target="M3nt_7f2Ili-oSDeTOe9-4" edge="1">
          <mxGeometry relative="1" as="geometry" />
        </mxCell>
        <mxCell id="ccAqn1v2qJIzaA1RyJOq-5" value="broker pour" style="edgeLabel;html=1;align=center;verticalAlign=middle;resizable=0;points=[];" parent="ccAqn1v2qJIzaA1RyJOq-4" vertex="1" connectable="0">
          <mxGeometry x="0.12" y="-1" relative="1" as="geometry">
            <mxPoint as="offset" />
          </mxGeometry>
        </mxCell>
        <mxCell id="ccAqn1v2qJIzaA1RyJOq-1" value="&lt;b&gt;Redis&lt;/b&gt;" style="rounded=1;whiteSpace=wrap;html=1;" parent="1" vertex="1">
          <mxGeometry x="827" y="25" width="120" height="60" as="geometry" />
        </mxCell>
        <mxCell id="ogPMKlegpOBfkFZ8R0NH-1" value="&lt;b&gt;taxhub&lt;/b&gt;&lt;br&gt;(taxref management)" style="rounded=1;whiteSpace=wrap;html=1;" parent="1" vertex="1">
          <mxGeometry x="-210" width="120" height="60" as="geometry" />
        </mxCell>
        <mxCell id="sMPUkUyO-1WGFbfjUuqQ-1" value="&lt;b&gt;userhub&lt;/b&gt;&lt;br&gt;(User management)" style="rounded=1;whiteSpace=wrap;html=1;" vertex="1" parent="1">
          <mxGeometry x="130" y="30" width="120" height="60" as="geometry" />
        </mxCell>
        <mxCell id="Ut7abCRih5LVc8Av2Z_T-5" value="&lt;b&gt;pytest &lt;br&gt;&lt;/b&gt;(unit testing)" style="rounded=1;whiteSpace=wrap;html=1;" vertex="1" parent="1">
          <mxGeometry x="650" y="220" width="120" height="60" as="geometry" />
        </mxCell>
      </root>
    </mxGraphModel>
  </diagram>
  <diagram id="DHByk2ow4OoD9XZn5TOE" name="Rôle des modules">
    <mxGraphModel dx="1434" dy="908" grid="1" gridSize="10" guides="1" tooltips="1" connect="1" arrows="1" fold="1" page="1" pageScale="1" pageWidth="827" pageHeight="1169" math="0" shadow="0">
      <root>
        <mxCell id="0" />
        <mxCell id="1" parent="0" />
        <mxCell id="pFZCK9RYu6JUBuXV2-PJ-1" value="Synthese" style="rounded=1;whiteSpace=wrap;html=1;" parent="1" vertex="1">
          <mxGeometry x="210" y="280" width="120" height="60" as="geometry" />
        </mxCell>
        <mxCell id="pFZCK9RYu6JUBuXV2-PJ-2" value="Filtrage des occurences de taxons effectués par date, localisation, communes&lt;br&gt;observateurs, etc... (limite de ligne) (export possible)" style="text;html=1;align=center;verticalAlign=middle;resizable=0;points=[];autosize=1;strokeColor=none;fillColor=none;" parent="1" vertex="1">
          <mxGeometry x="360" y="290" width="440" height="40" as="geometry" />
        </mxCell>
        <mxCell id="pFZCK9RYu6JUBuXV2-PJ-3" value="OccTax" style="rounded=1;whiteSpace=wrap;html=1;" parent="1" vertex="1">
          <mxGeometry x="210" y="380" width="120" height="60" as="geometry" />
        </mxCell>
        <mxCell id="pFZCK9RYu6JUBuXV2-PJ-4" value="Module de relevé d&#39;occurences d&#39;un ou plusieurs à un endroit donnée" style="text;html=1;align=center;verticalAlign=middle;resizable=0;points=[];autosize=1;strokeColor=none;fillColor=none;" parent="1" vertex="1">
          <mxGeometry x="360" y="388" width="390" height="30" as="geometry" />
        </mxCell>
        <mxCell id="pFZCK9RYu6JUBuXV2-PJ-5" value="Imports" style="rounded=1;whiteSpace=wrap;html=1;" parent="1" vertex="1">
          <mxGeometry x="210" y="540" width="120" height="60" as="geometry" />
        </mxCell>
        <mxCell id="pFZCK9RYu6JUBuXV2-PJ-6" value="Importation de donnés (sous format csv),&lt;br&gt;&amp;nbsp;mapping des colonnes vers le standard de Geonature" style="text;html=1;align=center;verticalAlign=middle;resizable=0;points=[];autosize=1;strokeColor=none;fillColor=none;" parent="1" vertex="1">
          <mxGeometry x="360" y="550" width="310" height="40" as="geometry" />
        </mxCell>
        <mxCell id="pFZCK9RYu6JUBuXV2-PJ-7" value="Exports" style="rounded=1;whiteSpace=wrap;html=1;" parent="1" vertex="1">
          <mxGeometry x="210" y="630" width="120" height="60" as="geometry" />
        </mxCell>
        <mxCell id="pFZCK9RYu6JUBuXV2-PJ-9" value="Export de vue/table compléte pour &lt;br&gt;des extérieurs (pas de limite contrairement à la synthèse)" style="text;html=1;align=center;verticalAlign=middle;resizable=0;points=[];autosize=1;strokeColor=none;fillColor=none;" parent="1" vertex="1">
          <mxGeometry x="335" y="640" width="330" height="40" as="geometry" />
        </mxCell>
        <mxCell id="pFZCK9RYu6JUBuXV2-PJ-10" value="MetaDonnées" style="rounded=1;whiteSpace=wrap;html=1;" parent="1" vertex="1">
          <mxGeometry x="210" y="720" width="120" height="60" as="geometry" />
        </mxCell>
        <mxCell id="pFZCK9RYu6JUBuXV2-PJ-11" value="Métadonnées des jeux de données et cadres d&#39;aquisitions" style="text;html=1;align=center;verticalAlign=middle;resizable=0;points=[];autosize=1;strokeColor=none;fillColor=none;" parent="1" vertex="1">
          <mxGeometry x="360" y="735" width="330" height="30" as="geometry" />
        </mxCell>
        <mxCell id="pFZCK9RYu6JUBuXV2-PJ-12" value="Validation" style="rounded=1;whiteSpace=wrap;html=1;" parent="1" vertex="1">
          <mxGeometry x="210" y="800" width="120" height="60" as="geometry" />
        </mxCell>
        <mxCell id="pFZCK9RYu6JUBuXV2-PJ-14" value="Validation d&#39;un relevé fait sur Occtax" style="text;html=1;align=center;verticalAlign=middle;resizable=0;points=[];autosize=1;strokeColor=none;fillColor=none;" parent="1" vertex="1">
          <mxGeometry x="370" y="818" width="220" height="30" as="geometry" />
        </mxCell>
        <mxCell id="pFZCK9RYu6JUBuXV2-PJ-15" value="OccHab" style="rounded=1;whiteSpace=wrap;html=1;" parent="1" vertex="1">
          <mxGeometry x="210" y="460" width="120" height="60" as="geometry" />
        </mxCell>
        <mxCell id="pFZCK9RYu6JUBuXV2-PJ-16" value="Module de relevé d&#39;occurences d&#39;un ou plusieurs habitats dans une zone" style="text;html=1;align=center;verticalAlign=middle;resizable=0;points=[];autosize=1;strokeColor=none;fillColor=none;" parent="1" vertex="1">
          <mxGeometry x="350" y="475" width="410" height="30" as="geometry" />
        </mxCell>
        <mxCell id="XHZ0EQuqBL_eI6Ml47Oa-1" value="Monitoring" style="rounded=1;whiteSpace=wrap;html=1;" parent="1" vertex="1">
          <mxGeometry x="210" y="890" width="120" height="60" as="geometry" />
        </mxCell>
        <mxCell id="XHZ0EQuqBL_eI6Ml47Oa-3" value="Module de suivi de site customisable&amp;nbsp;" style="text;html=1;align=center;verticalAlign=middle;resizable=0;points=[];autosize=1;strokeColor=none;fillColor=none;" parent="1" vertex="1">
          <mxGeometry x="380" y="905" width="220" height="30" as="geometry" />
        </mxCell>
      </root>
    </mxGraphModel>
  </diagram>
  <diagram id="F3ZtJG4TOEYBpCEjnm3k" name="Base de données">
    <mxGraphModel dx="2261" dy="908" grid="1" gridSize="10" guides="1" tooltips="1" connect="1" arrows="1" fold="1" page="1" pageScale="1" pageWidth="827" pageHeight="1169" math="0" shadow="0">
      <root>
        <mxCell id="0" />
        <mxCell id="1" parent="0" />
        <mxCell id="hDdL3YyaF-fOSXy3DuhH-25" value="Utilisateurs et taxons" style="rounded=1;whiteSpace=wrap;html=1;verticalAlign=top;" parent="1" vertex="1">
          <mxGeometry x="400" y="380" width="170" height="250" as="geometry" />
        </mxCell>
        <mxCell id="hDdL3YyaF-fOSXy3DuhH-24" value="Schéma de protocole" style="rounded=1;whiteSpace=wrap;html=1;verticalAlign=top;" parent="1" vertex="1">
          <mxGeometry x="410" y="120" width="160" height="210" as="geometry" />
        </mxCell>
        <mxCell id="hDdL3YyaF-fOSXy3DuhH-18" value="Réferentiel externe" style="rounded=1;whiteSpace=wrap;html=1;verticalAlign=top;" parent="1" vertex="1">
          <mxGeometry x="610" y="107.56756756756755" width="180" height="312.43243243243245" as="geometry" />
        </mxCell>
        <mxCell id="hDdL3YyaF-fOSXy3DuhH-4" value="Module Geonature" style="rounded=1;whiteSpace=wrap;html=1;verticalAlign=top;" parent="1" vertex="1">
          <mxGeometry x="-120" y="200" width="160" height="320" as="geometry" />
        </mxCell>
        <mxCell id="hDdL3YyaF-fOSXy3DuhH-23" value="Geonature Core DB" style="rounded=1;whiteSpace=wrap;html=1;verticalAlign=top;" parent="1" vertex="1">
          <mxGeometry x="130" y="100" width="180" height="520" as="geometry" />
        </mxCell>
        <mxCell id="hDdL3YyaF-fOSXy3DuhH-1" value="gn_commons" style="rounded=1;whiteSpace=wrap;html=1;" parent="1" vertex="1">
          <mxGeometry x="160" y="160" width="120" height="60" as="geometry" />
        </mxCell>
        <mxCell id="hDdL3YyaF-fOSXy3DuhH-2" value="gn_dashboard" style="rounded=1;whiteSpace=wrap;html=1;" parent="1" vertex="1">
          <mxGeometry x="-100" y="230" width="120" height="60" as="geometry" />
        </mxCell>
        <mxCell id="hDdL3YyaF-fOSXy3DuhH-3" value="gn_exports" style="rounded=1;whiteSpace=wrap;html=1;" parent="1" vertex="1">
          <mxGeometry x="-100" y="330" width="120" height="60" as="geometry" />
        </mxCell>
        <mxCell id="hDdL3YyaF-fOSXy3DuhH-6" value="gn_meta" style="rounded=1;whiteSpace=wrap;html=1;" parent="1" vertex="1">
          <mxGeometry x="160" y="240" width="120" height="60" as="geometry" />
        </mxCell>
        <mxCell id="hDdL3YyaF-fOSXy3DuhH-7" value="gn_imports" style="rounded=1;whiteSpace=wrap;html=1;" parent="1" vertex="1">
          <mxGeometry x="-100" y="420" width="120" height="60" as="geometry" />
        </mxCell>
        <mxCell id="hDdL3YyaF-fOSXy3DuhH-8" value="gn_monitoring" style="rounded=1;whiteSpace=wrap;html=1;" parent="1" vertex="1">
          <mxGeometry x="160" y="330" width="120" height="60" as="geometry" />
        </mxCell>
        <mxCell id="hDdL3YyaF-fOSXy3DuhH-9" value="gn_notifications" style="rounded=1;whiteSpace=wrap;html=1;" parent="1" vertex="1">
          <mxGeometry x="160" y="420" width="120" height="60" as="geometry" />
        </mxCell>
        <mxCell id="hDdL3YyaF-fOSXy3DuhH-10" value="gn_permissions" style="rounded=1;whiteSpace=wrap;html=1;" parent="1" vertex="1">
          <mxGeometry x="160" y="500" width="120" height="60" as="geometry" />
        </mxCell>
        <mxCell id="hDdL3YyaF-fOSXy3DuhH-11" value="pr_occtax" style="rounded=1;whiteSpace=wrap;html=1;" parent="1" vertex="1">
          <mxGeometry x="430" y="160" width="120" height="60" as="geometry" />
        </mxCell>
        <mxCell id="hDdL3YyaF-fOSXy3DuhH-12" value="pr_occhab" style="rounded=1;whiteSpace=wrap;html=1;" parent="1" vertex="1">
          <mxGeometry x="430" y="240" width="120" height="60" as="geometry" />
        </mxCell>
        <mxCell id="hDdL3YyaF-fOSXy3DuhH-13" value="ref_geo" style="rounded=1;whiteSpace=wrap;html=1;" parent="1" vertex="1">
          <mxGeometry x="640" y="160" width="120" height="60" as="geometry" />
        </mxCell>
        <mxCell id="hDdL3YyaF-fOSXy3DuhH-14" value="ref_habitats" style="rounded=1;whiteSpace=wrap;html=1;" parent="1" vertex="1">
          <mxGeometry x="640" y="240" width="120" height="60" as="geometry" />
        </mxCell>
        <mxCell id="hDdL3YyaF-fOSXy3DuhH-15" value="ref_nomenclatures" style="rounded=1;whiteSpace=wrap;html=1;" parent="1" vertex="1">
          <mxGeometry x="640" y="330" width="120" height="60" as="geometry" />
        </mxCell>
        <mxCell id="hDdL3YyaF-fOSXy3DuhH-16" value="taxonomie" style="rounded=1;whiteSpace=wrap;html=1;" parent="1" vertex="1">
          <mxGeometry x="430" y="440" width="120" height="60" as="geometry" />
        </mxCell>
        <mxCell id="hDdL3YyaF-fOSXy3DuhH-17" value="utilisateurs" style="rounded=1;whiteSpace=wrap;html=1;" parent="1" vertex="1">
          <mxGeometry x="430" y="525" width="120" height="60" as="geometry" />
        </mxCell>
      </root>
    </mxGraphModel>
  </diagram>
  <diagram id="1s1GGFYEPXvq9CN6btdo" name="BDD détails">
    <mxGraphModel dx="4522" dy="1816" grid="1" gridSize="10" guides="1" tooltips="1" connect="1" arrows="1" fold="1" page="1" pageScale="1" pageWidth="827" pageHeight="1169" math="0" shadow="0">
      <root>
        <mxCell id="0" />
        <mxCell id="1" parent="0" />
        <mxCell id="89UTTqY8zWMp1HGqcPFi-2" value="Registered Acquisition&amp;nbsp;&lt;br&gt;framework&lt;br&gt;(t_aquisition_framework)" style="rounded=1;whiteSpace=wrap;html=1;" parent="1" vertex="1">
          <mxGeometry x="488" y="240" width="130" height="60" as="geometry" />
        </mxCell>
        <mxCell id="89UTTqY8zWMp1HGqcPFi-3" value="Registered datasets (t_datasets)" style="rounded=1;whiteSpace=wrap;html=1;" parent="1" vertex="1">
          <mxGeometry x="493" y="410" width="120" height="60" as="geometry" />
        </mxCell>
        <mxCell id="89UTTqY8zWMp1HGqcPFi-5" value="" style="endArrow=diamondThin;endFill=0;endSize=24;html=1;rounded=0;exitX=0.5;exitY=1;exitDx=0;exitDy=0;entryX=0.5;entryY=0;entryDx=0;entryDy=0;" parent="1" source="89UTTqY8zWMp1HGqcPFi-2" target="89UTTqY8zWMp1HGqcPFi-3" edge="1">
          <mxGeometry width="160" relative="1" as="geometry">
            <mxPoint x="368" y="680" as="sourcePoint" />
            <mxPoint x="528" y="680" as="targetPoint" />
          </mxGeometry>
        </mxCell>
        <mxCell id="89UTTqY8zWMp1HGqcPFi-6" value="Registered organisms&lt;br&gt;(bib_organisme)" style="rounded=1;whiteSpace=wrap;html=1;" parent="1" vertex="1">
          <mxGeometry x="600" y="615" width="120" height="60" as="geometry" />
        </mxCell>
        <mxCell id="89UTTqY8zWMp1HGqcPFi-10" value="Registered bibliographical references&lt;br&gt;(t_bibliographical_reference)" style="rounded=1;whiteSpace=wrap;html=1;" parent="1" vertex="1">
          <mxGeometry x="728" y="240" width="176" height="60" as="geometry" />
        </mxCell>
        <mxCell id="89UTTqY8zWMp1HGqcPFi-11" value="" style="endArrow=diamondThin;endFill=0;endSize=24;html=1;rounded=0;entryX=1;entryY=0.5;entryDx=0;entryDy=0;exitX=0;exitY=0.5;exitDx=0;exitDy=0;" parent="1" source="89UTTqY8zWMp1HGqcPFi-10" target="89UTTqY8zWMp1HGqcPFi-2" edge="1">
          <mxGeometry width="160" relative="1" as="geometry">
            <mxPoint x="658" y="490" as="sourcePoint" />
            <mxPoint x="538" y="430" as="targetPoint" />
          </mxGeometry>
        </mxCell>
        <mxCell id="89UTTqY8zWMp1HGqcPFi-14" value="MetaData&lt;br&gt;(gn_meta)" style="text;html=1;align=center;verticalAlign=middle;resizable=0;points=[];autosize=1;strokeColor=none;fillColor=none;fontStyle=1;fontSize=15;" parent="1" vertex="1">
          <mxGeometry x="633" y="190" width="100" height="50" as="geometry" />
        </mxCell>
        <mxCell id="89UTTqY8zWMp1HGqcPFi-15" value="Commons&amp;nbsp;&lt;br&gt;(gn_commons)" style="text;html=1;align=center;verticalAlign=middle;resizable=0;points=[];autosize=1;strokeColor=none;fillColor=none;fontStyle=1;fontSize=15;" parent="1" vertex="1">
          <mxGeometry x="45" y="248" width="130" height="50" as="geometry" />
        </mxCell>
        <mxCell id="89UTTqY8zWMp1HGqcPFi-17" value="Modules&lt;br&gt;(t_modules)" style="rounded=1;whiteSpace=wrap;html=1;" parent="1" vertex="1">
          <mxGeometry x="-20" y="340" width="120" height="60" as="geometry" />
        </mxCell>
        <mxCell id="89UTTqY8zWMp1HGqcPFi-18" value="Parameters&lt;br&gt;(t_parameters)" style="rounded=1;whiteSpace=wrap;html=1;" parent="1" vertex="1">
          <mxGeometry x="160" y="340" width="120" height="60" as="geometry" />
        </mxCell>
        <mxCell id="89UTTqY8zWMp1HGqcPFi-19" value="Places commonly used for each user&lt;br&gt;(t_places)" style="rounded=1;whiteSpace=wrap;html=1;" parent="1" vertex="1">
          <mxGeometry x="160" y="427" width="120" height="60" as="geometry" />
        </mxCell>
        <mxCell id="89UTTqY8zWMp1HGqcPFi-20" value="Registered Users&lt;br&gt;(t_roles)" style="rounded=1;whiteSpace=wrap;html=1;" parent="1" vertex="1">
          <mxGeometry x="420" y="615" width="120" height="60" as="geometry" />
        </mxCell>
        <mxCell id="89UTTqY8zWMp1HGqcPFi-23" value="Utilisateurs&lt;br&gt;(utilisateurs)" style="text;html=1;align=center;verticalAlign=middle;resizable=0;points=[];autosize=1;strokeColor=none;fillColor=none;fontStyle=1;fontSize=15;" parent="1" vertex="1">
          <mxGeometry x="510" y="562" width="110" height="50" as="geometry" />
        </mxCell>
        <mxCell id="89UTTqY8zWMp1HGqcPFi-25" value="Validations&lt;br&gt;(t_validations)" style="rounded=1;whiteSpace=wrap;html=1;" parent="1" vertex="1">
          <mxGeometry x="-20" y="427" width="120" height="60" as="geometry" />
        </mxCell>
        <mxCell id="89UTTqY8zWMp1HGqcPFi-26" value="Media&lt;br&gt;(t_medias)" style="rounded=1;whiteSpace=wrap;html=1;" parent="1" vertex="1">
          <mxGeometry x="-20" y="507" width="120" height="60" as="geometry" />
        </mxCell>
        <mxCell id="89UTTqY8zWMp1HGqcPFi-27" value="Additional Fields&lt;br&gt;(t_additional_fields)" style="rounded=1;whiteSpace=wrap;html=1;" parent="1" vertex="1">
          <mxGeometry x="-20" y="592" width="120" height="60" as="geometry" />
        </mxCell>
        <mxCell id="89UTTqY8zWMp1HGqcPFi-28" value="History&lt;br&gt;(t_history_actions)" style="rounded=1;whiteSpace=wrap;html=1;" parent="1" vertex="1">
          <mxGeometry x="-20" y="682" width="120" height="60" as="geometry" />
        </mxCell>
        <mxCell id="89UTTqY8zWMp1HGqcPFi-29" value="Mobile Apps that work with Geonature&lt;br&gt;(t_mobile_apps)" style="rounded=1;whiteSpace=wrap;html=1;" parent="1" vertex="1">
          <mxGeometry x="160" y="507" width="120" height="60" as="geometry" />
        </mxCell>
        <mxCell id="89UTTqY8zWMp1HGqcPFi-30" value="&amp;nbsp;occtax only" style="text;html=1;align=center;verticalAlign=middle;resizable=0;points=[];autosize=1;strokeColor=none;fillColor=none;rotation=0;fontColor=#FF2B0A;" parent="1" vertex="1">
          <mxGeometry x="17" y="464" width="90" height="30" as="geometry" />
        </mxCell>
        <mxCell id="89UTTqY8zWMp1HGqcPFi-32" value="RefGeo&lt;br&gt;(ref_geo)" style="text;html=1;align=center;verticalAlign=middle;resizable=0;points=[];autosize=1;strokeColor=none;fillColor=none;fontStyle=1;fontSize=15;" parent="1" vertex="1">
          <mxGeometry x="655" y="1333.5" width="90" height="50" as="geometry" />
        </mxCell>
        <mxCell id="89UTTqY8zWMp1HGqcPFi-33" value="Area types&lt;br&gt;(areas_type)" style="rounded=1;whiteSpace=wrap;html=1;" parent="1" vertex="1">
          <mxGeometry x="565" y="1383.5" width="120" height="60" as="geometry" />
        </mxCell>
        <mxCell id="89UTTqY8zWMp1HGqcPFi-34" value="Occtax&lt;br&gt;(pr_occtax)" style="text;html=1;align=center;verticalAlign=middle;resizable=0;points=[];autosize=1;strokeColor=none;fillColor=none;fontStyle=1;fontSize=15;" parent="1" vertex="1">
          <mxGeometry x="373" y="843.5" width="100" height="50" as="geometry" />
        </mxCell>
        <mxCell id="FNkKZlCQkf03Q6eKIE7J-3" style="edgeStyle=orthogonalEdgeStyle;rounded=0;orthogonalLoop=1;jettySize=auto;html=1;exitX=1;exitY=0.5;exitDx=0;exitDy=0;entryX=0;entryY=0.5;entryDx=0;entryDy=0;" edge="1" parent="1" source="89UTTqY8zWMp1HGqcPFi-35" target="89UTTqY8zWMp1HGqcPFi-36">
          <mxGeometry relative="1" as="geometry" />
        </mxCell>
        <mxCell id="89UTTqY8zWMp1HGqcPFi-35" value="Taxon(s) survey&lt;br&gt;(releves_occtax)" style="rounded=1;whiteSpace=wrap;html=1;" parent="1" vertex="1">
          <mxGeometry x="221" y="911.5" width="120" height="60" as="geometry" />
        </mxCell>
        <mxCell id="FNkKZlCQkf03Q6eKIE7J-4" style="edgeStyle=orthogonalEdgeStyle;rounded=0;orthogonalLoop=1;jettySize=auto;html=1;exitX=1;exitY=0.5;exitDx=0;exitDy=0;entryX=0;entryY=0.5;entryDx=0;entryDy=0;" edge="1" parent="1" source="89UTTqY8zWMp1HGqcPFi-36" target="M1gzznxGc56luJzAimYH-3">
          <mxGeometry relative="1" as="geometry" />
        </mxCell>
        <mxCell id="89UTTqY8zWMp1HGqcPFi-36" value="Taxon(s) for one survey&lt;br&gt;(occurrence_occtax)" style="rounded=1;whiteSpace=wrap;html=1;" parent="1" vertex="1">
          <mxGeometry x="373" y="911.5" width="120" height="60" as="geometry" />
        </mxCell>
        <mxCell id="89UTTqY8zWMp1HGqcPFi-37" value="RefNomenclature&lt;br&gt;(ref_nomenclaturs)" style="text;html=1;align=center;verticalAlign=middle;resizable=0;points=[];autosize=1;strokeColor=none;fillColor=none;fontStyle=1;fontSize=15;" parent="1" vertex="1">
          <mxGeometry x="1205" y="728" width="160" height="50" as="geometry" />
        </mxCell>
        <mxCell id="89UTTqY8zWMp1HGqcPFi-41" style="edgeStyle=orthogonalEdgeStyle;rounded=0;orthogonalLoop=1;jettySize=auto;html=1;exitX=1;exitY=0.5;exitDx=0;exitDy=0;" parent="1" source="89UTTqY8zWMp1HGqcPFi-38" target="89UTTqY8zWMp1HGqcPFi-39" edge="1">
          <mxGeometry relative="1" as="geometry" />
        </mxCell>
        <mxCell id="89UTTqY8zWMp1HGqcPFi-38" value="Type" style="rounded=1;whiteSpace=wrap;html=1;" parent="1" vertex="1">
          <mxGeometry x="1130" y="793" width="120" height="60" as="geometry" />
        </mxCell>
        <mxCell id="89UTTqY8zWMp1HGqcPFi-39" value="Nomenclature" style="rounded=1;whiteSpace=wrap;html=1;" parent="1" vertex="1">
          <mxGeometry x="1320" y="793" width="120" height="60" as="geometry" />
        </mxCell>
        <mxCell id="M1gzznxGc56luJzAimYH-1" value="date, geo de l&#39;obs" style="text;html=1;align=center;verticalAlign=middle;resizable=0;points=[];autosize=1;strokeColor=none;fillColor=none;" parent="1" vertex="1">
          <mxGeometry x="258" y="971.5" width="120" height="30" as="geometry" />
        </mxCell>
        <mxCell id="M1gzznxGc56luJzAimYH-2" value="taxons observés" style="text;html=1;align=center;verticalAlign=middle;resizable=0;points=[];autosize=1;strokeColor=none;fillColor=none;" parent="1" vertex="1">
          <mxGeometry x="418" y="971.5" width="110" height="30" as="geometry" />
        </mxCell>
        <mxCell id="M1gzznxGc56luJzAimYH-3" value="Number of individual per taxon and per survey&lt;br&gt;(cor_counting_occtax)" style="rounded=1;whiteSpace=wrap;html=1;" parent="1" vertex="1">
          <mxGeometry x="548" y="911.5" width="143" height="60" as="geometry" />
        </mxCell>
        <mxCell id="M1gzznxGc56luJzAimYH-6" value="Champ additionel dans un fichier json" style="rounded=1;whiteSpace=wrap;html=1;" parent="1" vertex="1">
          <mxGeometry x="-817" y="422" width="120" height="60" as="geometry" />
        </mxCell>
        <mxCell id="M1gzznxGc56luJzAimYH-7" value="pas le lieu de vie/travail de l&#39;utilisateur&lt;br&gt;&amp;nbsp;mais les lieux qu&#39;ils utilisent bcp" style="text;html=1;align=center;verticalAlign=middle;resizable=0;points=[];autosize=1;strokeColor=none;fillColor=none;" parent="1" vertex="1">
          <mxGeometry x="250" y="467" width="220" height="40" as="geometry" />
        </mxCell>
        <mxCell id="M1gzznxGc56luJzAimYH-8" value="Information sur les applis mobiles" style="text;html=1;align=center;verticalAlign=middle;resizable=0;points=[];autosize=1;strokeColor=none;fillColor=none;" parent="1" vertex="1">
          <mxGeometry x="214" y="562" width="200" height="30" as="geometry" />
        </mxCell>
        <mxCell id="M1gzznxGc56luJzAimYH-10" value="&amp;nbsp;occtax only" style="text;html=1;align=center;verticalAlign=middle;resizable=0;points=[];autosize=1;strokeColor=none;fillColor=none;rotation=0;fontColor=#FF2B0A;" parent="1" vertex="1">
          <mxGeometry x="17" y="630" width="90" height="30" as="geometry" />
        </mxCell>
        <mxCell id="M1gzznxGc56luJzAimYH-11" value="Pour la synchro des BD entre &lt;br&gt;instance de Geonature" style="text;html=1;align=center;verticalAlign=middle;resizable=0;points=[];autosize=1;strokeColor=none;fillColor=none;" parent="1" vertex="1">
          <mxGeometry x="10" y="742" width="180" height="40" as="geometry" />
        </mxCell>
        <mxCell id="M1gzznxGc56luJzAimYH-12" value="comptage d&#39;un taxons" style="text;html=1;align=center;verticalAlign=middle;resizable=0;points=[];autosize=1;strokeColor=none;fillColor=none;" parent="1" vertex="1">
          <mxGeometry x="548" y="971.5" width="140" height="30" as="geometry" />
        </mxCell>
        <mxCell id="6LbAXvtLIObLzo8x0BIZ-1" value="Geometries of town, departement, region and grid of diffrent size (1,5,10,&lt;br&gt;km) (l_areas)" style="rounded=1;whiteSpace=wrap;html=1;" parent="1" vertex="1">
          <mxGeometry x="725" y="1383.5" width="200" height="60" as="geometry" />
        </mxCell>
        <mxCell id="6LbAXvtLIObLzo8x0BIZ-2" value="Town data&lt;br&gt;(li_municipalities)" style="rounded=1;whiteSpace=wrap;html=1;" parent="1" vertex="1">
          <mxGeometry x="725" y="1463.5" width="200" height="60" as="geometry" />
        </mxCell>
        <mxCell id="6LbAXvtLIObLzo8x0BIZ-3" value="RefHabitats&lt;br&gt;(ref_habitats)" style="text;html=1;align=center;verticalAlign=middle;resizable=0;points=[];autosize=1;strokeColor=none;fillColor=none;fontStyle=1;fontSize=15;" parent="1" vertex="1">
          <mxGeometry x="920" y="723.5" width="120" height="50" as="geometry" />
        </mxCell>
        <mxCell id="6LbAXvtLIObLzo8x0BIZ-4" value="Available typologies for habitat category(typo_ref)" style="rounded=1;whiteSpace=wrap;html=1;" parent="1" vertex="1">
          <mxGeometry x="925" y="783.5" width="120" height="60" as="geometry" />
        </mxCell>
        <mxCell id="6LbAXvtLIObLzo8x0BIZ-5" value="Available habitat categories (habref)" style="rounded=1;whiteSpace=wrap;html=1;" parent="1" vertex="1">
          <mxGeometry x="925" y="882.5" width="120" height="60" as="geometry" />
        </mxCell>
        <mxCell id="6LbAXvtLIObLzo8x0BIZ-7" value="Taxonomie&lt;br&gt;(taxonomie)" style="text;html=1;align=center;verticalAlign=middle;resizable=0;points=[];autosize=1;strokeColor=none;fillColor=none;fontStyle=1;fontSize=15;" parent="1" vertex="1">
          <mxGeometry x="1017.5" y="1052" width="110" height="50" as="geometry" />
        </mxCell>
        <mxCell id="6LbAXvtLIObLzo8x0BIZ-8" value="Taxons list&lt;br&gt;(taxref)" style="rounded=1;whiteSpace=wrap;html=1;" parent="1" vertex="1">
          <mxGeometry x="920" y="1112" width="120" height="60" as="geometry" />
        </mxCell>
        <mxCell id="6LbAXvtLIObLzo8x0BIZ-9" value="" style="shape=image;verticalLabelPosition=bottom;labelBackgroundColor=default;verticalAlign=top;aspect=fixed;imageAspect=0;image=https://inpn.mnhn.fr/images/logos/HabRef-logo.png;" parent="1" vertex="1">
          <mxGeometry x="930" y="693" width="125" height="40" as="geometry" />
        </mxCell>
        <mxCell id="6LbAXvtLIObLzo8x0BIZ-10" value="" style="shape=image;verticalLabelPosition=bottom;labelBackgroundColor=default;verticalAlign=top;aspect=fixed;imageAspect=0;image=https://inpn.mnhn.fr/images/logos/Taxref-logo.png;" parent="1" vertex="1">
          <mxGeometry x="1010" y="1022" width="125" height="40" as="geometry" />
        </mxCell>
        <mxCell id="6LbAXvtLIObLzo8x0BIZ-11" value="Changes in taxref&lt;br&gt;(taxref_changes)" style="rounded=1;whiteSpace=wrap;html=1;" parent="1" vertex="1">
          <mxGeometry x="920" y="1220" width="120" height="60" as="geometry" />
        </mxCell>
        <mxCell id="6LbAXvtLIObLzo8x0BIZ-12" value="Medium associated per taxon&lt;br&gt;(t_medias)" style="rounded=1;whiteSpace=wrap;html=1;" parent="1" vertex="1">
          <mxGeometry x="1110" y="1220" width="120" height="60" as="geometry" />
        </mxCell>
        <mxCell id="FNkKZlCQkf03Q6eKIE7J-11" style="edgeStyle=orthogonalEdgeStyle;rounded=0;orthogonalLoop=1;jettySize=auto;html=1;exitX=1;exitY=0.5;exitDx=0;exitDy=0;entryX=0;entryY=0.75;entryDx=0;entryDy=0;" edge="1" parent="1" source="6LbAXvtLIObLzo8x0BIZ-13" target="FNkKZlCQkf03Q6eKIE7J-5">
          <mxGeometry relative="1" as="geometry" />
        </mxCell>
        <mxCell id="FNkKZlCQkf03Q6eKIE7J-13" value="split in tables&lt;br style=&quot;border-color: var(--border-color); font-size: 12px; background-color: rgb(251, 251, 251);&quot;&gt;&lt;span style=&quot;font-size: 12px; background-color: rgb(251, 251, 251);&quot;&gt;to avoid&amp;nbsp;&lt;/span&gt;&lt;br style=&quot;border-color: var(--border-color); font-size: 12px; background-color: rgb(251, 251, 251);&quot;&gt;&lt;span style=&quot;font-size: 12px; background-color: rgb(251, 251, 251);&quot;&gt;data redundancy&lt;/span&gt;" style="edgeLabel;html=1;align=center;verticalAlign=middle;resizable=0;points=[];" vertex="1" connectable="0" parent="FNkKZlCQkf03Q6eKIE7J-11">
          <mxGeometry x="0.1829" relative="1" as="geometry">
            <mxPoint x="-13" as="offset" />
          </mxGeometry>
        </mxCell>
        <mxCell id="6LbAXvtLIObLzo8x0BIZ-13" value="Species taxons&lt;br&gt;(bdc_statut)" style="rounded=1;whiteSpace=wrap;html=1;" parent="1" vertex="1">
          <mxGeometry x="1110" y="1110" width="120" height="60" as="geometry" />
        </mxCell>
        <mxCell id="6LbAXvtLIObLzo8x0BIZ-14" value="Monitoring&lt;br&gt;(gn_monitorings)" style="text;html=1;align=center;verticalAlign=middle;resizable=0;points=[];autosize=1;strokeColor=none;fillColor=none;fontStyle=1;fontSize=15;" parent="1" vertex="1">
          <mxGeometry x="-840" y="362" width="150" height="50" as="geometry" />
        </mxCell>
        <mxCell id="6LbAXvtLIObLzo8x0BIZ-15" value="OccHab&lt;br&gt;(pr_occhab)" style="text;html=1;align=center;verticalAlign=middle;resizable=0;points=[];autosize=1;strokeColor=none;fillColor=none;fontStyle=1;fontSize=15;" parent="1" vertex="1">
          <mxGeometry x="6" y="846.5" width="110" height="50" as="geometry" />
        </mxCell>
        <mxCell id="6LbAXvtLIObLzo8x0BIZ-16" value="Registered habitats&lt;br&gt;(t_habitats)" style="rounded=1;whiteSpace=wrap;html=1;" parent="1" vertex="1">
          <mxGeometry y="911.5" width="120" height="60" as="geometry" />
        </mxCell>
        <mxCell id="6LbAXvtLIObLzo8x0BIZ-17" value="Registered stations&lt;br&gt;(t_stations)" style="rounded=1;whiteSpace=wrap;html=1;" parent="1" vertex="1">
          <mxGeometry y="1001.5" width="120" height="60" as="geometry" />
        </mxCell>
        <mxCell id="6LbAXvtLIObLzo8x0BIZ-18" value="&lt;font color=&quot;#ff1919&quot;&gt;station ~ relevés&lt;/font&gt;" style="text;html=1;align=center;verticalAlign=middle;resizable=0;points=[];autosize=1;strokeColor=none;fillColor=none;" parent="1" vertex="1">
          <mxGeometry x="6" y="1037.5" width="110" height="30" as="geometry" />
        </mxCell>
        <mxCell id="6LbAXvtLIObLzo8x0BIZ-19" value="Imports&lt;br&gt;(gn_imports)" style="text;html=1;align=center;verticalAlign=middle;resizable=0;points=[];autosize=1;strokeColor=none;fillColor=none;fontStyle=1;fontSize=15;" parent="1" vertex="1">
          <mxGeometry x="-575" y="367" width="120" height="50" as="geometry" />
        </mxCell>
        <mxCell id="6LbAXvtLIObLzo8x0BIZ-20" value="Permissions&lt;br&gt;(gn_permissions)" style="text;html=1;align=center;verticalAlign=middle;resizable=0;points=[];autosize=1;strokeColor=none;fillColor=none;fontStyle=1;fontSize=15;" parent="1" vertex="1">
          <mxGeometry x="-318" y="752" width="150" height="50" as="geometry" />
        </mxCell>
        <mxCell id="6LbAXvtLIObLzo8x0BIZ-21" value="Profiles&lt;br&gt;(gn_profiles)" style="text;html=1;align=center;verticalAlign=middle;resizable=0;points=[];autosize=1;strokeColor=none;fillColor=none;fontStyle=1;fontSize=15;" parent="1" vertex="1">
          <mxGeometry x="654" y="1061.5" width="110" height="50" as="geometry" />
        </mxCell>
        <mxCell id="6LbAXvtLIObLzo8x0BIZ-22" value="Sensitivité&lt;br&gt;(gn_sensivity)" style="text;html=1;align=center;verticalAlign=middle;resizable=0;points=[];autosize=1;strokeColor=none;fillColor=none;fontStyle=1;fontSize=15;" parent="1" vertex="1">
          <mxGeometry x="5" y="1137" width="120" height="50" as="geometry" />
        </mxCell>
        <mxCell id="6LbAXvtLIObLzo8x0BIZ-23" value="Synthèse&lt;br&gt;(gn_synthese)" style="text;html=1;align=center;verticalAlign=middle;resizable=0;points=[];autosize=1;strokeColor=none;fillColor=none;fontStyle=1;fontSize=15;" parent="1" vertex="1">
          <mxGeometry x="334" y="1061.5" width="130" height="50" as="geometry" />
        </mxCell>
        <mxCell id="6LbAXvtLIObLzo8x0BIZ-24" value="Notifications&lt;br&gt;(gn_notifications)" style="text;html=1;align=center;verticalAlign=middle;resizable=0;points=[];autosize=1;strokeColor=none;fillColor=none;fontStyle=1;fontSize=15;" parent="1" vertex="1">
          <mxGeometry x="-542.5" y="752" width="150" height="50" as="geometry" />
        </mxCell>
        <mxCell id="6LbAXvtLIObLzo8x0BIZ-25" value="Exports&lt;br&gt;(gn_exports)" style="text;html=1;align=center;verticalAlign=middle;resizable=0;points=[];autosize=1;strokeColor=none;fillColor=none;fontStyle=1;fontSize=15;" parent="1" vertex="1">
          <mxGeometry x="-305" y="362" width="110" height="50" as="geometry" />
        </mxCell>
        <mxCell id="6LbAXvtLIObLzo8x0BIZ-26" value="Imported Data&lt;br&gt;(t_imports)" style="rounded=1;whiteSpace=wrap;html=1;" parent="1" vertex="1">
          <mxGeometry x="-580" y="422" width="120" height="60" as="geometry" />
        </mxCell>
        <mxCell id="6LbAXvtLIObLzo8x0BIZ-27" value="mapping between import data fields and geonature available fields&lt;br&gt;(t_fieldmappings)" style="rounded=1;whiteSpace=wrap;html=1;" parent="1" vertex="1">
          <mxGeometry x="-600" y="512" width="160" height="80" as="geometry" />
        </mxCell>
        <mxCell id="6LbAXvtLIObLzo8x0BIZ-28" value="Available data fields in Geonature&lt;br&gt;(bib_fields)" style="rounded=1;whiteSpace=wrap;html=1;" parent="1" vertex="1">
          <mxGeometry x="-580" y="622" width="120" height="60" as="geometry" />
        </mxCell>
        <mxCell id="6LbAXvtLIObLzo8x0BIZ-29" value="Exoportation metadata&lt;br&gt;(t_exports)" style="rounded=1;whiteSpace=wrap;html=1;" parent="1" vertex="1">
          <mxGeometry x="-310" y="442" width="120" height="60" as="geometry" />
        </mxCell>
        <mxCell id="6LbAXvtLIObLzo8x0BIZ-30" value="Available exploitation licences&amp;nbsp;&lt;br&gt;(t_licences)" style="rounded=1;whiteSpace=wrap;html=1;" parent="1" vertex="1">
          <mxGeometry x="-312.5" y="532" width="125" height="60" as="geometry" />
        </mxCell>
        <mxCell id="6LbAXvtLIObLzo8x0BIZ-31" value="Données exports dans&amp;nbsp;&lt;br&gt;des vues" style="text;html=1;align=center;verticalAlign=middle;resizable=0;points=[];autosize=1;strokeColor=none;fillColor=none;fontColor=#FF1919;" parent="1" vertex="1">
          <mxGeometry x="-230" y="502" width="150" height="40" as="geometry" />
        </mxCell>
        <mxCell id="6LbAXvtLIObLzo8x0BIZ-32" value="Scheduler for some exports&lt;br&gt;(t_export_schedules)" style="rounded=1;whiteSpace=wrap;html=1;" parent="1" vertex="1">
          <mxGeometry x="-310" y="622" width="120" height="60" as="geometry" />
        </mxCell>
        <mxCell id="6LbAXvtLIObLzo8x0BIZ-33" value="Sites&lt;br&gt;(t_base_sites)" style="rounded=1;whiteSpace=wrap;html=1;" parent="1" vertex="1">
          <mxGeometry x="-817" y="514" width="120" height="60" as="geometry" />
        </mxCell>
        <mxCell id="6LbAXvtLIObLzo8x0BIZ-34" value="Visites&lt;br&gt;(t_base_visits)" style="rounded=1;whiteSpace=wrap;html=1;" parent="1" vertex="1">
          <mxGeometry x="-817" y="612.5" width="120" height="60" as="geometry" />
        </mxCell>
        <mxCell id="UXb8US19K7nyJ-3x5xlv-1" value="Notification categories&lt;br&gt;(bib_notification_categories)" style="rounded=1;whiteSpace=wrap;html=1;" parent="1" vertex="1">
          <mxGeometry x="-555" y="831" width="175" height="60" as="geometry" />
        </mxCell>
        <mxCell id="UXb8US19K7nyJ-3x5xlv-2" value="Notification methods categories&lt;br&gt;(bib_notifications_methods)" style="rounded=1;whiteSpace=wrap;html=1;" parent="1" vertex="1">
          <mxGeometry x="-560" y="933" width="185" height="60" as="geometry" />
        </mxCell>
        <mxCell id="UXb8US19K7nyJ-3x5xlv-3" value="Notification message templates&lt;br&gt;(bb_notifications_templates)" style="rounded=1;whiteSpace=wrap;html=1;" parent="1" vertex="1">
          <mxGeometry x="-560" y="1035" width="197.5" height="60" as="geometry" />
        </mxCell>
        <mxCell id="UXb8US19K7nyJ-3x5xlv-5" value="All notifications&lt;br&gt;(t_notifications)" style="rounded=1;whiteSpace=wrap;html=1;" parent="1" vertex="1">
          <mxGeometry x="-521.25" y="1115" width="120" height="60" as="geometry" />
        </mxCell>
        <mxCell id="UXb8US19K7nyJ-3x5xlv-6" value="Available actions to setup in Geonature permission system&lt;br&gt;(bib_actions)" style="rounded=1;whiteSpace=wrap;html=1;" parent="1" vertex="1">
          <mxGeometry x="-318" y="823" width="150" height="100" as="geometry" />
        </mxCell>
        <mxCell id="UXb8US19K7nyJ-3x5xlv-7" value="Permissions per&lt;br&gt;roles&lt;br&gt;(t_permissions)" style="rounded=1;whiteSpace=wrap;html=1;" parent="1" vertex="1">
          <mxGeometry x="-308" y="965" width="120" height="60" as="geometry" />
        </mxCell>
        <mxCell id="UXb8US19K7nyJ-3x5xlv-8" value="Permissions&#39; targets (t_objects)" style="rounded=1;whiteSpace=wrap;html=1;" parent="1" vertex="1">
          <mxGeometry x="-308" y="1065" width="120" height="60" as="geometry" />
        </mxCell>
        <mxCell id="UXb8US19K7nyJ-3x5xlv-9" value="Permission filter types&lt;br&gt;(bib_filters_type)" style="rounded=1;whiteSpace=wrap;html=1;" parent="1" vertex="1">
          <mxGeometry x="-303" y="1165" width="120" height="60" as="geometry" />
        </mxCell>
        <mxCell id="UXb8US19K7nyJ-3x5xlv-10" value="List of scope to restreint access for a user/organism&lt;br&gt;(bib_filters_scope)" style="rounded=1;whiteSpace=wrap;html=1;" parent="1" vertex="1">
          <mxGeometry x="-303" y="1255" width="120" height="60" as="geometry" />
        </mxCell>
        <mxCell id="UXb8US19K7nyJ-3x5xlv-11" value="Sensitivity per area available in Geonature&lt;br&gt;(cor_sensitivity_area)" style="rounded=1;whiteSpace=wrap;html=1;" parent="1" vertex="1">
          <mxGeometry x="-20" y="1209" width="170" height="80" as="geometry" />
        </mxCell>
        <mxCell id="UXb8US19K7nyJ-3x5xlv-12" value="Sensitivity per criterion (available in the SINP nomenclature)&amp;nbsp;&lt;br&gt;(cor_sensitivity_criteria)" style="rounded=1;whiteSpace=wrap;html=1;" parent="1" vertex="1">
          <mxGeometry x="-20" y="1299" width="170" height="80" as="geometry" />
        </mxCell>
        <mxCell id="UXb8US19K7nyJ-3x5xlv-13" value="Sensitivity per taxon and its duration&lt;br&gt;(t_sensitivity_rules)" style="rounded=1;whiteSpace=wrap;html=1;" parent="1" vertex="1">
          <mxGeometry x="-20" y="1389" width="175" height="80" as="geometry" />
        </mxCell>
        <mxCell id="UXb8US19K7nyJ-3x5xlv-14" value="List of modules where the data is used for the synthesis&lt;br&gt;(t_sources)" style="rounded=1;whiteSpace=wrap;html=1;" parent="1" vertex="1">
          <mxGeometry x="295" y="1133.5" width="190" height="80" as="geometry" />
        </mxCell>
        <mxCell id="UXb8US19K7nyJ-3x5xlv-15" value="Default values for nomenclature criteria available in the synthesis&lt;br&gt;(defaults_nomenclatures_value)" style="rounded=1;whiteSpace=wrap;html=1;" parent="1" vertex="1">
          <mxGeometry x="292" y="1223.5" width="196" height="90" as="geometry" />
        </mxCell>
        <mxCell id="UXb8US19K7nyJ-3x5xlv-16" value="Profile per taxon" style="rounded=1;whiteSpace=wrap;html=1;" parent="1" vertex="1">
          <mxGeometry x="649" y="1121.5" width="120" height="60" as="geometry" />
        </mxCell>
        <mxCell id="UXb8US19K7nyJ-3x5xlv-18" value="Reports made on an taxon survey&lt;br&gt;(t_reports)" style="rounded=1;whiteSpace=wrap;html=1;" parent="1" vertex="1">
          <mxGeometry x="295" y="1333.5" width="190" height="60" as="geometry" />
        </mxCell>
        <mxCell id="FNkKZlCQkf03Q6eKIE7J-1" value="Set up permissions in&amp;nbsp;&lt;br&gt;Geonature&lt;br&gt;(t_permissions_available)" style="rounded=1;whiteSpace=wrap;html=1;" vertex="1" parent="1">
          <mxGeometry x="-313" y="1335" width="140" height="60" as="geometry" />
        </mxCell>
        <mxCell id="FNkKZlCQkf03Q6eKIE7J-10" value="" style="group" vertex="1" connectable="0" parent="1">
          <mxGeometry x="1387" y="1095" width="160" height="100" as="geometry" />
        </mxCell>
        <mxCell id="FNkKZlCQkf03Q6eKIE7J-5" value="" style="rounded=1;whiteSpace=wrap;html=1;" vertex="1" parent="FNkKZlCQkf03Q6eKIE7J-10">
          <mxGeometry width="120" height="60" as="geometry" />
        </mxCell>
        <mxCell id="FNkKZlCQkf03Q6eKIE7J-6" value="" style="rounded=1;whiteSpace=wrap;html=1;" vertex="1" parent="FNkKZlCQkf03Q6eKIE7J-10">
          <mxGeometry x="10" y="10" width="120" height="60" as="geometry" />
        </mxCell>
        <mxCell id="FNkKZlCQkf03Q6eKIE7J-7" value="" style="rounded=1;whiteSpace=wrap;html=1;" vertex="1" parent="FNkKZlCQkf03Q6eKIE7J-10">
          <mxGeometry x="20" y="20" width="120" height="60" as="geometry" />
        </mxCell>
        <mxCell id="FNkKZlCQkf03Q6eKIE7J-8" value="" style="rounded=1;whiteSpace=wrap;html=1;" vertex="1" parent="FNkKZlCQkf03Q6eKIE7J-10">
          <mxGeometry x="30" y="30" width="120" height="60" as="geometry" />
        </mxCell>
        <mxCell id="FNkKZlCQkf03Q6eKIE7J-9" value="bdc_statut_taxons" style="rounded=1;whiteSpace=wrap;html=1;" vertex="1" parent="FNkKZlCQkf03Q6eKIE7J-10">
          <mxGeometry x="40" y="40" width="120" height="60" as="geometry" />
        </mxCell>
        <mxCell id="FNkKZlCQkf03Q6eKIE7J-14" value="Habitat types&lt;br&gt;(bib_taxref_habitats)" style="rounded=1;whiteSpace=wrap;html=1;" vertex="1" parent="1">
          <mxGeometry x="1275" y="1220" width="120" height="60" as="geometry" />
        </mxCell>
        <mxCell id="FNkKZlCQkf03Q6eKIE7J-15" value="Available taxon ranks&lt;br&gt;(bib_taxref_rangs)" style="rounded=1;whiteSpace=wrap;html=1;" vertex="1" parent="1">
          <mxGeometry x="1440" y="1220" width="120" height="60" as="geometry" />
        </mxCell>
        <mxCell id="FNkKZlCQkf03Q6eKIE7J-16" value="Available taxon status&lt;br&gt;(bib_taxref_status)" style="rounded=1;whiteSpace=wrap;html=1;" vertex="1" parent="1">
          <mxGeometry x="1440" y="1310" width="120" height="60" as="geometry" />
        </mxCell>
        <mxCell id="FNkKZlCQkf03Q6eKIE7J-17" value="Available media types&lt;br&gt;(bib_types_media)" style="rounded=1;whiteSpace=wrap;html=1;" vertex="1" parent="1">
          <mxGeometry x="1590" y="1220" width="130" height="60" as="geometry" />
        </mxCell>
        <mxCell id="FNkKZlCQkf03Q6eKIE7J-18" value="Available user profiles&lt;br&gt;(t_profils)" style="rounded=1;whiteSpace=wrap;html=1;" vertex="1" parent="1">
          <mxGeometry x="600" y="705" width="120" height="60" as="geometry" />
        </mxCell>
        <mxCell id="FNkKZlCQkf03Q6eKIE7J-20" value="Available applications (??)&lt;br&gt;(t_listes)" style="rounded=1;whiteSpace=wrap;html=1;" vertex="1" parent="1">
          <mxGeometry x="410" y="705" width="140" height="60" as="geometry" />
        </mxCell>
      </root>
    </mxGraphModel>
  </diagram>
  <diagram id="THQGjO6OsQc7kbkmHvBL" name="Backend Organisation">
    <mxGraphModel dx="2514" dy="1068" grid="1" gridSize="10" guides="1" tooltips="1" connect="1" arrows="1" fold="1" page="1" pageScale="1" pageWidth="827" pageHeight="1169" math="0" shadow="0">
      <root>
        <mxCell id="0" />
        <mxCell id="1" parent="0" />
        <mxCell id="TnviqMpvmVHk2fBYYg7t-7" style="edgeStyle=orthogonalEdgeStyle;rounded=0;orthogonalLoop=1;jettySize=auto;html=1;exitX=0.5;exitY=1;exitDx=0;exitDy=0;entryX=0;entryY=0.5;entryDx=0;entryDy=0;" parent="1" source="TnviqMpvmVHk2fBYYg7t-1" target="TnviqMpvmVHk2fBYYg7t-6" edge="1">
          <mxGeometry relative="1" as="geometry" />
        </mxCell>
        <mxCell id="jHnOQl674_xJ8-QjifgM-9" style="edgeStyle=orthogonalEdgeStyle;rounded=0;orthogonalLoop=1;jettySize=auto;html=1;exitX=0.5;exitY=1;exitDx=0;exitDy=0;entryX=0;entryY=0.5;entryDx=0;entryDy=0;" parent="1" source="TnviqMpvmVHk2fBYYg7t-1" target="jHnOQl674_xJ8-QjifgM-8" edge="1">
          <mxGeometry relative="1" as="geometry" />
        </mxCell>
        <mxCell id="QcRG3hkF8uIsMVMEag6c-6" style="edgeStyle=orthogonalEdgeStyle;rounded=0;orthogonalLoop=1;jettySize=auto;html=1;exitX=0.5;exitY=1;exitDx=0;exitDy=0;entryX=0;entryY=0.5;entryDx=0;entryDy=0;" parent="1" source="TnviqMpvmVHk2fBYYg7t-1" target="QcRG3hkF8uIsMVMEag6c-1" edge="1">
          <mxGeometry relative="1" as="geometry" />
        </mxCell>
        <mxCell id="TnviqMpvmVHk2fBYYg7t-1" value="core" style="rounded=1;whiteSpace=wrap;html=1;fillColor=#dae8fc;strokeColor=#6c8ebf;" parent="1" vertex="1">
          <mxGeometry x="160" y="110" width="120" height="60" as="geometry" />
        </mxCell>
        <mxCell id="TnviqMpvmVHk2fBYYg7t-3" style="edgeStyle=orthogonalEdgeStyle;rounded=0;orthogonalLoop=1;jettySize=auto;html=1;exitX=0.5;exitY=1;exitDx=0;exitDy=0;entryX=0;entryY=0.5;entryDx=0;entryDy=0;" parent="1" source="TnviqMpvmVHk2fBYYg7t-2" target="TnviqMpvmVHk2fBYYg7t-1" edge="1">
          <mxGeometry relative="1" as="geometry" />
        </mxCell>
        <mxCell id="QcRG3hkF8uIsMVMEag6c-10" style="edgeStyle=orthogonalEdgeStyle;rounded=0;orthogonalLoop=1;jettySize=auto;html=1;exitX=0.5;exitY=1;exitDx=0;exitDy=0;entryX=0;entryY=0.5;entryDx=0;entryDy=0;" parent="1" source="TnviqMpvmVHk2fBYYg7t-2" target="QcRG3hkF8uIsMVMEag6c-9" edge="1">
          <mxGeometry relative="1" as="geometry" />
        </mxCell>
        <mxCell id="QcRG3hkF8uIsMVMEag6c-36" style="edgeStyle=orthogonalEdgeStyle;rounded=0;orthogonalLoop=1;jettySize=auto;html=1;exitX=0.5;exitY=1;exitDx=0;exitDy=0;entryX=0;entryY=0.5;entryDx=0;entryDy=0;" parent="1" source="TnviqMpvmVHk2fBYYg7t-2" target="QcRG3hkF8uIsMVMEag6c-35" edge="1">
          <mxGeometry relative="1" as="geometry" />
        </mxCell>
        <mxCell id="QcRG3hkF8uIsMVMEag6c-39" style="edgeStyle=orthogonalEdgeStyle;rounded=0;orthogonalLoop=1;jettySize=auto;html=1;exitX=0.5;exitY=1;exitDx=0;exitDy=0;entryX=0;entryY=0.5;entryDx=0;entryDy=0;" parent="1" source="TnviqMpvmVHk2fBYYg7t-2" target="QcRG3hkF8uIsMVMEag6c-38" edge="1">
          <mxGeometry relative="1" as="geometry" />
        </mxCell>
        <mxCell id="QcRG3hkF8uIsMVMEag6c-42" style="edgeStyle=orthogonalEdgeStyle;rounded=0;orthogonalLoop=1;jettySize=auto;html=1;exitX=0.5;exitY=1;exitDx=0;exitDy=0;entryX=0;entryY=0.5;entryDx=0;entryDy=0;" parent="1" source="TnviqMpvmVHk2fBYYg7t-2" target="QcRG3hkF8uIsMVMEag6c-40" edge="1">
          <mxGeometry relative="1" as="geometry" />
        </mxCell>
        <mxCell id="QcRG3hkF8uIsMVMEag6c-44" style="edgeStyle=orthogonalEdgeStyle;rounded=0;orthogonalLoop=1;jettySize=auto;html=1;exitX=0.5;exitY=1;exitDx=0;exitDy=0;entryX=0;entryY=0.5;entryDx=0;entryDy=0;" parent="1" source="TnviqMpvmVHk2fBYYg7t-2" target="QcRG3hkF8uIsMVMEag6c-43" edge="1">
          <mxGeometry relative="1" as="geometry" />
        </mxCell>
        <mxCell id="QcRG3hkF8uIsMVMEag6c-76" style="edgeStyle=orthogonalEdgeStyle;rounded=0;orthogonalLoop=1;jettySize=auto;html=1;exitX=0.5;exitY=1;exitDx=0;exitDy=0;entryX=0;entryY=0.5;entryDx=0;entryDy=0;" parent="1" source="TnviqMpvmVHk2fBYYg7t-2" target="QcRG3hkF8uIsMVMEag6c-75" edge="1">
          <mxGeometry relative="1" as="geometry" />
        </mxCell>
        <mxCell id="TnviqMpvmVHk2fBYYg7t-2" value="geonature" style="rounded=1;whiteSpace=wrap;html=1;fillColor=#e1d5e7;strokeColor=#9673a6;" parent="1" vertex="1">
          <mxGeometry x="60" y="10" width="120" height="60" as="geometry" />
        </mxCell>
        <mxCell id="TnviqMpvmVHk2fBYYg7t-4" value="models" style="rounded=1;whiteSpace=wrap;html=1;" parent="1" vertex="1">
          <mxGeometry x="360" y="310" width="120" height="60" as="geometry" />
        </mxCell>
        <mxCell id="TnviqMpvmVHk2fBYYg7t-5" value="All tables metadata transcripted&lt;br&gt;in classes that inherits &lt;br&gt;from SQLAlchemy&amp;nbsp;" style="text;html=1;align=center;verticalAlign=middle;resizable=0;points=[];autosize=1;strokeColor=none;fillColor=none;" parent="1" vertex="1">
          <mxGeometry x="515" y="310" width="190" height="60" as="geometry" />
        </mxCell>
        <mxCell id="TnviqMpvmVHk2fBYYg7t-8" style="edgeStyle=orthogonalEdgeStyle;rounded=0;orthogonalLoop=1;jettySize=auto;html=1;exitX=0.5;exitY=1;exitDx=0;exitDy=0;entryX=0;entryY=0.5;entryDx=0;entryDy=0;" parent="1" source="TnviqMpvmVHk2fBYYg7t-6" target="TnviqMpvmVHk2fBYYg7t-4" edge="1">
          <mxGeometry relative="1" as="geometry" />
        </mxCell>
        <mxCell id="TnviqMpvmVHk2fBYYg7t-11" style="edgeStyle=orthogonalEdgeStyle;rounded=0;orthogonalLoop=1;jettySize=auto;html=1;exitX=0.5;exitY=1;exitDx=0;exitDy=0;entryX=0;entryY=0.5;entryDx=0;entryDy=0;" parent="1" source="TnviqMpvmVHk2fBYYg7t-6" target="TnviqMpvmVHk2fBYYg7t-10" edge="1">
          <mxGeometry relative="1" as="geometry" />
        </mxCell>
        <mxCell id="jHnOQl674_xJ8-QjifgM-2" style="edgeStyle=orthogonalEdgeStyle;rounded=0;orthogonalLoop=1;jettySize=auto;html=1;exitX=0.5;exitY=1;exitDx=0;exitDy=0;entryX=0;entryY=0.5;entryDx=0;entryDy=0;" parent="1" source="TnviqMpvmVHk2fBYYg7t-6" target="jHnOQl674_xJ8-QjifgM-1" edge="1">
          <mxGeometry relative="1" as="geometry" />
        </mxCell>
        <mxCell id="jHnOQl674_xJ8-QjifgM-6" style="edgeStyle=orthogonalEdgeStyle;rounded=0;orthogonalLoop=1;jettySize=auto;html=1;exitX=0.5;exitY=1;exitDx=0;exitDy=0;entryX=0;entryY=0.5;entryDx=0;entryDy=0;" parent="1" source="TnviqMpvmVHk2fBYYg7t-6" target="jHnOQl674_xJ8-QjifgM-5" edge="1">
          <mxGeometry relative="1" as="geometry" />
        </mxCell>
        <mxCell id="TnviqMpvmVHk2fBYYg7t-6" value="Functionality" style="rounded=1;whiteSpace=wrap;html=1;" parent="1" vertex="1">
          <mxGeometry x="280" y="200" width="120" height="60" as="geometry" />
        </mxCell>
        <mxCell id="TnviqMpvmVHk2fBYYg7t-10" value="routes" style="rounded=1;whiteSpace=wrap;html=1;" parent="1" vertex="1">
          <mxGeometry x="360" y="410" width="120" height="60" as="geometry" />
        </mxCell>
        <mxCell id="TnviqMpvmVHk2fBYYg7t-13" value="All API routes" style="text;html=1;align=center;verticalAlign=middle;resizable=0;points=[];autosize=1;strokeColor=none;fillColor=none;" parent="1" vertex="1">
          <mxGeometry x="560" y="425" width="100" height="30" as="geometry" />
        </mxCell>
        <mxCell id="jHnOQl674_xJ8-QjifgM-1" value="tasks" style="rounded=1;whiteSpace=wrap;html=1;" parent="1" vertex="1">
          <mxGeometry x="360" y="500" width="120" height="60" as="geometry" />
        </mxCell>
        <mxCell id="jHnOQl674_xJ8-QjifgM-4" value="Asynchronous tasks (Celery)" style="text;html=1;align=center;verticalAlign=middle;resizable=0;points=[];autosize=1;strokeColor=none;fillColor=none;" parent="1" vertex="1">
          <mxGeometry x="505" y="515" width="180" height="30" as="geometry" />
        </mxCell>
        <mxCell id="jHnOQl674_xJ8-QjifgM-5" value="tools, utils" style="rounded=1;whiteSpace=wrap;html=1;" parent="1" vertex="1">
          <mxGeometry x="360" y="600" width="120" height="60" as="geometry" />
        </mxCell>
        <mxCell id="jHnOQl674_xJ8-QjifgM-7" value="Miscellenous variables, function, class&lt;br&gt;used for a functionality" style="text;html=1;align=center;verticalAlign=middle;resizable=0;points=[];autosize=1;strokeColor=none;fillColor=none;" parent="1" vertex="1">
          <mxGeometry x="495" y="605" width="230" height="40" as="geometry" />
        </mxCell>
        <mxCell id="jHnOQl674_xJ8-QjifgM-8" value="command" style="rounded=1;whiteSpace=wrap;html=1;fillColor=#d5e8d4;strokeColor=#82b366;" parent="1" vertex="1">
          <mxGeometry x="280" y="690" width="120" height="60" as="geometry" />
        </mxCell>
        <mxCell id="jHnOQl674_xJ8-QjifgM-10" value="Geonature command line&amp;nbsp;&lt;br&gt;definition" style="text;html=1;align=center;verticalAlign=middle;resizable=0;points=[];autosize=1;strokeColor=none;fillColor=none;" parent="1" vertex="1">
          <mxGeometry x="440" y="700" width="160" height="40" as="geometry" />
        </mxCell>
        <mxCell id="QcRG3hkF8uIsMVMEag6c-1" value="admin" style="rounded=1;whiteSpace=wrap;html=1;fillColor=#d5e8d4;strokeColor=#82b366;" parent="1" vertex="1">
          <mxGeometry x="280" y="790" width="120" height="60" as="geometry" />
        </mxCell>
        <mxCell id="QcRG3hkF8uIsMVMEag6c-2" value="" style="rounded=1;whiteSpace=wrap;html=1;fillColor=#dae8fc;strokeColor=#6c8ebf;" parent="1" vertex="1">
          <mxGeometry x="901" width="20" height="60" as="geometry" />
        </mxCell>
        <mxCell id="QcRG3hkF8uIsMVMEag6c-3" value="Existing modules (color indicate depth" style="text;html=1;align=center;verticalAlign=middle;resizable=0;points=[];autosize=1;strokeColor=none;fillColor=none;" parent="1" vertex="1">
          <mxGeometry x="991" y="20" width="230" height="30" as="geometry" />
        </mxCell>
        <mxCell id="QcRG3hkF8uIsMVMEag6c-4" value="" style="rounded=1;whiteSpace=wrap;html=1;" parent="1" vertex="1">
          <mxGeometry x="870" y="113" width="120" height="60" as="geometry" />
        </mxCell>
        <mxCell id="QcRG3hkF8uIsMVMEag6c-5" value="template" style="text;html=1;align=center;verticalAlign=middle;resizable=0;points=[];autosize=1;strokeColor=none;fillColor=none;" parent="1" vertex="1">
          <mxGeometry x="1031" y="128" width="70" height="30" as="geometry" />
        </mxCell>
        <mxCell id="QcRG3hkF8uIsMVMEag6c-7" value="BackOffice GUI (flaskadmin)" style="text;html=1;align=center;verticalAlign=middle;resizable=0;points=[];autosize=1;strokeColor=none;fillColor=none;" parent="1" vertex="1">
          <mxGeometry x="440" y="805" width="170" height="30" as="geometry" />
        </mxCell>
        <mxCell id="QcRG3hkF8uIsMVMEag6c-14" style="edgeStyle=orthogonalEdgeStyle;rounded=0;orthogonalLoop=1;jettySize=auto;html=1;exitX=0.5;exitY=1;exitDx=0;exitDy=0;entryX=0;entryY=0.5;entryDx=0;entryDy=0;" parent="1" source="QcRG3hkF8uIsMVMEag6c-9" target="QcRG3hkF8uIsMVMEag6c-13" edge="1">
          <mxGeometry relative="1" as="geometry" />
        </mxCell>
        <mxCell id="QcRG3hkF8uIsMVMEag6c-23" style="edgeStyle=orthogonalEdgeStyle;rounded=0;orthogonalLoop=1;jettySize=auto;html=1;exitX=0.5;exitY=1;exitDx=0;exitDy=0;entryX=0;entryY=0.5;entryDx=0;entryDy=0;" parent="1" source="QcRG3hkF8uIsMVMEag6c-9" target="QcRG3hkF8uIsMVMEag6c-22" edge="1">
          <mxGeometry relative="1" as="geometry" />
        </mxCell>
        <mxCell id="QcRG3hkF8uIsMVMEag6c-9" value="migrations" style="rounded=1;whiteSpace=wrap;html=1;fillColor=#dae8fc;strokeColor=#6c8ebf;" parent="1" vertex="1">
          <mxGeometry x="160" y="900" width="120" height="60" as="geometry" />
        </mxCell>
        <mxCell id="QcRG3hkF8uIsMVMEag6c-11" value="Core API code" style="rounded=1;whiteSpace=wrap;html=1;fillColor=none;strokeColor=none;" parent="1" vertex="1">
          <mxGeometry x="294" y="110" width="120" height="60" as="geometry" />
        </mxCell>
        <mxCell id="QcRG3hkF8uIsMVMEag6c-12" value="Database creation and migration" style="text;html=1;align=center;verticalAlign=middle;resizable=0;points=[];autosize=1;strokeColor=none;fillColor=none;" parent="1" vertex="1">
          <mxGeometry x="294" y="915" width="200" height="30" as="geometry" />
        </mxCell>
        <mxCell id="QcRG3hkF8uIsMVMEag6c-20" style="edgeStyle=orthogonalEdgeStyle;rounded=0;orthogonalLoop=1;jettySize=auto;html=1;exitX=0.5;exitY=1;exitDx=0;exitDy=0;entryX=0;entryY=0.5;entryDx=0;entryDy=0;" parent="1" source="QcRG3hkF8uIsMVMEag6c-13" target="QcRG3hkF8uIsMVMEag6c-15" edge="1">
          <mxGeometry relative="1" as="geometry" />
        </mxCell>
        <mxCell id="QcRG3hkF8uIsMVMEag6c-21" style="edgeStyle=orthogonalEdgeStyle;rounded=0;orthogonalLoop=1;jettySize=auto;html=1;exitX=0.5;exitY=1;exitDx=0;exitDy=0;entryX=0;entryY=0.5;entryDx=0;entryDy=0;" parent="1" source="QcRG3hkF8uIsMVMEag6c-13" target="QcRG3hkF8uIsMVMEag6c-16" edge="1">
          <mxGeometry relative="1" as="geometry" />
        </mxCell>
        <mxCell id="QcRG3hkF8uIsMVMEag6c-13" value="data" style="rounded=1;whiteSpace=wrap;html=1;fillColor=#d5e8d4;strokeColor=#82b366;" parent="1" vertex="1">
          <mxGeometry x="280" y="1000" width="120" height="60" as="geometry" />
        </mxCell>
        <mxCell id="QcRG3hkF8uIsMVMEag6c-15" value="core" style="rounded=1;whiteSpace=wrap;html=1;fillColor=#ffe6cc;strokeColor=#d79b00;" parent="1" vertex="1">
          <mxGeometry x="360" y="1080" width="120" height="60" as="geometry" />
        </mxCell>
        <mxCell id="QcRG3hkF8uIsMVMEag6c-16" value="utilisateur" style="rounded=1;whiteSpace=wrap;html=1;fillColor=#ffe6cc;strokeColor=#d79b00;" parent="1" vertex="1">
          <mxGeometry x="360" y="1180" width="120" height="60" as="geometry" />
        </mxCell>
        <mxCell id="QcRG3hkF8uIsMVMEag6c-18" value="" style="shape=curlyBracket;whiteSpace=wrap;html=1;rounded=1;flipH=1;labelPosition=right;verticalLabelPosition=middle;align=left;verticalAlign=middle;" parent="1" vertex="1">
          <mxGeometry x="494" y="1100" width="20" height="120" as="geometry" />
        </mxCell>
        <mxCell id="QcRG3hkF8uIsMVMEag6c-19" value="Database creation" style="text;html=1;align=center;verticalAlign=middle;resizable=0;points=[];autosize=1;strokeColor=none;fillColor=none;" parent="1" vertex="1">
          <mxGeometry x="519" y="1145" width="120" height="30" as="geometry" />
        </mxCell>
        <mxCell id="QcRG3hkF8uIsMVMEag6c-31" style="edgeStyle=orthogonalEdgeStyle;rounded=0;orthogonalLoop=1;jettySize=auto;html=1;exitX=0.5;exitY=1;exitDx=0;exitDy=0;entryX=0;entryY=0.5;entryDx=0;entryDy=0;" parent="1" source="QcRG3hkF8uIsMVMEag6c-22" target="QcRG3hkF8uIsMVMEag6c-30" edge="1">
          <mxGeometry relative="1" as="geometry" />
        </mxCell>
        <mxCell id="QcRG3hkF8uIsMVMEag6c-22" value="versions" style="rounded=1;whiteSpace=wrap;html=1;fillColor=#d5e8d4;strokeColor=#82b366;" parent="1" vertex="1">
          <mxGeometry x="280" y="1280" width="120" height="60" as="geometry" />
        </mxCell>
        <mxCell id="QcRG3hkF8uIsMVMEag6c-24" value="" style="rounded=1;whiteSpace=wrap;html=1;fillColor=#d5e8d4;strokeColor=#82b366;" parent="1" vertex="1">
          <mxGeometry x="921" width="20" height="60" as="geometry" />
        </mxCell>
        <mxCell id="QcRG3hkF8uIsMVMEag6c-25" value="" style="rounded=1;whiteSpace=wrap;html=1;fillColor=#fff2cc;strokeColor=#d6b656;" parent="1" vertex="1">
          <mxGeometry x="961" width="20" height="60" as="geometry" />
        </mxCell>
        <mxCell id="QcRG3hkF8uIsMVMEag6c-28" value="" style="rounded=1;whiteSpace=wrap;html=1;fillColor=#ffe6cc;strokeColor=#d79b00;" parent="1" vertex="1">
          <mxGeometry x="941" width="20" height="60" as="geometry" />
        </mxCell>
        <mxCell id="QcRG3hkF8uIsMVMEag6c-29" value="" style="rounded=1;whiteSpace=wrap;html=1;fillColor=#e1d5e7;strokeColor=#9673a6;" parent="1" vertex="1">
          <mxGeometry x="881" width="20" height="60" as="geometry" />
        </mxCell>
        <mxCell id="QcRG3hkF8uIsMVMEag6c-30" value="&amp;lt;id_version&amp;gt;_&amp;lt;label_update&amp;gt;" style="rounded=1;whiteSpace=wrap;html=1;" parent="1" vertex="1">
          <mxGeometry x="360" y="1370" width="180" height="60" as="geometry" />
        </mxCell>
        <mxCell id="QcRG3hkF8uIsMVMEag6c-32" value="*.sql" style="text;html=1;align=center;verticalAlign=middle;resizable=0;points=[];autosize=1;strokeColor=none;fillColor=none;" parent="1" vertex="1">
          <mxGeometry x="430" y="1115" width="50" height="30" as="geometry" />
        </mxCell>
        <mxCell id="QcRG3hkF8uIsMVMEag6c-33" value="*.sql" style="text;html=1;align=center;verticalAlign=middle;resizable=0;points=[];autosize=1;strokeColor=none;fillColor=none;" parent="1" vertex="1">
          <mxGeometry x="433" y="1213" width="50" height="30" as="geometry" />
        </mxCell>
        <mxCell id="QcRG3hkF8uIsMVMEag6c-34" value="*.py (alembic)" style="text;html=1;align=center;verticalAlign=middle;resizable=0;points=[];autosize=1;strokeColor=none;fillColor=none;" parent="1" vertex="1">
          <mxGeometry x="448" y="1403" width="100" height="30" as="geometry" />
        </mxCell>
        <mxCell id="QcRG3hkF8uIsMVMEag6c-35" value="app.py" style="rounded=1;whiteSpace=wrap;html=1;fillColor=#dae8fc;strokeColor=#6c8ebf;" parent="1" vertex="1">
          <mxGeometry x="159" y="2550" width="120" height="60" as="geometry" />
        </mxCell>
        <mxCell id="QcRG3hkF8uIsMVMEag6c-37" value="EntryPoint of geonature" style="text;html=1;align=center;verticalAlign=middle;resizable=0;points=[];autosize=1;strokeColor=none;fillColor=none;" parent="1" vertex="1">
          <mxGeometry x="308" y="2565" width="150" height="30" as="geometry" />
        </mxCell>
        <mxCell id="QcRG3hkF8uIsMVMEag6c-80" style="edgeStyle=orthogonalEdgeStyle;rounded=0;orthogonalLoop=1;jettySize=auto;html=1;exitX=0.5;exitY=1;exitDx=0;exitDy=0;entryX=0;entryY=0.5;entryDx=0;entryDy=0;" parent="1" source="QcRG3hkF8uIsMVMEag6c-38" target="QcRG3hkF8uIsMVMEag6c-46" edge="1">
          <mxGeometry relative="1" as="geometry" />
        </mxCell>
        <mxCell id="QcRG3hkF8uIsMVMEag6c-81" style="edgeStyle=orthogonalEdgeStyle;rounded=0;orthogonalLoop=1;jettySize=auto;html=1;exitX=0.5;exitY=1;exitDx=0;exitDy=0;entryX=0;entryY=0.5;entryDx=0;entryDy=0;" parent="1" source="QcRG3hkF8uIsMVMEag6c-38" target="QcRG3hkF8uIsMVMEag6c-48" edge="1">
          <mxGeometry relative="1" as="geometry" />
        </mxCell>
        <mxCell id="QcRG3hkF8uIsMVMEag6c-82" style="edgeStyle=orthogonalEdgeStyle;rounded=0;orthogonalLoop=1;jettySize=auto;html=1;exitX=0.5;exitY=1;exitDx=0;exitDy=0;entryX=0;entryY=0.5;entryDx=0;entryDy=0;" parent="1" source="QcRG3hkF8uIsMVMEag6c-38" target="QcRG3hkF8uIsMVMEag6c-47" edge="1">
          <mxGeometry relative="1" as="geometry" />
        </mxCell>
        <mxCell id="QcRG3hkF8uIsMVMEag6c-83" style="edgeStyle=orthogonalEdgeStyle;rounded=0;orthogonalLoop=1;jettySize=auto;html=1;exitX=0.5;exitY=1;exitDx=0;exitDy=0;entryX=0;entryY=0.5;entryDx=0;entryDy=0;" parent="1" source="QcRG3hkF8uIsMVMEag6c-38" target="QcRG3hkF8uIsMVMEag6c-55" edge="1">
          <mxGeometry relative="1" as="geometry" />
        </mxCell>
        <mxCell id="QcRG3hkF8uIsMVMEag6c-84" style="edgeStyle=orthogonalEdgeStyle;rounded=0;orthogonalLoop=1;jettySize=auto;html=1;exitX=0.5;exitY=1;exitDx=0;exitDy=0;entryX=0;entryY=0.5;entryDx=0;entryDy=0;" parent="1" source="QcRG3hkF8uIsMVMEag6c-38" target="QcRG3hkF8uIsMVMEag6c-57" edge="1">
          <mxGeometry relative="1" as="geometry" />
        </mxCell>
        <mxCell id="QcRG3hkF8uIsMVMEag6c-85" style="edgeStyle=orthogonalEdgeStyle;rounded=0;orthogonalLoop=1;jettySize=auto;html=1;exitX=0.5;exitY=1;exitDx=0;exitDy=0;entryX=0;entryY=0.5;entryDx=0;entryDy=0;" parent="1" source="QcRG3hkF8uIsMVMEag6c-38" target="QcRG3hkF8uIsMVMEag6c-61" edge="1">
          <mxGeometry relative="1" as="geometry" />
        </mxCell>
        <mxCell id="QcRG3hkF8uIsMVMEag6c-86" style="edgeStyle=orthogonalEdgeStyle;rounded=0;orthogonalLoop=1;jettySize=auto;html=1;exitX=0.5;exitY=1;exitDx=0;exitDy=0;entryX=0;entryY=0.5;entryDx=0;entryDy=0;" parent="1" source="QcRG3hkF8uIsMVMEag6c-38" target="QcRG3hkF8uIsMVMEag6c-65" edge="1">
          <mxGeometry relative="1" as="geometry" />
        </mxCell>
        <mxCell id="QcRG3hkF8uIsMVMEag6c-87" style="edgeStyle=orthogonalEdgeStyle;rounded=0;orthogonalLoop=1;jettySize=auto;html=1;exitX=0.5;exitY=1;exitDx=0;exitDy=0;entryX=0;entryY=0.5;entryDx=0;entryDy=0;" parent="1" source="QcRG3hkF8uIsMVMEag6c-38" target="QcRG3hkF8uIsMVMEag6c-73" edge="1">
          <mxGeometry relative="1" as="geometry" />
        </mxCell>
        <mxCell id="QcRG3hkF8uIsMVMEag6c-89" style="edgeStyle=orthogonalEdgeStyle;rounded=0;orthogonalLoop=1;jettySize=auto;html=1;exitX=1;exitY=0.5;exitDx=0;exitDy=0;entryX=0;entryY=0.5;entryDx=0;entryDy=0;" parent="1" source="QcRG3hkF8uIsMVMEag6c-38" target="QcRG3hkF8uIsMVMEag6c-49" edge="1">
          <mxGeometry relative="1" as="geometry">
            <Array as="points">
              <mxPoint x="650" y="1550" />
              <mxPoint x="650" y="1630" />
            </Array>
          </mxGeometry>
        </mxCell>
        <mxCell id="QcRG3hkF8uIsMVMEag6c-90" style="edgeStyle=orthogonalEdgeStyle;rounded=0;orthogonalLoop=1;jettySize=auto;html=1;exitX=1;exitY=0.5;exitDx=0;exitDy=0;entryX=0;entryY=0.5;entryDx=0;entryDy=0;" parent="1" source="QcRG3hkF8uIsMVMEag6c-38" target="QcRG3hkF8uIsMVMEag6c-67" edge="1">
          <mxGeometry relative="1" as="geometry">
            <Array as="points">
              <mxPoint x="650" y="1550" />
              <mxPoint x="650" y="1710" />
            </Array>
          </mxGeometry>
        </mxCell>
        <mxCell id="QcRG3hkF8uIsMVMEag6c-91" style="edgeStyle=orthogonalEdgeStyle;rounded=0;orthogonalLoop=1;jettySize=auto;html=1;exitX=1;exitY=0.5;exitDx=0;exitDy=0;entryX=0;entryY=0.5;entryDx=0;entryDy=0;" parent="1" source="QcRG3hkF8uIsMVMEag6c-38" target="QcRG3hkF8uIsMVMEag6c-69" edge="1">
          <mxGeometry relative="1" as="geometry">
            <Array as="points">
              <mxPoint x="650" y="1550" />
              <mxPoint x="650" y="1789" />
            </Array>
          </mxGeometry>
        </mxCell>
        <mxCell id="QcRG3hkF8uIsMVMEag6c-93" style="edgeStyle=orthogonalEdgeStyle;rounded=0;orthogonalLoop=1;jettySize=auto;html=1;exitX=1;exitY=0.5;exitDx=0;exitDy=0;entryX=0;entryY=0.5;entryDx=0;entryDy=0;" parent="1" source="QcRG3hkF8uIsMVMEag6c-38" target="QcRG3hkF8uIsMVMEag6c-59" edge="1">
          <mxGeometry relative="1" as="geometry">
            <Array as="points">
              <mxPoint x="650" y="1550" />
              <mxPoint x="650" y="1910" />
            </Array>
          </mxGeometry>
        </mxCell>
        <mxCell id="QcRG3hkF8uIsMVMEag6c-94" style="edgeStyle=orthogonalEdgeStyle;rounded=0;orthogonalLoop=1;jettySize=auto;html=1;exitX=1;exitY=0.5;exitDx=0;exitDy=0;entryX=0;entryY=0.5;entryDx=0;entryDy=0;" parent="1" source="QcRG3hkF8uIsMVMEag6c-38" target="QcRG3hkF8uIsMVMEag6c-71" edge="1">
          <mxGeometry relative="1" as="geometry">
            <Array as="points">
              <mxPoint x="650" y="1550" />
              <mxPoint x="650" y="1990" />
            </Array>
          </mxGeometry>
        </mxCell>
        <mxCell id="QcRG3hkF8uIsMVMEag6c-95" style="edgeStyle=orthogonalEdgeStyle;rounded=0;orthogonalLoop=1;jettySize=auto;html=1;exitX=1;exitY=0.5;exitDx=0;exitDy=0;entryX=0;entryY=0.5;entryDx=0;entryDy=0;" parent="1" source="QcRG3hkF8uIsMVMEag6c-38" target="QcRG3hkF8uIsMVMEag6c-63" edge="1">
          <mxGeometry relative="1" as="geometry">
            <Array as="points">
              <mxPoint x="650" y="1550" />
              <mxPoint x="650" y="2069" />
            </Array>
          </mxGeometry>
        </mxCell>
        <mxCell id="QcRG3hkF8uIsMVMEag6c-38" value="utils" style="rounded=1;whiteSpace=wrap;html=1;fillColor=#dae8fc;strokeColor=#6c8ebf;" parent="1" vertex="1">
          <mxGeometry x="160" y="1520" width="120" height="60" as="geometry" />
        </mxCell>
        <mxCell id="QcRG3hkF8uIsMVMEag6c-40" value="tests" style="rounded=1;whiteSpace=wrap;html=1;fillColor=#dae8fc;strokeColor=#6c8ebf;" parent="1" vertex="1">
          <mxGeometry x="159" y="2370" width="120" height="60" as="geometry" />
        </mxCell>
        <mxCell id="QcRG3hkF8uIsMVMEag6c-43" value="templates" style="rounded=1;whiteSpace=wrap;html=1;fillColor=#dae8fc;strokeColor=#6c8ebf;" parent="1" vertex="1">
          <mxGeometry x="159" y="2460" width="120" height="60" as="geometry" />
        </mxCell>
        <mxCell id="QcRG3hkF8uIsMVMEag6c-45" value="Jinja templates (interface admin mostly)" style="text;html=1;align=center;verticalAlign=middle;resizable=0;points=[];autosize=1;strokeColor=none;fillColor=none;" parent="1" vertex="1">
          <mxGeometry x="323" y="2475" width="230" height="30" as="geometry" />
        </mxCell>
        <mxCell id="QcRG3hkF8uIsMVMEag6c-46" value="command.py" style="rounded=1;whiteSpace=wrap;html=1;fillColor=#d5e8d4;strokeColor=#82b366;" parent="1" vertex="1">
          <mxGeometry x="280" y="1601" width="120" height="60" as="geometry" />
        </mxCell>
        <mxCell id="QcRG3hkF8uIsMVMEag6c-47" value="config_schema.py" style="rounded=1;whiteSpace=wrap;html=1;fillColor=#d5e8d4;strokeColor=#82b366;" parent="1" vertex="1">
          <mxGeometry x="280" y="1759" width="120" height="60" as="geometry" />
        </mxCell>
        <mxCell id="QcRG3hkF8uIsMVMEag6c-48" value="config.py" style="rounded=1;whiteSpace=wrap;html=1;fillColor=#d5e8d4;strokeColor=#82b366;" parent="1" vertex="1">
          <mxGeometry x="280" y="1680" width="120" height="60" as="geometry" />
        </mxCell>
        <mxCell id="QcRG3hkF8uIsMVMEag6c-49" value="env.py" style="rounded=1;whiteSpace=wrap;html=1;fillColor=#d5e8d4;strokeColor=#82b366;" parent="1" vertex="1">
          <mxGeometry x="680" y="1600" width="120" height="60" as="geometry" />
        </mxCell>
        <mxCell id="QcRG3hkF8uIsMVMEag6c-50" value="Environnement variable (DB connection, ...)" style="text;html=1;align=left;verticalAlign=middle;resizable=0;points=[];autosize=1;strokeColor=none;fillColor=none;" parent="1" vertex="1">
          <mxGeometry x="827" y="1615" width="260" height="30" as="geometry" />
        </mxCell>
        <mxCell id="QcRG3hkF8uIsMVMEag6c-52" value="Validation schema used for the&amp;nbsp;&lt;br&gt;configuration file" style="text;html=1;align=left;verticalAlign=middle;resizable=0;points=[];autosize=1;strokeColor=none;fillColor=none;" parent="1" vertex="1">
          <mxGeometry x="440" y="1770" width="190" height="40" as="geometry" />
        </mxCell>
        <mxCell id="QcRG3hkF8uIsMVMEag6c-53" value="Configuration loading" style="text;html=1;align=left;verticalAlign=middle;resizable=0;points=[];autosize=1;strokeColor=none;fillColor=none;" parent="1" vertex="1">
          <mxGeometry x="440" y="1695" width="140" height="30" as="geometry" />
        </mxCell>
        <mxCell id="QcRG3hkF8uIsMVMEag6c-54" value="Commande line helpers" style="text;html=1;align=left;verticalAlign=middle;resizable=0;points=[];autosize=1;strokeColor=none;fillColor=none;" parent="1" vertex="1">
          <mxGeometry x="433" y="1615" width="150" height="30" as="geometry" />
        </mxCell>
        <mxCell id="QcRG3hkF8uIsMVMEag6c-55" value="errors.py" style="rounded=1;whiteSpace=wrap;html=1;fillColor=#d5e8d4;strokeColor=#82b366;" parent="1" vertex="1">
          <mxGeometry x="280" y="1881" width="120" height="60" as="geometry" />
        </mxCell>
        <mxCell id="QcRG3hkF8uIsMVMEag6c-56" value="Custom errors" style="text;html=1;align=left;verticalAlign=middle;resizable=0;points=[];autosize=1;strokeColor=none;fillColor=none;" parent="1" vertex="1">
          <mxGeometry x="440" y="1895" width="100" height="30" as="geometry" />
        </mxCell>
        <mxCell id="QcRG3hkF8uIsMVMEag6c-57" value="filemanager.py" style="rounded=1;whiteSpace=wrap;html=1;fillColor=#d5e8d4;strokeColor=#82b366;" parent="1" vertex="1">
          <mxGeometry x="280" y="1960" width="120" height="60" as="geometry" />
        </mxCell>
        <mxCell id="QcRG3hkF8uIsMVMEag6c-58" value="File management and&lt;br&gt;&amp;nbsp;PDF generation" style="text;html=1;align=left;verticalAlign=middle;resizable=0;points=[];autosize=1;strokeColor=none;fillColor=none;" parent="1" vertex="1">
          <mxGeometry x="440" y="1970" width="140" height="40" as="geometry" />
        </mxCell>
        <mxCell id="QcRG3hkF8uIsMVMEag6c-59" value="logs.py" style="rounded=1;whiteSpace=wrap;html=1;fillColor=#d5e8d4;strokeColor=#82b366;" parent="1" vertex="1">
          <mxGeometry x="680" y="1880" width="120" height="60" as="geometry" />
        </mxCell>
        <mxCell id="QcRG3hkF8uIsMVMEag6c-60" value="Logger configuration" style="text;html=1;align=left;verticalAlign=middle;resizable=0;points=[];autosize=1;strokeColor=none;fillColor=none;" parent="1" vertex="1">
          <mxGeometry x="827" y="1895" width="130" height="30" as="geometry" />
        </mxCell>
        <mxCell id="QcRG3hkF8uIsMVMEag6c-61" value="module.py" style="rounded=1;whiteSpace=wrap;html=1;fillColor=#d5e8d4;strokeColor=#82b366;" parent="1" vertex="1">
          <mxGeometry x="280" y="2040" width="120" height="60" as="geometry" />
        </mxCell>
        <mxCell id="QcRG3hkF8uIsMVMEag6c-62" value="Module related functions" style="text;html=1;align=left;verticalAlign=middle;resizable=0;points=[];autosize=1;strokeColor=none;fillColor=none;" parent="1" vertex="1">
          <mxGeometry x="440" y="2055" width="150" height="30" as="geometry" />
        </mxCell>
        <mxCell id="QcRG3hkF8uIsMVMEag6c-63" value="schema.py" style="rounded=1;whiteSpace=wrap;html=1;fillColor=#d5e8d4;strokeColor=#82b366;" parent="1" vertex="1">
          <mxGeometry x="680" y="2039" width="120" height="60" as="geometry" />
        </mxCell>
        <mxCell id="QcRG3hkF8uIsMVMEag6c-64" value="Marschmallow schema for cruved permissions" style="text;html=1;align=left;verticalAlign=middle;resizable=0;points=[];autosize=1;strokeColor=none;fillColor=none;" parent="1" vertex="1">
          <mxGeometry x="827" y="2055" width="270" height="30" as="geometry" />
        </mxCell>
        <mxCell id="QcRG3hkF8uIsMVMEag6c-65" value="utilsgeometrytools.py" style="rounded=1;whiteSpace=wrap;html=1;fillColor=#d5e8d4;strokeColor=#82b366;" parent="1" vertex="1">
          <mxGeometry x="280" y="2120" width="120" height="60" as="geometry" />
        </mxCell>
        <mxCell id="QcRG3hkF8uIsMVMEag6c-66" value="Export data from table with geometries (functions)" style="text;html=1;align=left;verticalAlign=middle;resizable=0;points=[];autosize=1;strokeColor=none;fillColor=none;" parent="1" vertex="1">
          <mxGeometry x="440" y="2136" width="290" height="30" as="geometry" />
        </mxCell>
        <mxCell id="QcRG3hkF8uIsMVMEag6c-67" value="utilsmails.py" style="rounded=1;whiteSpace=wrap;html=1;fillColor=#d5e8d4;strokeColor=#82b366;" parent="1" vertex="1">
          <mxGeometry x="680" y="1680" width="120" height="60" as="geometry" />
        </mxCell>
        <mxCell id="QcRG3hkF8uIsMVMEag6c-68" value="Mail related function" style="text;html=1;align=left;verticalAlign=middle;resizable=0;points=[];autosize=1;strokeColor=none;fillColor=none;" parent="1" vertex="1">
          <mxGeometry x="827" y="1695" width="130" height="30" as="geometry" />
        </mxCell>
        <mxCell id="QcRG3hkF8uIsMVMEag6c-69" value="utilsrequests.py" style="rounded=1;whiteSpace=wrap;html=1;fillColor=#d5e8d4;strokeColor=#82b366;" parent="1" vertex="1">
          <mxGeometry x="680" y="1759" width="120" height="60" as="geometry" />
        </mxCell>
        <mxCell id="QcRG3hkF8uIsMVMEag6c-70" value="Functions that simplify &lt;br&gt;requests.get and requsts.put functions" style="text;html=1;align=left;verticalAlign=middle;resizable=0;points=[];autosize=1;strokeColor=none;fillColor=none;" parent="1" vertex="1">
          <mxGeometry x="827" y="1770" width="230" height="40" as="geometry" />
        </mxCell>
        <mxCell id="QcRG3hkF8uIsMVMEag6c-71" value="utilssqlalchemy.py" style="rounded=1;whiteSpace=wrap;html=1;fillColor=#d5e8d4;strokeColor=#82b366;" parent="1" vertex="1">
          <mxGeometry x="680" y="1960" width="120" height="60" as="geometry" />
        </mxCell>
        <mxCell id="QcRG3hkF8uIsMVMEag6c-72" value="Utils function for SQLAlchemy" style="text;html=1;align=left;verticalAlign=middle;resizable=0;points=[];autosize=1;strokeColor=none;fillColor=none;" parent="1" vertex="1">
          <mxGeometry x="827" y="1975" width="180" height="30" as="geometry" />
        </mxCell>
        <mxCell id="QcRG3hkF8uIsMVMEag6c-73" value="utilstoml.py" style="rounded=1;whiteSpace=wrap;html=1;fillColor=#d5e8d4;strokeColor=#82b366;" parent="1" vertex="1">
          <mxGeometry x="280" y="2200" width="120" height="60" as="geometry" />
        </mxCell>
        <mxCell id="QcRG3hkF8uIsMVMEag6c-74" value="TOML loading functions" style="text;html=1;align=left;verticalAlign=middle;resizable=0;points=[];autosize=1;strokeColor=none;fillColor=none;" parent="1" vertex="1">
          <mxGeometry x="440" y="2215" width="150" height="30" as="geometry" />
        </mxCell>
        <mxCell id="QcRG3hkF8uIsMVMEag6c-75" value="celery_app.py" style="rounded=1;whiteSpace=wrap;html=1;fillColor=#dae8fc;strokeColor=#6c8ebf;" parent="1" vertex="1">
          <mxGeometry x="159" y="2650" width="120" height="60" as="geometry" />
        </mxCell>
        <mxCell id="QcRG3hkF8uIsMVMEag6c-77" value="Entrypoint of celery service" style="text;html=1;align=center;verticalAlign=middle;resizable=0;points=[];autosize=1;strokeColor=none;fillColor=none;" parent="1" vertex="1">
          <mxGeometry x="308" y="2665" width="170" height="30" as="geometry" />
        </mxCell>
        <mxCell id="QcRG3hkF8uIsMVMEag6c-78" value="" style="shape=flexArrow;endArrow=classic;html=1;rounded=0;" parent="1" edge="1">
          <mxGeometry width="50" height="50" relative="1" as="geometry">
            <mxPoint x="-51" y="2579.47" as="sourcePoint" />
            <mxPoint x="119" y="2579.47" as="targetPoint" />
          </mxGeometry>
        </mxCell>
        <mxCell id="QcRG3hkF8uIsMVMEag6c-79" value="" style="shape=flexArrow;endArrow=classic;html=1;rounded=0;" parent="1" edge="1">
          <mxGeometry width="50" height="50" relative="1" as="geometry">
            <mxPoint x="-51" y="2679.47" as="sourcePoint" />
            <mxPoint x="119" y="2679.47" as="targetPoint" />
          </mxGeometry>
        </mxCell>
        <mxCell id="QcRG3hkF8uIsMVMEag6c-100" value="" style="group" parent="1" vertex="1" connectable="0">
          <mxGeometry x="-110" y="2645" width="70" height="70" as="geometry" />
        </mxCell>
        <mxCell id="QcRG3hkF8uIsMVMEag6c-97" value="" style="ellipse;whiteSpace=wrap;html=1;aspect=fixed;" parent="QcRG3hkF8uIsMVMEag6c-100" vertex="1">
          <mxGeometry width="70" height="70" as="geometry" />
        </mxCell>
        <mxCell id="QcRG3hkF8uIsMVMEag6c-98" value="" style="ellipse;whiteSpace=wrap;html=1;aspect=fixed;fillColor=#000000;" parent="QcRG3hkF8uIsMVMEag6c-100" vertex="1">
          <mxGeometry x="20" y="20" width="30" height="30" as="geometry" />
        </mxCell>
        <mxCell id="QcRG3hkF8uIsMVMEag6c-106" value="" style="group" parent="1" vertex="1" connectable="0">
          <mxGeometry x="-110" y="2545" width="70" height="70" as="geometry" />
        </mxCell>
        <mxCell id="QcRG3hkF8uIsMVMEag6c-109" value="" style="group" parent="QcRG3hkF8uIsMVMEag6c-106" vertex="1" connectable="0">
          <mxGeometry width="70" height="70" as="geometry" />
        </mxCell>
        <mxCell id="QcRG3hkF8uIsMVMEag6c-107" value="" style="ellipse;whiteSpace=wrap;html=1;aspect=fixed;" parent="QcRG3hkF8uIsMVMEag6c-109" vertex="1">
          <mxGeometry width="70" height="70" as="geometry" />
        </mxCell>
        <mxCell id="QcRG3hkF8uIsMVMEag6c-108" value="" style="ellipse;whiteSpace=wrap;html=1;aspect=fixed;fillColor=#000000;" parent="QcRG3hkF8uIsMVMEag6c-109" vertex="1">
          <mxGeometry x="20" y="20" width="30" height="30" as="geometry" />
        </mxCell>
        <mxCell id="FDG3Zp8AexVw8VzXRtXA-1" value="venv" style="rounded=1;whiteSpace=wrap;html=1;fillColor=#f8cecc;strokeColor=#b85450;" parent="1" vertex="1">
          <mxGeometry x="300" y="10" width="120" height="60" as="geometry" />
        </mxCell>
        <mxCell id="FDG3Zp8AexVw8VzXRtXA-5" value="Python Virtual Environement&lt;br&gt;for geonature&amp;nbsp;" style="text;html=1;align=center;verticalAlign=middle;resizable=0;points=[];autosize=1;strokeColor=none;fillColor=none;" parent="1" vertex="1">
          <mxGeometry x="430" y="20" width="180" height="40" as="geometry" />
        </mxCell>
        <mxCell id="FDG3Zp8AexVw8VzXRtXA-7" style="edgeStyle=orthogonalEdgeStyle;rounded=0;orthogonalLoop=1;jettySize=auto;html=1;exitX=1;exitY=0.5;exitDx=0;exitDy=0;entryX=0;entryY=0.5;entryDx=0;entryDy=0;dashed=1;" parent="1" source="TnviqMpvmVHk2fBYYg7t-2" target="FDG3Zp8AexVw8VzXRtXA-1" edge="1">
          <mxGeometry relative="1" as="geometry" />
        </mxCell>
        <mxCell id="FDG3Zp8AexVw8VzXRtXA-8" value="utilise" style="edgeLabel;html=1;align=center;verticalAlign=middle;resizable=0;points=[];" parent="FDG3Zp8AexVw8VzXRtXA-7" vertex="1" connectable="0">
          <mxGeometry x="0.1392" y="4" relative="1" as="geometry">
            <mxPoint x="-8" y="4" as="offset" />
          </mxGeometry>
        </mxCell>
        <mxCell id="Twp6O3qJGX9q38dmFSj4-1" value="Revision" style="text;html=1;align=center;verticalAlign=middle;resizable=0;points=[];autosize=1;strokeColor=none;fillColor=none;" vertex="1" parent="1">
          <mxGeometry x="565" y="1388" width="70" height="30" as="geometry" />
        </mxCell>
      </root>
    </mxGraphModel>
  </diagram>
  <diagram id="Lrz7Q8dF94mUkthKv4H6" name="FrontEnd Organisation">
    <mxGraphModel dx="4522" dy="1816" grid="1" gridSize="10" guides="1" tooltips="1" connect="1" arrows="1" fold="1" page="1" pageScale="1" pageWidth="827" pageHeight="1169" math="0" shadow="0">
      <root>
        <mxCell id="0" />
        <mxCell id="1" parent="0" />
        <mxCell id="6K0Z6zfGGAepkqC1vvz3-4" style="edgeStyle=orthogonalEdgeStyle;rounded=0;orthogonalLoop=1;jettySize=auto;html=1;exitX=0.5;exitY=1;exitDx=0;exitDy=0;entryX=0;entryY=0.5;entryDx=0;entryDy=0;" parent="1" source="6_dlyyQDuvYtmijd6w2u-1" target="6K0Z6zfGGAepkqC1vvz3-2" edge="1">
          <mxGeometry relative="1" as="geometry" />
        </mxCell>
        <mxCell id="6K0Z6zfGGAepkqC1vvz3-7" style="edgeStyle=orthogonalEdgeStyle;rounded=0;orthogonalLoop=1;jettySize=auto;html=1;exitX=0.5;exitY=1;exitDx=0;exitDy=0;entryX=0;entryY=0.5;entryDx=0;entryDy=0;" parent="1" source="6_dlyyQDuvYtmijd6w2u-1" target="6K0Z6zfGGAepkqC1vvz3-6" edge="1">
          <mxGeometry relative="1" as="geometry" />
        </mxCell>
        <mxCell id="6_dlyyQDuvYtmijd6w2u-1" value="frontend" style="rounded=1;whiteSpace=wrap;html=1;fillColor=#f5f5f5;fontColor=#333333;strokeColor=#666666;" parent="1" vertex="1">
          <mxGeometry x="-180" y="40" width="120" height="60" as="geometry" />
        </mxCell>
        <mxCell id="6K0Z6zfGGAepkqC1vvz3-2" value="external_modules" style="rounded=1;whiteSpace=wrap;html=1;fillColor=#dae8fc;strokeColor=#6c8ebf;" parent="1" vertex="1">
          <mxGeometry x="-100" y="140" width="120" height="60" as="geometry" />
        </mxCell>
        <mxCell id="6K0Z6zfGGAepkqC1vvz3-3" value="Symbolic links to frontend directories of&lt;br&gt;installed external modules&amp;nbsp;" style="text;html=1;align=center;verticalAlign=middle;resizable=0;points=[];autosize=1;strokeColor=none;fillColor=none;" parent="1" vertex="1">
          <mxGeometry x="65" y="150" width="230" height="40" as="geometry" />
        </mxCell>
        <mxCell id="6K0Z6zfGGAepkqC1vvz3-10" style="edgeStyle=orthogonalEdgeStyle;rounded=0;orthogonalLoop=1;jettySize=auto;html=1;exitX=0.5;exitY=1;exitDx=0;exitDy=0;entryX=0;entryY=0.5;entryDx=0;entryDy=0;" parent="1" source="6K0Z6zfGGAepkqC1vvz3-6" target="6K0Z6zfGGAepkqC1vvz3-9" edge="1">
          <mxGeometry relative="1" as="geometry" />
        </mxCell>
        <mxCell id="6K0Z6zfGGAepkqC1vvz3-13" style="edgeStyle=orthogonalEdgeStyle;rounded=0;orthogonalLoop=1;jettySize=auto;html=1;exitX=0.5;exitY=1;exitDx=0;exitDy=0;entryX=0;entryY=0.5;entryDx=0;entryDy=0;" parent="1" source="6K0Z6zfGGAepkqC1vvz3-6" target="6K0Z6zfGGAepkqC1vvz3-11" edge="1">
          <mxGeometry relative="1" as="geometry" />
        </mxCell>
        <mxCell id="6K0Z6zfGGAepkqC1vvz3-6" value="src" style="rounded=1;whiteSpace=wrap;html=1;fillColor=#dae8fc;strokeColor=#6c8ebf;" parent="1" vertex="1">
          <mxGeometry x="-100" y="230" width="120" height="60" as="geometry" />
        </mxCell>
        <mxCell id="6K0Z6zfGGAepkqC1vvz3-24" style="edgeStyle=orthogonalEdgeStyle;rounded=0;orthogonalLoop=1;jettySize=auto;html=1;exitX=0.5;exitY=1;exitDx=0;exitDy=0;entryX=0;entryY=0.5;entryDx=0;entryDy=0;" parent="1" source="6K0Z6zfGGAepkqC1vvz3-9" target="6K0Z6zfGGAepkqC1vvz3-23" edge="1">
          <mxGeometry relative="1" as="geometry" />
        </mxCell>
        <mxCell id="6K0Z6zfGGAepkqC1vvz3-27" style="edgeStyle=orthogonalEdgeStyle;rounded=0;orthogonalLoop=1;jettySize=auto;html=1;exitX=0.5;exitY=1;exitDx=0;exitDy=0;entryX=0;entryY=0.5;entryDx=0;entryDy=0;" parent="1" source="6K0Z6zfGGAepkqC1vvz3-9" target="6K0Z6zfGGAepkqC1vvz3-26" edge="1">
          <mxGeometry relative="1" as="geometry" />
        </mxCell>
        <mxCell id="RYvdms0KDKCRZyWD9pGr-25" style="edgeStyle=orthogonalEdgeStyle;rounded=0;orthogonalLoop=1;jettySize=auto;html=1;exitX=0.5;exitY=1;exitDx=0;exitDy=0;entryX=0;entryY=0.5;entryDx=0;entryDy=0;" parent="1" source="6K0Z6zfGGAepkqC1vvz3-9" target="RYvdms0KDKCRZyWD9pGr-24" edge="1">
          <mxGeometry relative="1" as="geometry">
            <Array as="points">
              <mxPoint x="60" y="1270" />
            </Array>
          </mxGeometry>
        </mxCell>
        <mxCell id="RYvdms0KDKCRZyWD9pGr-168" style="edgeStyle=orthogonalEdgeStyle;rounded=0;orthogonalLoop=1;jettySize=auto;html=1;exitX=0.5;exitY=1;exitDx=0;exitDy=0;entryX=1;entryY=0.5;entryDx=0;entryDy=0;" parent="1" source="6K0Z6zfGGAepkqC1vvz3-9" target="RYvdms0KDKCRZyWD9pGr-155" edge="1">
          <mxGeometry relative="1" as="geometry">
            <Array as="points">
              <mxPoint x="20" y="780" />
              <mxPoint x="20" y="1030" />
            </Array>
          </mxGeometry>
        </mxCell>
        <mxCell id="RYvdms0KDKCRZyWD9pGr-183" style="edgeStyle=orthogonalEdgeStyle;rounded=0;orthogonalLoop=1;jettySize=auto;html=1;exitX=0.5;exitY=1;exitDx=0;exitDy=0;entryX=1;entryY=0.5;entryDx=0;entryDy=0;" parent="1" source="6K0Z6zfGGAepkqC1vvz3-9" target="RYvdms0KDKCRZyWD9pGr-160" edge="1">
          <mxGeometry relative="1" as="geometry">
            <Array as="points">
              <mxPoint x="20" y="780" />
              <mxPoint x="20" y="1470" />
            </Array>
          </mxGeometry>
        </mxCell>
        <mxCell id="RYvdms0KDKCRZyWD9pGr-184" style="edgeStyle=orthogonalEdgeStyle;rounded=0;orthogonalLoop=1;jettySize=auto;html=1;exitX=0.5;exitY=1;exitDx=0;exitDy=0;entryX=1;entryY=0.5;entryDx=0;entryDy=0;" parent="1" source="6K0Z6zfGGAepkqC1vvz3-9" target="RYvdms0KDKCRZyWD9pGr-161" edge="1">
          <mxGeometry relative="1" as="geometry">
            <Array as="points">
              <mxPoint x="20" y="780" />
              <mxPoint x="20" y="1571" />
            </Array>
          </mxGeometry>
        </mxCell>
        <mxCell id="RYvdms0KDKCRZyWD9pGr-189" style="edgeStyle=orthogonalEdgeStyle;rounded=0;orthogonalLoop=1;jettySize=auto;html=1;exitX=0.5;exitY=1;exitDx=0;exitDy=0;entryX=1;entryY=0.5;entryDx=0;entryDy=0;" parent="1" source="6K0Z6zfGGAepkqC1vvz3-9" target="RYvdms0KDKCRZyWD9pGr-152" edge="1">
          <mxGeometry relative="1" as="geometry">
            <Array as="points">
              <mxPoint x="60" y="850" />
              <mxPoint x="-105" y="850" />
              <mxPoint x="-105" y="720" />
            </Array>
          </mxGeometry>
        </mxCell>
        <mxCell id="RYvdms0KDKCRZyWD9pGr-211" style="edgeStyle=orthogonalEdgeStyle;rounded=0;orthogonalLoop=1;jettySize=auto;html=1;exitX=0.5;exitY=1;exitDx=0;exitDy=0;entryX=1;entryY=0.5;entryDx=0;entryDy=0;" parent="1" source="6K0Z6zfGGAepkqC1vvz3-9" target="RYvdms0KDKCRZyWD9pGr-154" edge="1">
          <mxGeometry relative="1" as="geometry" />
        </mxCell>
        <mxCell id="RYvdms0KDKCRZyWD9pGr-225" style="edgeStyle=orthogonalEdgeStyle;rounded=0;orthogonalLoop=1;jettySize=auto;html=1;exitX=0.5;exitY=1;exitDx=0;exitDy=0;entryX=1;entryY=0.5;entryDx=0;entryDy=0;" parent="1" source="6K0Z6zfGGAepkqC1vvz3-9" target="RYvdms0KDKCRZyWD9pGr-157" edge="1">
          <mxGeometry relative="1" as="geometry">
            <Array as="points">
              <mxPoint x="60" y="850" />
              <mxPoint x="-530" y="850" />
              <mxPoint x="-530" y="1310" />
            </Array>
          </mxGeometry>
        </mxCell>
        <mxCell id="RYvdms0KDKCRZyWD9pGr-235" style="edgeStyle=orthogonalEdgeStyle;rounded=0;orthogonalLoop=1;jettySize=auto;html=1;exitX=0.5;exitY=1;exitDx=0;exitDy=0;entryX=1;entryY=0.5;entryDx=0;entryDy=0;" parent="1" source="6K0Z6zfGGAepkqC1vvz3-9" target="RYvdms0KDKCRZyWD9pGr-162" edge="1">
          <mxGeometry relative="1" as="geometry">
            <Array as="points">
              <mxPoint x="60" y="850" />
              <mxPoint x="-530" y="850" />
              <mxPoint x="-530" y="1811" />
            </Array>
          </mxGeometry>
        </mxCell>
        <mxCell id="RYvdms0KDKCRZyWD9pGr-236" style="edgeStyle=orthogonalEdgeStyle;rounded=0;orthogonalLoop=1;jettySize=auto;html=1;exitX=0.5;exitY=1;exitDx=0;exitDy=0;entryX=1;entryY=0.5;entryDx=0;entryDy=0;" parent="1" source="6K0Z6zfGGAepkqC1vvz3-9" target="RYvdms0KDKCRZyWD9pGr-158" edge="1">
          <mxGeometry relative="1" as="geometry">
            <Array as="points">
              <mxPoint x="60" y="850" />
              <mxPoint x="-530" y="850" />
              <mxPoint x="-530" y="2147" />
            </Array>
          </mxGeometry>
        </mxCell>
        <mxCell id="RYvdms0KDKCRZyWD9pGr-237" style="edgeStyle=orthogonalEdgeStyle;rounded=0;orthogonalLoop=1;jettySize=auto;html=1;exitX=0.5;exitY=1;exitDx=0;exitDy=0;entryX=1;entryY=0.5;entryDx=0;entryDy=0;" parent="1" source="6K0Z6zfGGAepkqC1vvz3-9" target="RYvdms0KDKCRZyWD9pGr-159" edge="1">
          <mxGeometry relative="1" as="geometry">
            <Array as="points">
              <mxPoint x="60" y="850" />
              <mxPoint x="-530" y="850" />
              <mxPoint x="-530" y="2492" />
            </Array>
          </mxGeometry>
        </mxCell>
        <mxCell id="6K0Z6zfGGAepkqC1vvz3-9" value="app" style="rounded=1;whiteSpace=wrap;html=1;fillColor=#e1d5e7;strokeColor=#9673a6;" parent="1" vertex="1">
          <mxGeometry y="720" width="120" height="60" as="geometry" />
        </mxCell>
        <mxCell id="6K0Z6zfGGAepkqC1vvz3-17" style="edgeStyle=orthogonalEdgeStyle;rounded=0;orthogonalLoop=1;jettySize=auto;html=1;exitX=0.5;exitY=1;exitDx=0;exitDy=0;entryX=0;entryY=0.5;entryDx=0;entryDy=0;" parent="1" source="6K0Z6zfGGAepkqC1vvz3-11" target="6K0Z6zfGGAepkqC1vvz3-16" edge="1">
          <mxGeometry relative="1" as="geometry" />
        </mxCell>
        <mxCell id="6K0Z6zfGGAepkqC1vvz3-20" style="edgeStyle=orthogonalEdgeStyle;rounded=0;orthogonalLoop=1;jettySize=auto;html=1;exitX=0.5;exitY=1;exitDx=0;exitDy=0;entryX=0;entryY=0.5;entryDx=0;entryDy=0;" parent="1" source="6K0Z6zfGGAepkqC1vvz3-11" target="6K0Z6zfGGAepkqC1vvz3-18" edge="1">
          <mxGeometry relative="1" as="geometry" />
        </mxCell>
        <mxCell id="6K0Z6zfGGAepkqC1vvz3-11" value="assets" style="rounded=1;whiteSpace=wrap;html=1;fillColor=#e1d5e7;strokeColor=#9673a6;" parent="1" vertex="1">
          <mxGeometry y="320" width="120" height="60" as="geometry" />
        </mxCell>
        <mxCell id="6K0Z6zfGGAepkqC1vvz3-16" value="images" style="rounded=1;whiteSpace=wrap;html=1;fillColor=#f8cecc;strokeColor=#b85450;" parent="1" vertex="1">
          <mxGeometry x="90" y="410" width="120" height="60" as="geometry" />
        </mxCell>
        <mxCell id="6K0Z6zfGGAepkqC1vvz3-18" value="config.json" style="rounded=1;whiteSpace=wrap;html=1;fillColor=#f8cecc;strokeColor=#b85450;" parent="1" vertex="1">
          <mxGeometry x="90" y="500" width="120" height="60" as="geometry" />
        </mxCell>
        <mxCell id="6K0Z6zfGGAepkqC1vvz3-19" value="Geonature API endpoint" style="text;html=1;align=center;verticalAlign=middle;resizable=0;points=[];autosize=1;strokeColor=none;fillColor=none;" parent="1" vertex="1">
          <mxGeometry x="270" y="515" width="150" height="30" as="geometry" />
        </mxCell>
        <mxCell id="6K0Z6zfGGAepkqC1vvz3-21" value="Directory that contains assets like images&lt;br&gt;used in Geonature frontend" style="text;html=1;align=center;verticalAlign=middle;resizable=0;points=[];autosize=1;strokeColor=none;fillColor=none;" parent="1" vertex="1">
          <mxGeometry x="235" y="420" width="240" height="40" as="geometry" />
        </mxCell>
        <mxCell id="6K0Z6zfGGAepkqC1vvz3-23" value="adminModule" style="rounded=1;whiteSpace=wrap;html=1;fillColor=#f8cecc;strokeColor=#b85450;" parent="1" vertex="1">
          <mxGeometry x="90" y="820" width="120" height="60" as="geometry" />
        </mxCell>
        <mxCell id="6K0Z6zfGGAepkqC1vvz3-25" value="Component de la page de redirection vers&lt;br&gt;le backoffice de l&#39;admin" style="text;html=1;align=center;verticalAlign=middle;resizable=0;points=[];autosize=1;strokeColor=none;fillColor=none;" parent="1" vertex="1">
          <mxGeometry x="210" y="820" width="250" height="40" as="geometry" />
        </mxCell>
        <mxCell id="RYvdms0KDKCRZyWD9pGr-6" style="edgeStyle=orthogonalEdgeStyle;rounded=0;orthogonalLoop=1;jettySize=auto;html=1;exitX=0.5;exitY=1;exitDx=0;exitDy=0;entryX=0;entryY=0.5;entryDx=0;entryDy=0;" parent="1" source="6K0Z6zfGGAepkqC1vvz3-26" target="RYvdms0KDKCRZyWD9pGr-3" edge="1">
          <mxGeometry relative="1" as="geometry" />
        </mxCell>
        <mxCell id="RYvdms0KDKCRZyWD9pGr-7" style="edgeStyle=orthogonalEdgeStyle;rounded=0;orthogonalLoop=1;jettySize=auto;html=1;exitX=1;exitY=0.5;exitDx=0;exitDy=0;entryX=0;entryY=0.5;entryDx=0;entryDy=0;" parent="1" source="6K0Z6zfGGAepkqC1vvz3-26" target="RYvdms0KDKCRZyWD9pGr-1" edge="1">
          <mxGeometry relative="1" as="geometry" />
        </mxCell>
        <mxCell id="RYvdms0KDKCRZyWD9pGr-19" style="edgeStyle=orthogonalEdgeStyle;rounded=0;orthogonalLoop=1;jettySize=auto;html=1;exitX=0.5;exitY=1;exitDx=0;exitDy=0;entryX=0;entryY=0.5;entryDx=0;entryDy=0;" parent="1" source="6K0Z6zfGGAepkqC1vvz3-26" target="RYvdms0KDKCRZyWD9pGr-8" edge="1">
          <mxGeometry relative="1" as="geometry" />
        </mxCell>
        <mxCell id="RYvdms0KDKCRZyWD9pGr-20" style="edgeStyle=orthogonalEdgeStyle;rounded=0;orthogonalLoop=1;jettySize=auto;html=1;exitX=0.5;exitY=1;exitDx=0;exitDy=0;entryX=0;entryY=0.5;entryDx=0;entryDy=0;" parent="1" source="6K0Z6zfGGAepkqC1vvz3-26" target="RYvdms0KDKCRZyWD9pGr-10" edge="1">
          <mxGeometry relative="1" as="geometry" />
        </mxCell>
        <mxCell id="RYvdms0KDKCRZyWD9pGr-21" style="edgeStyle=orthogonalEdgeStyle;rounded=0;orthogonalLoop=1;jettySize=auto;html=1;exitX=1;exitY=0.5;exitDx=0;exitDy=0;entryX=0;entryY=0.5;entryDx=0;entryDy=0;" parent="1" source="6K0Z6zfGGAepkqC1vvz3-26" target="RYvdms0KDKCRZyWD9pGr-12" edge="1">
          <mxGeometry relative="1" as="geometry">
            <Array as="points">
              <mxPoint x="230" y="920" />
              <mxPoint x="230" y="970" />
              <mxPoint x="660" y="970" />
              <mxPoint x="660" y="920" />
            </Array>
          </mxGeometry>
        </mxCell>
        <mxCell id="RYvdms0KDKCRZyWD9pGr-22" style="edgeStyle=orthogonalEdgeStyle;rounded=0;orthogonalLoop=1;jettySize=auto;html=1;exitX=1;exitY=0.5;exitDx=0;exitDy=0;entryX=0;entryY=0.5;entryDx=0;entryDy=0;" parent="1" source="6K0Z6zfGGAepkqC1vvz3-26" target="RYvdms0KDKCRZyWD9pGr-14" edge="1">
          <mxGeometry relative="1" as="geometry">
            <Array as="points">
              <mxPoint x="230" y="920" />
              <mxPoint x="230" y="970" />
              <mxPoint x="660" y="970" />
              <mxPoint x="660" y="1010" />
            </Array>
          </mxGeometry>
        </mxCell>
        <mxCell id="RYvdms0KDKCRZyWD9pGr-23" style="edgeStyle=orthogonalEdgeStyle;rounded=0;orthogonalLoop=1;jettySize=auto;html=1;exitX=1;exitY=0.5;exitDx=0;exitDy=0;entryX=0;entryY=0.5;entryDx=0;entryDy=0;" parent="1" source="6K0Z6zfGGAepkqC1vvz3-26" target="RYvdms0KDKCRZyWD9pGr-16" edge="1">
          <mxGeometry relative="1" as="geometry">
            <Array as="points">
              <mxPoint x="230" y="920" />
              <mxPoint x="230" y="970" />
              <mxPoint x="660" y="970" />
              <mxPoint x="660" y="1110" />
            </Array>
          </mxGeometry>
        </mxCell>
        <mxCell id="6K0Z6zfGGAepkqC1vvz3-26" value="components" style="rounded=1;whiteSpace=wrap;html=1;fillColor=#f8cecc;strokeColor=#b85450;" parent="1" vertex="1">
          <mxGeometry x="90" y="890" width="120" height="60" as="geometry" />
        </mxCell>
        <mxCell id="RYvdms0KDKCRZyWD9pGr-1" value="auth&amp;nbsp;" style="rounded=1;whiteSpace=wrap;html=1;fillColor=#ffe6cc;strokeColor=#d79b00;" parent="1" vertex="1">
          <mxGeometry x="270" y="890" width="120" height="60" as="geometry" />
        </mxCell>
        <mxCell id="RYvdms0KDKCRZyWD9pGr-2" value="Authentification management&lt;br&gt;for frontend" style="text;html=1;align=center;verticalAlign=middle;resizable=0;points=[];autosize=1;strokeColor=none;fillColor=none;" parent="1" vertex="1">
          <mxGeometry x="414" y="900" width="180" height="40" as="geometry" />
        </mxCell>
        <mxCell id="RYvdms0KDKCRZyWD9pGr-3" value="footer" style="rounded=1;whiteSpace=wrap;html=1;fillColor=#ffe6cc;strokeColor=#d79b00;" parent="1" vertex="1">
          <mxGeometry x="270" y="990" width="120" height="60" as="geometry" />
        </mxCell>
        <mxCell id="RYvdms0KDKCRZyWD9pGr-5" value="Footer component" style="text;html=1;align=center;verticalAlign=middle;resizable=0;points=[];autosize=1;strokeColor=none;fillColor=none;" parent="1" vertex="1">
          <mxGeometry x="460" y="1005" width="120" height="30" as="geometry" />
        </mxCell>
        <mxCell id="RYvdms0KDKCRZyWD9pGr-8" value="home-content" style="rounded=1;whiteSpace=wrap;html=1;fillColor=#ffe6cc;strokeColor=#d79b00;" parent="1" vertex="1">
          <mxGeometry x="270" y="1080" width="120" height="60" as="geometry" />
        </mxCell>
        <mxCell id="RYvdms0KDKCRZyWD9pGr-9" value="Home page component&amp;nbsp;&amp;nbsp;" style="text;html=1;align=center;verticalAlign=middle;resizable=0;points=[];autosize=1;strokeColor=none;fillColor=none;" parent="1" vertex="1">
          <mxGeometry x="449" y="1095" width="150" height="30" as="geometry" />
        </mxCell>
        <mxCell id="RYvdms0KDKCRZyWD9pGr-10" value="introduction" style="rounded=1;whiteSpace=wrap;html=1;fillColor=#ffe6cc;strokeColor=#d79b00;" parent="1" vertex="1">
          <mxGeometry x="270" y="1160" width="120" height="60" as="geometry" />
        </mxCell>
        <mxCell id="RYvdms0KDKCRZyWD9pGr-11" value="Introduction message component&lt;br&gt;(contained in home-content)" style="text;html=1;align=center;verticalAlign=middle;resizable=0;points=[];autosize=1;strokeColor=none;fillColor=none;" parent="1" vertex="1">
          <mxGeometry x="420" y="1173" width="200" height="40" as="geometry" />
        </mxCell>
        <mxCell id="RYvdms0KDKCRZyWD9pGr-12" value="nav-home" style="rounded=1;whiteSpace=wrap;html=1;fillColor=#ffe6cc;strokeColor=#d79b00;" parent="1" vertex="1">
          <mxGeometry x="700" y="890" width="120" height="60" as="geometry" />
        </mxCell>
        <mxCell id="RYvdms0KDKCRZyWD9pGr-13" value="Geonature top navigation bar&amp;nbsp;" style="text;html=1;align=center;verticalAlign=middle;resizable=0;points=[];autosize=1;strokeColor=none;fillColor=none;" parent="1" vertex="1">
          <mxGeometry x="848" y="905" width="180" height="30" as="geometry" />
        </mxCell>
        <mxCell id="RYvdms0KDKCRZyWD9pGr-14" value="page-not-found" style="rounded=1;whiteSpace=wrap;html=1;fillColor=#ffe6cc;strokeColor=#d79b00;" parent="1" vertex="1">
          <mxGeometry x="700" y="980" width="120" height="60" as="geometry" />
        </mxCell>
        <mxCell id="RYvdms0KDKCRZyWD9pGr-15" value="Error 404 component" style="text;html=1;align=center;verticalAlign=middle;resizable=0;points=[];autosize=1;strokeColor=none;fillColor=none;" parent="1" vertex="1">
          <mxGeometry x="865" y="1000" width="140" height="30" as="geometry" />
        </mxCell>
        <mxCell id="RYvdms0KDKCRZyWD9pGr-16" value="sidenav-items" style="rounded=1;whiteSpace=wrap;html=1;fillColor=#ffe6cc;strokeColor=#d79b00;" parent="1" vertex="1">
          <mxGeometry x="700" y="1080" width="120" height="60" as="geometry" />
        </mxCell>
        <mxCell id="RYvdms0KDKCRZyWD9pGr-18" value="left navigation bar&lt;br&gt;(contains links towards module)" style="text;html=1;align=center;verticalAlign=middle;resizable=0;points=[];autosize=1;strokeColor=none;fillColor=none;" parent="1" vertex="1">
          <mxGeometry x="840" y="1090" width="190" height="40" as="geometry" />
        </mxCell>
        <mxCell id="RYvdms0KDKCRZyWD9pGr-27" style="edgeStyle=orthogonalEdgeStyle;rounded=0;orthogonalLoop=1;jettySize=auto;html=1;exitX=0.5;exitY=1;exitDx=0;exitDy=0;entryX=0;entryY=0.5;entryDx=0;entryDy=0;" parent="1" source="RYvdms0KDKCRZyWD9pGr-24" target="RYvdms0KDKCRZyWD9pGr-26" edge="1">
          <mxGeometry relative="1" as="geometry" />
        </mxCell>
        <mxCell id="RYvdms0KDKCRZyWD9pGr-84" style="edgeStyle=orthogonalEdgeStyle;rounded=0;orthogonalLoop=1;jettySize=auto;html=1;exitX=1;exitY=0.5;exitDx=0;exitDy=0;entryX=0.5;entryY=0;entryDx=0;entryDy=0;" parent="1" source="RYvdms0KDKCRZyWD9pGr-24" target="RYvdms0KDKCRZyWD9pGr-29" edge="1">
          <mxGeometry relative="1" as="geometry" />
        </mxCell>
        <mxCell id="RYvdms0KDKCRZyWD9pGr-116" style="edgeStyle=orthogonalEdgeStyle;rounded=0;orthogonalLoop=1;jettySize=auto;html=1;exitX=0.5;exitY=1;exitDx=0;exitDy=0;entryX=0;entryY=0.5;entryDx=0;entryDy=0;" parent="1" source="RYvdms0KDKCRZyWD9pGr-24" target="RYvdms0KDKCRZyWD9pGr-99" edge="1">
          <mxGeometry relative="1" as="geometry" />
        </mxCell>
        <mxCell id="RYvdms0KDKCRZyWD9pGr-132" style="edgeStyle=orthogonalEdgeStyle;rounded=0;orthogonalLoop=1;jettySize=auto;html=1;exitX=0.5;exitY=1;exitDx=0;exitDy=0;entryX=0;entryY=0.5;entryDx=0;entryDy=0;" parent="1" source="RYvdms0KDKCRZyWD9pGr-24" target="RYvdms0KDKCRZyWD9pGr-100" edge="1">
          <mxGeometry relative="1" as="geometry" />
        </mxCell>
        <mxCell id="RYvdms0KDKCRZyWD9pGr-133" style="edgeStyle=orthogonalEdgeStyle;rounded=0;orthogonalLoop=1;jettySize=auto;html=1;exitX=0.5;exitY=1;exitDx=0;exitDy=0;entryX=0;entryY=0.5;entryDx=0;entryDy=0;" parent="1" source="RYvdms0KDKCRZyWD9pGr-24" target="RYvdms0KDKCRZyWD9pGr-101" edge="1">
          <mxGeometry relative="1" as="geometry" />
        </mxCell>
        <mxCell id="RYvdms0KDKCRZyWD9pGr-134" style="edgeStyle=orthogonalEdgeStyle;rounded=0;orthogonalLoop=1;jettySize=auto;html=1;exitX=0.5;exitY=1;exitDx=0;exitDy=0;entryX=0;entryY=0.5;entryDx=0;entryDy=0;" parent="1" source="RYvdms0KDKCRZyWD9pGr-24" target="RYvdms0KDKCRZyWD9pGr-102" edge="1">
          <mxGeometry relative="1" as="geometry" />
        </mxCell>
        <mxCell id="RYvdms0KDKCRZyWD9pGr-135" style="edgeStyle=orthogonalEdgeStyle;rounded=0;orthogonalLoop=1;jettySize=auto;html=1;exitX=0.5;exitY=1;exitDx=0;exitDy=0;entryX=0;entryY=0.5;entryDx=0;entryDy=0;" parent="1" source="RYvdms0KDKCRZyWD9pGr-24" target="RYvdms0KDKCRZyWD9pGr-103" edge="1">
          <mxGeometry relative="1" as="geometry" />
        </mxCell>
        <mxCell id="RYvdms0KDKCRZyWD9pGr-137" style="edgeStyle=orthogonalEdgeStyle;rounded=0;orthogonalLoop=1;jettySize=auto;html=1;exitX=0.5;exitY=1;exitDx=0;exitDy=0;entryX=0;entryY=0.5;entryDx=0;entryDy=0;" parent="1" source="RYvdms0KDKCRZyWD9pGr-24" target="RYvdms0KDKCRZyWD9pGr-136" edge="1">
          <mxGeometry relative="1" as="geometry" />
        </mxCell>
        <mxCell id="RYvdms0KDKCRZyWD9pGr-151" style="edgeStyle=orthogonalEdgeStyle;rounded=0;orthogonalLoop=1;jettySize=auto;html=1;exitX=0.5;exitY=1;exitDx=0;exitDy=0;entryX=0;entryY=0.5;entryDx=0;entryDy=0;" parent="1" source="RYvdms0KDKCRZyWD9pGr-24" target="RYvdms0KDKCRZyWD9pGr-149" edge="1">
          <mxGeometry relative="1" as="geometry" />
        </mxCell>
        <mxCell id="RYvdms0KDKCRZyWD9pGr-24" value="GN2CommonModule" style="rounded=1;whiteSpace=wrap;html=1;fillColor=#f8cecc;strokeColor=#b85450;" parent="1" vertex="1">
          <mxGeometry x="90" y="1240" width="120" height="60" as="geometry" />
        </mxCell>
        <mxCell id="RYvdms0KDKCRZyWD9pGr-26" value="directive" style="rounded=1;whiteSpace=wrap;html=1;fillColor=#ffe6cc;strokeColor=#d79b00;" parent="1" vertex="1">
          <mxGeometry x="220" y="1330" width="120" height="60" as="geometry" />
        </mxCell>
        <mxCell id="RYvdms0KDKCRZyWD9pGr-28" value="Add new behavior &lt;br&gt;to the DOM elements &lt;br&gt;(mouseEnter,mouseLeave)" style="text;html=1;align=center;verticalAlign=middle;resizable=0;points=[];autosize=1;strokeColor=none;fillColor=none;" parent="1" vertex="1">
          <mxGeometry x="355" y="1333" width="170" height="60" as="geometry" />
        </mxCell>
        <mxCell id="RYvdms0KDKCRZyWD9pGr-35" style="edgeStyle=orthogonalEdgeStyle;rounded=0;orthogonalLoop=1;jettySize=auto;html=1;exitX=0.25;exitY=1;exitDx=0;exitDy=0;entryX=0;entryY=0.5;entryDx=0;entryDy=0;" parent="1" source="RYvdms0KDKCRZyWD9pGr-29" target="RYvdms0KDKCRZyWD9pGr-31" edge="1">
          <mxGeometry relative="1" as="geometry" />
        </mxCell>
        <mxCell id="RYvdms0KDKCRZyWD9pGr-37" style="edgeStyle=orthogonalEdgeStyle;rounded=0;orthogonalLoop=1;jettySize=auto;html=1;exitX=0.25;exitY=1;exitDx=0;exitDy=0;entryX=0;entryY=0.5;entryDx=0;entryDy=0;" parent="1" source="RYvdms0KDKCRZyWD9pGr-29" target="RYvdms0KDKCRZyWD9pGr-36" edge="1">
          <mxGeometry relative="1" as="geometry" />
        </mxCell>
        <mxCell id="RYvdms0KDKCRZyWD9pGr-50" style="edgeStyle=orthogonalEdgeStyle;rounded=0;orthogonalLoop=1;jettySize=auto;html=1;exitX=0.25;exitY=1;exitDx=0;exitDy=0;entryX=0;entryY=0.5;entryDx=0;entryDy=0;" parent="1" source="RYvdms0KDKCRZyWD9pGr-29" target="RYvdms0KDKCRZyWD9pGr-44" edge="1">
          <mxGeometry relative="1" as="geometry" />
        </mxCell>
        <mxCell id="RYvdms0KDKCRZyWD9pGr-51" style="edgeStyle=orthogonalEdgeStyle;rounded=0;orthogonalLoop=1;jettySize=auto;html=1;exitX=0.25;exitY=1;exitDx=0;exitDy=0;entryX=0;entryY=0.5;entryDx=0;entryDy=0;" parent="1" source="RYvdms0KDKCRZyWD9pGr-29" target="RYvdms0KDKCRZyWD9pGr-46" edge="1">
          <mxGeometry relative="1" as="geometry" />
        </mxCell>
        <mxCell id="RYvdms0KDKCRZyWD9pGr-52" style="edgeStyle=orthogonalEdgeStyle;rounded=0;orthogonalLoop=1;jettySize=auto;html=1;exitX=0.25;exitY=1;exitDx=0;exitDy=0;entryX=0;entryY=0.5;entryDx=0;entryDy=0;" parent="1" source="RYvdms0KDKCRZyWD9pGr-29" target="RYvdms0KDKCRZyWD9pGr-48" edge="1">
          <mxGeometry relative="1" as="geometry" />
        </mxCell>
        <mxCell id="RYvdms0KDKCRZyWD9pGr-81" style="edgeStyle=orthogonalEdgeStyle;rounded=0;orthogonalLoop=1;jettySize=auto;html=1;exitX=0.25;exitY=1;exitDx=0;exitDy=0;entryX=0;entryY=0.5;entryDx=0;entryDy=0;" parent="1" source="RYvdms0KDKCRZyWD9pGr-29" target="RYvdms0KDKCRZyWD9pGr-53" edge="1">
          <mxGeometry relative="1" as="geometry" />
        </mxCell>
        <mxCell id="RYvdms0KDKCRZyWD9pGr-82" style="edgeStyle=orthogonalEdgeStyle;rounded=0;orthogonalLoop=1;jettySize=auto;html=1;exitX=0.25;exitY=1;exitDx=0;exitDy=0;entryX=0;entryY=0.5;entryDx=0;entryDy=0;" parent="1" source="RYvdms0KDKCRZyWD9pGr-29" target="RYvdms0KDKCRZyWD9pGr-55" edge="1">
          <mxGeometry relative="1" as="geometry" />
        </mxCell>
        <mxCell id="RYvdms0KDKCRZyWD9pGr-83" style="edgeStyle=orthogonalEdgeStyle;rounded=0;orthogonalLoop=1;jettySize=auto;html=1;exitX=0.25;exitY=1;exitDx=0;exitDy=0;entryX=0;entryY=0.5;entryDx=0;entryDy=0;" parent="1" source="RYvdms0KDKCRZyWD9pGr-29" target="RYvdms0KDKCRZyWD9pGr-56" edge="1">
          <mxGeometry relative="1" as="geometry" />
        </mxCell>
        <mxCell id="RYvdms0KDKCRZyWD9pGr-85" style="edgeStyle=orthogonalEdgeStyle;rounded=0;orthogonalLoop=1;jettySize=auto;html=1;exitX=1;exitY=0.5;exitDx=0;exitDy=0;entryX=0.5;entryY=0;entryDx=0;entryDy=0;" parent="1" source="RYvdms0KDKCRZyWD9pGr-29" target="RYvdms0KDKCRZyWD9pGr-43" edge="1">
          <mxGeometry relative="1" as="geometry" />
        </mxCell>
        <mxCell id="RYvdms0KDKCRZyWD9pGr-86" style="edgeStyle=orthogonalEdgeStyle;rounded=0;orthogonalLoop=1;jettySize=auto;html=1;exitX=1;exitY=0.5;exitDx=0;exitDy=0;entryX=0.5;entryY=0;entryDx=0;entryDy=0;" parent="1" source="RYvdms0KDKCRZyWD9pGr-29" target="RYvdms0KDKCRZyWD9pGr-58" edge="1">
          <mxGeometry relative="1" as="geometry" />
        </mxCell>
        <mxCell id="RYvdms0KDKCRZyWD9pGr-87" style="edgeStyle=orthogonalEdgeStyle;rounded=0;orthogonalLoop=1;jettySize=auto;html=1;exitX=1;exitY=0.5;exitDx=0;exitDy=0;entryX=0;entryY=0.5;entryDx=0;entryDy=0;" parent="1" source="RYvdms0KDKCRZyWD9pGr-29" target="RYvdms0KDKCRZyWD9pGr-62" edge="1">
          <mxGeometry relative="1" as="geometry">
            <Array as="points">
              <mxPoint x="1070" y="1360" />
              <mxPoint x="1070" y="1527" />
            </Array>
          </mxGeometry>
        </mxCell>
        <mxCell id="RYvdms0KDKCRZyWD9pGr-88" style="edgeStyle=orthogonalEdgeStyle;rounded=0;orthogonalLoop=1;jettySize=auto;html=1;exitX=1;exitY=0.5;exitDx=0;exitDy=0;entryX=0;entryY=0.5;entryDx=0;entryDy=0;" parent="1" source="RYvdms0KDKCRZyWD9pGr-29" target="RYvdms0KDKCRZyWD9pGr-64" edge="1">
          <mxGeometry relative="1" as="geometry">
            <Array as="points">
              <mxPoint x="1070" y="1360" />
              <mxPoint x="1070" y="1607" />
            </Array>
          </mxGeometry>
        </mxCell>
        <mxCell id="RYvdms0KDKCRZyWD9pGr-89" style="edgeStyle=orthogonalEdgeStyle;rounded=0;orthogonalLoop=1;jettySize=auto;html=1;exitX=1;exitY=0.5;exitDx=0;exitDy=0;entryX=0;entryY=0.5;entryDx=0;entryDy=0;" parent="1" source="RYvdms0KDKCRZyWD9pGr-29" target="RYvdms0KDKCRZyWD9pGr-66" edge="1">
          <mxGeometry relative="1" as="geometry">
            <Array as="points">
              <mxPoint x="1070" y="1360" />
              <mxPoint x="1070" y="1687" />
            </Array>
          </mxGeometry>
        </mxCell>
        <mxCell id="RYvdms0KDKCRZyWD9pGr-90" style="edgeStyle=orthogonalEdgeStyle;rounded=0;orthogonalLoop=1;jettySize=auto;html=1;exitX=1;exitY=0.5;exitDx=0;exitDy=0;entryX=0;entryY=0.5;entryDx=0;entryDy=0;" parent="1" source="RYvdms0KDKCRZyWD9pGr-29" target="RYvdms0KDKCRZyWD9pGr-68" edge="1">
          <mxGeometry relative="1" as="geometry">
            <Array as="points">
              <mxPoint x="1070" y="1360" />
              <mxPoint x="1070" y="1767" />
            </Array>
          </mxGeometry>
        </mxCell>
        <mxCell id="RYvdms0KDKCRZyWD9pGr-91" style="edgeStyle=orthogonalEdgeStyle;rounded=0;orthogonalLoop=1;jettySize=auto;html=1;exitX=1;exitY=0.5;exitDx=0;exitDy=0;entryX=0;entryY=0.5;entryDx=0;entryDy=0;" parent="1" source="RYvdms0KDKCRZyWD9pGr-29" target="RYvdms0KDKCRZyWD9pGr-70" edge="1">
          <mxGeometry relative="1" as="geometry">
            <Array as="points">
              <mxPoint x="1070" y="1360" />
              <mxPoint x="1070" y="1847" />
            </Array>
          </mxGeometry>
        </mxCell>
        <mxCell id="RYvdms0KDKCRZyWD9pGr-92" style="edgeStyle=orthogonalEdgeStyle;rounded=0;orthogonalLoop=1;jettySize=auto;html=1;exitX=1;exitY=0.5;exitDx=0;exitDy=0;entryX=0;entryY=0.5;entryDx=0;entryDy=0;" parent="1" source="RYvdms0KDKCRZyWD9pGr-29" target="RYvdms0KDKCRZyWD9pGr-72" edge="1">
          <mxGeometry relative="1" as="geometry">
            <Array as="points">
              <mxPoint x="1070" y="1360" />
              <mxPoint x="1070" y="1930" />
            </Array>
          </mxGeometry>
        </mxCell>
        <mxCell id="RYvdms0KDKCRZyWD9pGr-93" style="edgeStyle=orthogonalEdgeStyle;rounded=0;orthogonalLoop=1;jettySize=auto;html=1;exitX=1;exitY=0.5;exitDx=0;exitDy=0;entryX=0;entryY=0.5;entryDx=0;entryDy=0;" parent="1" source="RYvdms0KDKCRZyWD9pGr-29" target="RYvdms0KDKCRZyWD9pGr-74" edge="1">
          <mxGeometry relative="1" as="geometry">
            <Array as="points">
              <mxPoint x="1070" y="1360" />
              <mxPoint x="1070" y="2010" />
            </Array>
          </mxGeometry>
        </mxCell>
        <mxCell id="RYvdms0KDKCRZyWD9pGr-94" style="edgeStyle=orthogonalEdgeStyle;rounded=0;orthogonalLoop=1;jettySize=auto;html=1;exitX=1;exitY=0.5;exitDx=0;exitDy=0;entryX=0;entryY=0.5;entryDx=0;entryDy=0;" parent="1" source="RYvdms0KDKCRZyWD9pGr-29" target="RYvdms0KDKCRZyWD9pGr-75" edge="1">
          <mxGeometry relative="1" as="geometry">
            <Array as="points">
              <mxPoint x="1070" y="1360" />
              <mxPoint x="1070" y="2090" />
            </Array>
          </mxGeometry>
        </mxCell>
        <mxCell id="RYvdms0KDKCRZyWD9pGr-95" style="edgeStyle=orthogonalEdgeStyle;rounded=0;orthogonalLoop=1;jettySize=auto;html=1;exitX=1;exitY=0.5;exitDx=0;exitDy=0;entryX=0;entryY=0.5;entryDx=0;entryDy=0;" parent="1" source="RYvdms0KDKCRZyWD9pGr-29" target="RYvdms0KDKCRZyWD9pGr-76" edge="1">
          <mxGeometry relative="1" as="geometry">
            <Array as="points">
              <mxPoint x="1070" y="1360" />
              <mxPoint x="1070" y="2160" />
            </Array>
          </mxGeometry>
        </mxCell>
        <mxCell id="RYvdms0KDKCRZyWD9pGr-96" style="edgeStyle=orthogonalEdgeStyle;rounded=0;orthogonalLoop=1;jettySize=auto;html=1;exitX=1;exitY=0.5;exitDx=0;exitDy=0;entryX=0;entryY=0.5;entryDx=0;entryDy=0;" parent="1" source="RYvdms0KDKCRZyWD9pGr-29" target="RYvdms0KDKCRZyWD9pGr-39" edge="1">
          <mxGeometry relative="1" as="geometry">
            <Array as="points">
              <mxPoint x="1600" y="1360" />
              <mxPoint x="1600" y="1540" />
            </Array>
          </mxGeometry>
        </mxCell>
        <mxCell id="RYvdms0KDKCRZyWD9pGr-97" style="edgeStyle=orthogonalEdgeStyle;rounded=0;orthogonalLoop=1;jettySize=auto;html=1;exitX=1;exitY=0.5;exitDx=0;exitDy=0;entryX=0;entryY=0.5;entryDx=0;entryDy=0;" parent="1" source="RYvdms0KDKCRZyWD9pGr-29" target="RYvdms0KDKCRZyWD9pGr-41" edge="1">
          <mxGeometry relative="1" as="geometry">
            <Array as="points">
              <mxPoint x="1600" y="1360" />
              <mxPoint x="1600" y="1635" />
            </Array>
          </mxGeometry>
        </mxCell>
        <mxCell id="RYvdms0KDKCRZyWD9pGr-29" value="form" style="rounded=1;whiteSpace=wrap;html=1;fillColor=#ffe6cc;strokeColor=#d79b00;" parent="1" vertex="1">
          <mxGeometry x="660" y="1330" width="120" height="60" as="geometry" />
        </mxCell>
        <mxCell id="RYvdms0KDKCRZyWD9pGr-30" value="Components and modules to define&lt;br&gt;forms available in geonature" style="text;html=1;align=center;verticalAlign=middle;resizable=0;points=[];autosize=1;strokeColor=none;fillColor=none;" parent="1" vertex="1">
          <mxGeometry x="750" y="1280" width="210" height="40" as="geometry" />
        </mxCell>
        <mxCell id="RYvdms0KDKCRZyWD9pGr-31" value="acquisitation-frameworks" style="rounded=1;whiteSpace=wrap;html=1;fillColor=#fff2cc;strokeColor=#d6b656;" parent="1" vertex="1">
          <mxGeometry x="710" y="1420" width="120" height="60" as="geometry" />
        </mxCell>
        <mxCell id="RYvdms0KDKCRZyWD9pGr-33" value="Acquisition framework&lt;br&gt;forms" style="text;html=1;align=center;verticalAlign=middle;resizable=0;points=[];autosize=1;strokeColor=none;fillColor=none;" parent="1" vertex="1">
          <mxGeometry x="880" y="1430" width="140" height="40" as="geometry" />
        </mxCell>
        <mxCell id="RYvdms0KDKCRZyWD9pGr-36" value="areas-component" style="rounded=1;whiteSpace=wrap;html=1;fillColor=#fff2cc;strokeColor=#d6b656;" parent="1" vertex="1">
          <mxGeometry x="710" y="1510" width="120" height="60" as="geometry" />
        </mxCell>
        <mxCell id="RYvdms0KDKCRZyWD9pGr-38" value="Area selection component&lt;br&gt;for leaflet map&lt;br&gt;&amp;nbsp;(dérivée de ng-selected)" style="text;html=1;align=center;verticalAlign=middle;resizable=0;points=[];autosize=1;strokeColor=none;fillColor=none;" parent="1" vertex="1">
          <mxGeometry x="870" y="1510" width="160" height="60" as="geometry" />
        </mxCell>
        <mxCell id="RYvdms0KDKCRZyWD9pGr-39" value="data-from.service.ts" style="rounded=1;whiteSpace=wrap;html=1;fillColor=#fff2cc;strokeColor=#d6b656;" parent="1" vertex="1">
          <mxGeometry x="1695" y="1510" width="120" height="60" as="geometry" />
        </mxCell>
        <mxCell id="RYvdms0KDKCRZyWD9pGr-40" value="Collect Form fields &lt;br&gt;(metadata) from database" style="text;html=1;align=center;verticalAlign=middle;resizable=0;points=[];autosize=1;strokeColor=none;fillColor=none;" parent="1" vertex="1">
          <mxGeometry x="1850" y="1519" width="160" height="40" as="geometry" />
        </mxCell>
        <mxCell id="RYvdms0KDKCRZyWD9pGr-41" value="genericForm.component.ts" style="rounded=1;whiteSpace=wrap;html=1;fillColor=#fff2cc;strokeColor=#d6b656;" parent="1" vertex="1">
          <mxGeometry x="1670" y="1600" width="170" height="70" as="geometry" />
        </mxCell>
        <mxCell id="RYvdms0KDKCRZyWD9pGr-42" value="parent class of any form" style="text;html=1;align=center;verticalAlign=middle;resizable=0;points=[];autosize=1;strokeColor=none;fillColor=none;" parent="1" vertex="1">
          <mxGeometry x="1865" y="1627" width="150" height="30" as="geometry" />
        </mxCell>
        <mxCell id="RYvdms0KDKCRZyWD9pGr-43" value="form.service.ts" style="rounded=1;whiteSpace=wrap;html=1;fillColor=#fff2cc;strokeColor=#d6b656;" parent="1" vertex="1">
          <mxGeometry x="1695" y="1430" width="120" height="60" as="geometry" />
        </mxCell>
        <mxCell id="RYvdms0KDKCRZyWD9pGr-44" value="datalist" style="rounded=1;whiteSpace=wrap;html=1;fillColor=#fff2cc;strokeColor=#d6b656;" parent="1" vertex="1">
          <mxGeometry x="710" y="1577" width="120" height="60" as="geometry" />
        </mxCell>
        <mxCell id="RYvdms0KDKCRZyWD9pGr-46" value="datasets" style="rounded=1;whiteSpace=wrap;html=1;fillColor=#fff2cc;strokeColor=#d6b656;" parent="1" vertex="1">
          <mxGeometry x="710" y="1649.5" width="120" height="60" as="geometry" />
        </mxCell>
        <mxCell id="RYvdms0KDKCRZyWD9pGr-47" value="Generate an input form&lt;br&gt;with the list&amp;nbsp;&lt;br&gt;of availaible datasets &lt;br&gt;to the current user" style="text;html=1;align=center;verticalAlign=middle;resizable=0;points=[];autosize=1;strokeColor=none;fillColor=none;" parent="1" vertex="1">
          <mxGeometry x="875" y="1646" width="150" height="70" as="geometry" />
        </mxCell>
        <mxCell id="RYvdms0KDKCRZyWD9pGr-48" value="date&amp;nbsp;" style="rounded=1;whiteSpace=wrap;html=1;fillColor=#fff2cc;strokeColor=#d6b656;" parent="1" vertex="1">
          <mxGeometry x="710" y="1733" width="120" height="60" as="geometry" />
        </mxCell>
        <mxCell id="RYvdms0KDKCRZyWD9pGr-49" value="Datepicker component &lt;br&gt;(derived from a component&lt;br&gt;available in ng-bootstrap)" style="text;html=1;align=center;verticalAlign=middle;resizable=0;points=[];autosize=1;strokeColor=none;fillColor=none;" parent="1" vertex="1">
          <mxGeometry x="865" y="1733" width="170" height="60" as="geometry" />
        </mxCell>
        <mxCell id="RYvdms0KDKCRZyWD9pGr-53" value="dumb-selector" style="rounded=1;whiteSpace=wrap;html=1;fillColor=#fff2cc;strokeColor=#d6b656;" parent="1" vertex="1">
          <mxGeometry x="710" y="1813" width="120" height="60" as="geometry" />
        </mxCell>
        <mxCell id="RYvdms0KDKCRZyWD9pGr-54" value="create select with data from&lt;br&gt;parent component" style="text;html=1;align=center;verticalAlign=middle;resizable=0;points=[];autosize=1;strokeColor=none;fillColor=none;" parent="1" vertex="1">
          <mxGeometry x="860" y="1837" width="170" height="40" as="geometry" />
        </mxCell>
        <mxCell id="RYvdms0KDKCRZyWD9pGr-55" value="dynamic-form;&lt;br&gt;dynamic-form-generator" style="rounded=1;whiteSpace=wrap;html=1;fillColor=#fff2cc;strokeColor=#d6b656;" parent="1" vertex="1">
          <mxGeometry x="710" y="1893" width="120" height="60" as="geometry" />
        </mxCell>
        <mxCell id="RYvdms0KDKCRZyWD9pGr-56" value="geometry-form" style="rounded=1;whiteSpace=wrap;html=1;fillColor=#fff2cc;strokeColor=#d6b656;" parent="1" vertex="1">
          <mxGeometry x="715" y="1970" width="120" height="60" as="geometry" />
        </mxCell>
        <mxCell id="RYvdms0KDKCRZyWD9pGr-57" value="Geometry File Loading form" style="text;html=1;align=center;verticalAlign=middle;resizable=0;points=[];autosize=1;strokeColor=none;fillColor=none;" parent="1" vertex="1">
          <mxGeometry x="863" y="1985" width="170" height="30" as="geometry" />
        </mxCell>
        <mxCell id="RYvdms0KDKCRZyWD9pGr-58" value="media" style="rounded=1;whiteSpace=wrap;html=1;fillColor=#fff2cc;strokeColor=#d6b656;" parent="1" vertex="1">
          <mxGeometry x="1120" y="1420" width="120" height="60" as="geometry" />
        </mxCell>
        <mxCell id="RYvdms0KDKCRZyWD9pGr-59" value="Components for media &lt;br&gt;(dataSchema, form component,&lt;br&gt;dialog and display)" style="text;html=1;align=center;verticalAlign=middle;resizable=0;points=[];autosize=1;strokeColor=none;fillColor=none;" parent="1" vertex="1">
          <mxGeometry x="1305" y="1419" width="190" height="60" as="geometry" />
        </mxCell>
        <mxCell id="RYvdms0KDKCRZyWD9pGr-62" value="multi-select" style="rounded=1;whiteSpace=wrap;html=1;fillColor=#fff2cc;strokeColor=#d6b656;" parent="1" vertex="1">
          <mxGeometry x="1120" y="1497" width="120" height="60" as="geometry" />
        </mxCell>
        <mxCell id="RYvdms0KDKCRZyWD9pGr-63" value="Display a multiselect input based on&amp;nbsp;&lt;br&gt;given data" style="text;html=1;align=center;verticalAlign=middle;resizable=0;points=[];autosize=1;strokeColor=none;fillColor=none;" parent="1" vertex="1">
          <mxGeometry x="1295" y="1510" width="220" height="40" as="geometry" />
        </mxCell>
        <mxCell id="RYvdms0KDKCRZyWD9pGr-64" value="municipalities" style="rounded=1;whiteSpace=wrap;html=1;fillColor=#fff2cc;strokeColor=#d6b656;" parent="1" vertex="1">
          <mxGeometry x="1120" y="1577" width="120" height="60" as="geometry" />
        </mxCell>
        <mxCell id="RYvdms0KDKCRZyWD9pGr-65" value="Component to generate &lt;br&gt;a list of existing municipalities form &lt;br&gt;(based on areas component)" style="text;html=1;align=center;verticalAlign=middle;resizable=0;points=[];autosize=1;strokeColor=none;fillColor=none;" parent="1" vertex="1">
          <mxGeometry x="1295" y="1572" width="210" height="60" as="geometry" />
        </mxCell>
        <mxCell id="RYvdms0KDKCRZyWD9pGr-66" value="nomenclature" style="rounded=1;whiteSpace=wrap;html=1;fillColor=#fff2cc;strokeColor=#d6b656;" parent="1" vertex="1">
          <mxGeometry x="1120" y="1657" width="120" height="60" as="geometry" />
        </mxCell>
        <mxCell id="RYvdms0KDKCRZyWD9pGr-67" value="Component to generate a select input&lt;br&gt;with data from ref-nomenclature" style="text;html=1;align=center;verticalAlign=middle;resizable=0;points=[];autosize=1;strokeColor=none;fillColor=none;" parent="1" vertex="1">
          <mxGeometry x="1290" y="1667" width="220" height="40" as="geometry" />
        </mxCell>
        <mxCell id="RYvdms0KDKCRZyWD9pGr-68" value="observers" style="rounded=1;whiteSpace=wrap;html=1;fillColor=#fff2cc;strokeColor=#d6b656;" parent="1" vertex="1">
          <mxGeometry x="1120" y="1737" width="120" height="60" as="geometry" />
        </mxCell>
        <mxCell id="RYvdms0KDKCRZyWD9pGr-69" value="Component to generate &lt;br&gt;an input to browse and select&amp;nbsp;user&amp;nbsp;" style="text;html=1;align=center;verticalAlign=middle;resizable=0;points=[];autosize=1;strokeColor=none;fillColor=none;" parent="1" vertex="1">
          <mxGeometry x="1295" y="1743" width="210" height="40" as="geometry" />
        </mxCell>
        <mxCell id="RYvdms0KDKCRZyWD9pGr-70" value="observers-text" style="rounded=1;whiteSpace=wrap;html=1;fillColor=#fff2cc;strokeColor=#d6b656;" parent="1" vertex="1">
          <mxGeometry x="1120" y="1817" width="120" height="60" as="geometry" />
        </mxCell>
        <mxCell id="RYvdms0KDKCRZyWD9pGr-71" value="Component that generate&lt;br&gt;&amp;nbsp;a free-text input to indicate&amp;nbsp;&lt;br&gt;an observer not in the dabase" style="text;html=1;align=center;verticalAlign=middle;resizable=0;points=[];autosize=1;strokeColor=none;fillColor=none;" parent="1" vertex="1">
          <mxGeometry x="1315" y="1817" width="180" height="60" as="geometry" />
        </mxCell>
        <mxCell id="RYvdms0KDKCRZyWD9pGr-72" value="synthese-form" style="rounded=1;whiteSpace=wrap;html=1;fillColor=#fff2cc;strokeColor=#d6b656;" parent="1" vertex="1">
          <mxGeometry x="1120" y="1900" width="120" height="60" as="geometry" />
        </mxCell>
        <mxCell id="RYvdms0KDKCRZyWD9pGr-73" value="Component that generate the synthese form&lt;br&gt;&amp;nbsp;on the left side of the synthese module" style="text;html=1;align=center;verticalAlign=middle;resizable=0;points=[];autosize=1;strokeColor=none;fillColor=none;" parent="1" vertex="1">
          <mxGeometry x="1270" y="1904" width="260" height="40" as="geometry" />
        </mxCell>
        <mxCell id="RYvdms0KDKCRZyWD9pGr-74" value="taxa" style="rounded=1;whiteSpace=wrap;html=1;fillColor=#fff2cc;strokeColor=#d6b656;" parent="1" vertex="1">
          <mxGeometry x="1120" y="1980" width="120" height="60" as="geometry" />
        </mxCell>
        <mxCell id="RYvdms0KDKCRZyWD9pGr-75" value="taxon-tree" style="rounded=1;whiteSpace=wrap;html=1;fillColor=#fff2cc;strokeColor=#d6b656;" parent="1" vertex="1">
          <mxGeometry x="1121" y="2060" width="120" height="60" as="geometry" />
        </mxCell>
        <mxCell id="RYvdms0KDKCRZyWD9pGr-76" value="taxonomy" style="rounded=1;whiteSpace=wrap;html=1;fillColor=#fff2cc;strokeColor=#d6b656;" parent="1" vertex="1">
          <mxGeometry x="1120" y="2130" width="120" height="60" as="geometry" />
        </mxCell>
        <mxCell id="RYvdms0KDKCRZyWD9pGr-77" value="Component that generate an &lt;br&gt;input with autcompletion &lt;br&gt;based on existing taxons&amp;nbsp;(limit to 20)" style="text;html=1;align=center;verticalAlign=middle;resizable=0;points=[];autosize=1;strokeColor=none;fillColor=none;" parent="1" vertex="1">
          <mxGeometry x="1285" y="1980" width="220" height="60" as="geometry" />
        </mxCell>
        <mxCell id="RYvdms0KDKCRZyWD9pGr-78" value="Component to display taxon tree" style="text;html=1;align=center;verticalAlign=middle;resizable=0;points=[];autosize=1;strokeColor=none;fillColor=none;" parent="1" vertex="1">
          <mxGeometry x="1300" y="2075" width="200" height="30" as="geometry" />
        </mxCell>
        <mxCell id="RYvdms0KDKCRZyWD9pGr-80" value="Component that generate an&lt;br style=&quot;border-color: var(--border-color);&quot;&gt;input with autcompletion&lt;br style=&quot;border-color: var(--border-color);&quot;&gt;based on&amp;nbsp; taxons in a predefined list" style="text;html=1;align=center;verticalAlign=middle;resizable=0;points=[];autosize=1;strokeColor=none;fillColor=none;" parent="1" vertex="1">
          <mxGeometry x="1290" y="2130" width="220" height="60" as="geometry" />
        </mxCell>
        <mxCell id="RYvdms0KDKCRZyWD9pGr-138" style="edgeStyle=orthogonalEdgeStyle;rounded=0;orthogonalLoop=1;jettySize=auto;html=1;exitX=0.5;exitY=1;exitDx=0;exitDy=0;entryX=0;entryY=0.5;entryDx=0;entryDy=0;" parent="1" source="RYvdms0KDKCRZyWD9pGr-99" target="RYvdms0KDKCRZyWD9pGr-108" edge="1">
          <mxGeometry relative="1" as="geometry" />
        </mxCell>
        <mxCell id="RYvdms0KDKCRZyWD9pGr-139" style="edgeStyle=orthogonalEdgeStyle;rounded=0;orthogonalLoop=1;jettySize=auto;html=1;exitX=0.5;exitY=1;exitDx=0;exitDy=0;entryX=0;entryY=0.5;entryDx=0;entryDy=0;" parent="1" source="RYvdms0KDKCRZyWD9pGr-99" target="RYvdms0KDKCRZyWD9pGr-111" edge="1">
          <mxGeometry relative="1" as="geometry" />
        </mxCell>
        <mxCell id="RYvdms0KDKCRZyWD9pGr-141" style="edgeStyle=orthogonalEdgeStyle;rounded=0;orthogonalLoop=1;jettySize=auto;html=1;exitX=0.5;exitY=1;exitDx=0;exitDy=0;entryX=0;entryY=0.5;entryDx=0;entryDy=0;" parent="1" source="RYvdms0KDKCRZyWD9pGr-99" target="RYvdms0KDKCRZyWD9pGr-114" edge="1">
          <mxGeometry relative="1" as="geometry" />
        </mxCell>
        <mxCell id="RYvdms0KDKCRZyWD9pGr-142" style="edgeStyle=orthogonalEdgeStyle;rounded=0;orthogonalLoop=1;jettySize=auto;html=1;exitX=0.5;exitY=1;exitDx=0;exitDy=0;entryX=0;entryY=0.5;entryDx=0;entryDy=0;" parent="1" source="RYvdms0KDKCRZyWD9pGr-99" target="RYvdms0KDKCRZyWD9pGr-117" edge="1">
          <mxGeometry relative="1" as="geometry" />
        </mxCell>
        <mxCell id="RYvdms0KDKCRZyWD9pGr-143" style="edgeStyle=orthogonalEdgeStyle;rounded=0;orthogonalLoop=1;jettySize=auto;html=1;exitX=0.5;exitY=1;exitDx=0;exitDy=0;entryX=0;entryY=0.5;entryDx=0;entryDy=0;" parent="1" source="RYvdms0KDKCRZyWD9pGr-99" target="RYvdms0KDKCRZyWD9pGr-119" edge="1">
          <mxGeometry relative="1" as="geometry" />
        </mxCell>
        <mxCell id="RYvdms0KDKCRZyWD9pGr-144" style="edgeStyle=orthogonalEdgeStyle;rounded=0;orthogonalLoop=1;jettySize=auto;html=1;exitX=0.5;exitY=1;exitDx=0;exitDy=0;entryX=0;entryY=0.5;entryDx=0;entryDy=0;" parent="1" source="RYvdms0KDKCRZyWD9pGr-99" target="RYvdms0KDKCRZyWD9pGr-121" edge="1">
          <mxGeometry relative="1" as="geometry" />
        </mxCell>
        <mxCell id="RYvdms0KDKCRZyWD9pGr-145" style="edgeStyle=orthogonalEdgeStyle;rounded=0;orthogonalLoop=1;jettySize=auto;html=1;exitX=0.5;exitY=1;exitDx=0;exitDy=0;entryX=0;entryY=0.5;entryDx=0;entryDy=0;" parent="1" source="RYvdms0KDKCRZyWD9pGr-99" target="RYvdms0KDKCRZyWD9pGr-123" edge="1">
          <mxGeometry relative="1" as="geometry" />
        </mxCell>
        <mxCell id="RYvdms0KDKCRZyWD9pGr-146" style="edgeStyle=orthogonalEdgeStyle;rounded=0;orthogonalLoop=1;jettySize=auto;html=1;exitX=0.5;exitY=1;exitDx=0;exitDy=0;entryX=0;entryY=0.5;entryDx=0;entryDy=0;" parent="1" source="RYvdms0KDKCRZyWD9pGr-99" target="RYvdms0KDKCRZyWD9pGr-125" edge="1">
          <mxGeometry relative="1" as="geometry" />
        </mxCell>
        <mxCell id="RYvdms0KDKCRZyWD9pGr-147" style="edgeStyle=orthogonalEdgeStyle;rounded=0;orthogonalLoop=1;jettySize=auto;html=1;exitX=0.5;exitY=1;exitDx=0;exitDy=0;entryX=0;entryY=0.5;entryDx=0;entryDy=0;" parent="1" source="RYvdms0KDKCRZyWD9pGr-99" target="RYvdms0KDKCRZyWD9pGr-127" edge="1">
          <mxGeometry relative="1" as="geometry" />
        </mxCell>
        <mxCell id="RYvdms0KDKCRZyWD9pGr-148" style="edgeStyle=orthogonalEdgeStyle;rounded=0;orthogonalLoop=1;jettySize=auto;html=1;exitX=0.5;exitY=1;exitDx=0;exitDy=0;entryX=0;entryY=0.5;entryDx=0;entryDy=0;" parent="1" source="RYvdms0KDKCRZyWD9pGr-99" target="RYvdms0KDKCRZyWD9pGr-129" edge="1">
          <mxGeometry relative="1" as="geometry" />
        </mxCell>
        <mxCell id="RYvdms0KDKCRZyWD9pGr-99" value="map" style="rounded=1;whiteSpace=wrap;html=1;fillColor=#ffe6cc;strokeColor=#d79b00;" parent="1" vertex="1">
          <mxGeometry x="220" y="1424" width="120" height="60" as="geometry" />
        </mxCell>
        <mxCell id="RYvdms0KDKCRZyWD9pGr-100" value="map-list" style="rounded=1;whiteSpace=wrap;html=1;fillColor=#ffe6cc;strokeColor=#d79b00;" parent="1" vertex="1">
          <mxGeometry x="184" y="2290" width="120" height="60" as="geometry" />
        </mxCell>
        <mxCell id="RYvdms0KDKCRZyWD9pGr-101" value="others" style="rounded=1;whiteSpace=wrap;html=1;fillColor=#ffe6cc;strokeColor=#d79b00;" parent="1" vertex="1">
          <mxGeometry x="184" y="2400" width="120" height="60" as="geometry" />
        </mxCell>
        <mxCell id="RYvdms0KDKCRZyWD9pGr-102" value="pipe" style="rounded=1;whiteSpace=wrap;html=1;fillColor=#ffe6cc;strokeColor=#d79b00;" parent="1" vertex="1">
          <mxGeometry x="184" y="2477" width="120" height="60" as="geometry" />
        </mxCell>
        <mxCell id="RYvdms0KDKCRZyWD9pGr-103" value="service" style="rounded=1;whiteSpace=wrap;html=1;fillColor=#ffe6cc;strokeColor=#d79b00;" parent="1" vertex="1">
          <mxGeometry x="184" y="2555" width="120" height="60" as="geometry" />
        </mxCell>
        <mxCell id="RYvdms0KDKCRZyWD9pGr-104" value="Download modal component, &lt;br&gt;modal confirmation component&lt;br&gt;&amp;nbsp;&amp;nbsp;" style="text;html=1;align=center;verticalAlign=middle;resizable=0;points=[];autosize=1;strokeColor=none;fillColor=none;" parent="1" vertex="1">
          <mxGeometry x="345" y="2410" width="190" height="60" as="geometry" />
        </mxCell>
        <mxCell id="RYvdms0KDKCRZyWD9pGr-107" value="Custom form (bcp dans&amp;nbsp;&lt;br&gt;monitoring)" style="text;html=1;align=center;verticalAlign=middle;resizable=0;points=[];autosize=1;strokeColor=none;fillColor=none;" parent="1" vertex="1">
          <mxGeometry x="875" y="1903" width="150" height="40" as="geometry" />
        </mxCell>
        <mxCell id="RYvdms0KDKCRZyWD9pGr-108" value="fileLayer" style="rounded=1;whiteSpace=wrap;html=1;fillColor=#fff2cc;strokeColor=#d6b656;" parent="1" vertex="1">
          <mxGeometry x="300" y="1507" width="120" height="60" as="geometry" />
        </mxCell>
        <mxCell id="RYvdms0KDKCRZyWD9pGr-109" value="Module to load local file&amp;nbsp;&lt;br&gt;containing geometries" style="text;html=1;align=center;verticalAlign=middle;resizable=0;points=[];autosize=1;strokeColor=none;fillColor=none;" parent="1" vertex="1">
          <mxGeometry x="480" y="1519" width="150" height="40" as="geometry" />
        </mxCell>
        <mxCell id="RYvdms0KDKCRZyWD9pGr-111" value="geojson" style="rounded=1;whiteSpace=wrap;html=1;fillColor=#fff2cc;strokeColor=#d6b656;" parent="1" vertex="1">
          <mxGeometry x="300" y="1577" width="120" height="60" as="geometry" />
        </mxCell>
        <mxCell id="RYvdms0KDKCRZyWD9pGr-113" value="Module &lt;br&gt;to display data from geojson &lt;br&gt;on a leaflet map" style="text;html=1;align=center;verticalAlign=middle;resizable=0;points=[];autosize=1;strokeColor=none;fillColor=none;" parent="1" vertex="1">
          <mxGeometry x="480" y="1577" width="170" height="60" as="geometry" />
        </mxCell>
        <mxCell id="RYvdms0KDKCRZyWD9pGr-114" value="gps" style="rounded=1;whiteSpace=wrap;html=1;fillColor=#fff2cc;strokeColor=#d6b656;" parent="1" vertex="1">
          <mxGeometry x="300" y="1651" width="120" height="60" as="geometry" />
        </mxCell>
        <mxCell id="RYvdms0KDKCRZyWD9pGr-115" value="Module for placing&amp;nbsp;&lt;br&gt;a marker on a leaflet map&lt;br&gt;&amp;nbsp;with a given&amp;nbsp;latitude logitude &lt;br&gt;coordinates (WGS84)" style="text;html=1;align=center;verticalAlign=middle;resizable=0;points=[];autosize=1;strokeColor=none;fillColor=none;" parent="1" vertex="1">
          <mxGeometry x="480" y="1647" width="180" height="70" as="geometry" />
        </mxCell>
        <mxCell id="RYvdms0KDKCRZyWD9pGr-117" value="leaflet-draw" style="rounded=1;whiteSpace=wrap;html=1;fillColor=#fff2cc;strokeColor=#d6b656;" parent="1" vertex="1">
          <mxGeometry x="300" y="1740" width="120" height="60" as="geometry" />
        </mxCell>
        <mxCell id="RYvdms0KDKCRZyWD9pGr-118" value="Component to use the&lt;br&gt;leaflet-draw librarie" style="text;html=1;align=center;verticalAlign=middle;resizable=0;points=[];autosize=1;strokeColor=none;fillColor=none;" parent="1" vertex="1">
          <mxGeometry x="479" y="1750" width="140" height="40" as="geometry" />
        </mxCell>
        <mxCell id="RYvdms0KDKCRZyWD9pGr-119" value="marker" style="rounded=1;whiteSpace=wrap;html=1;fillColor=#fff2cc;strokeColor=#d6b656;" parent="1" vertex="1">
          <mxGeometry x="300" y="1817" width="120" height="60" as="geometry" />
        </mxCell>
        <mxCell id="RYvdms0KDKCRZyWD9pGr-120" value="Component put&lt;br&gt;a marker on the leaflet map&amp;nbsp;&lt;br&gt;base on the&lt;br&gt;&amp;nbsp;click position of the user" style="text;html=1;align=center;verticalAlign=middle;resizable=0;points=[];autosize=1;strokeColor=none;fillColor=none;" parent="1" vertex="1">
          <mxGeometry x="480" y="1807" width="170" height="70" as="geometry" />
        </mxCell>
        <mxCell id="RYvdms0KDKCRZyWD9pGr-121" value="overlays" style="rounded=1;whiteSpace=wrap;html=1;fillColor=#fff2cc;strokeColor=#d6b656;" parent="1" vertex="1">
          <mxGeometry x="300" y="1894" width="120" height="60" as="geometry" />
        </mxCell>
        <mxCell id="RYvdms0KDKCRZyWD9pGr-122" value="Component to add series &lt;br&gt;of GeoJSON layers&lt;br&gt;into a leaflet map" style="text;html=1;align=center;verticalAlign=middle;resizable=0;points=[];autosize=1;strokeColor=none;fillColor=none;" parent="1" vertex="1">
          <mxGeometry x="475" y="1895" width="160" height="60" as="geometry" />
        </mxCell>
        <mxCell id="RYvdms0KDKCRZyWD9pGr-123" value="places" style="rounded=1;whiteSpace=wrap;html=1;fillColor=#fff2cc;strokeColor=#d6b656;" parent="1" vertex="1">
          <mxGeometry x="300" y="1964" width="120" height="60" as="geometry" />
        </mxCell>
        <mxCell id="RYvdms0KDKCRZyWD9pGr-124" value="Component to create a modal&amp;nbsp;&lt;br&gt;for saving a place &lt;br&gt;into the gn_commons.t_place" style="text;html=1;align=center;verticalAlign=middle;resizable=0;points=[];autosize=1;strokeColor=none;fillColor=none;" parent="1" vertex="1">
          <mxGeometry x="475" y="1965" width="180" height="60" as="geometry" />
        </mxCell>
        <mxCell id="RYvdms0KDKCRZyWD9pGr-125" value="placesList" style="rounded=1;whiteSpace=wrap;html=1;fillColor=#fff2cc;strokeColor=#d6b656;" parent="1" vertex="1">
          <mxGeometry x="300" y="2044" width="120" height="60" as="geometry" />
        </mxCell>
        <mxCell id="RYvdms0KDKCRZyWD9pGr-126" value="Component to display &lt;br&gt;saved places for a user" style="text;html=1;align=center;verticalAlign=middle;resizable=0;points=[];autosize=1;strokeColor=none;fillColor=none;" parent="1" vertex="1">
          <mxGeometry x="484" y="2055" width="150" height="40" as="geometry" />
        </mxCell>
        <mxCell id="RYvdms0KDKCRZyWD9pGr-127" value="map.component.ts" style="rounded=1;whiteSpace=wrap;html=1;fillColor=#fff2cc;strokeColor=#d6b656;" parent="1" vertex="1">
          <mxGeometry x="300" y="2124" width="120" height="60" as="geometry" />
        </mxCell>
        <mxCell id="RYvdms0KDKCRZyWD9pGr-128" value="Component that use leaflet &lt;br&gt;to draw a map" style="text;html=1;align=center;verticalAlign=middle;resizable=0;points=[];autosize=1;strokeColor=none;fillColor=none;" parent="1" vertex="1">
          <mxGeometry x="470" y="2135" width="170" height="40" as="geometry" />
        </mxCell>
        <mxCell id="RYvdms0KDKCRZyWD9pGr-129" value="map.service.ts" style="rounded=1;whiteSpace=wrap;html=1;fillColor=#fff2cc;strokeColor=#d6b656;" parent="1" vertex="1">
          <mxGeometry x="300" y="2202" width="120" height="60" as="geometry" />
        </mxCell>
        <mxCell id="RYvdms0KDKCRZyWD9pGr-130" value="Service that handles data related&lt;br&gt;to a lealfet map" style="text;html=1;align=center;verticalAlign=middle;resizable=0;points=[];autosize=1;strokeColor=none;fillColor=none;" parent="1" vertex="1">
          <mxGeometry x="465" y="2213" width="200" height="40" as="geometry" />
        </mxCell>
        <mxCell id="RYvdms0KDKCRZyWD9pGr-131" value="Angular Pipes&amp;nbsp;" style="text;html=1;align=center;verticalAlign=middle;resizable=0;points=[];autosize=1;strokeColor=none;fillColor=none;" parent="1" vertex="1">
          <mxGeometry x="381" y="2492" width="100" height="30" as="geometry" />
        </mxCell>
        <mxCell id="RYvdms0KDKCRZyWD9pGr-136" value="GN2Common.module.ts" style="rounded=1;whiteSpace=wrap;html=1;fillColor=#ffe6cc;strokeColor=#d79b00;" parent="1" vertex="1">
          <mxGeometry x="174" y="2647" width="140" height="60" as="geometry" />
        </mxCell>
        <mxCell id="RYvdms0KDKCRZyWD9pGr-149" value="interface.ts" style="rounded=1;whiteSpace=wrap;html=1;fillColor=#ffe6cc;strokeColor=#d79b00;" parent="1" vertex="1">
          <mxGeometry x="184" y="2733" width="120" height="60" as="geometry" />
        </mxCell>
        <mxCell id="RYvdms0KDKCRZyWD9pGr-150" value="Nomenclature &lt;br&gt;data schema (Interface TS)" style="text;html=1;align=center;verticalAlign=middle;resizable=0;points=[];autosize=1;strokeColor=none;fillColor=none;" parent="1" vertex="1">
          <mxGeometry x="346" y="2743" width="170" height="40" as="geometry" />
        </mxCell>
        <mxCell id="RYvdms0KDKCRZyWD9pGr-198" style="edgeStyle=orthogonalEdgeStyle;rounded=0;orthogonalLoop=1;jettySize=auto;html=1;exitX=0;exitY=0.5;exitDx=0;exitDy=0;entryX=1;entryY=0.5;entryDx=0;entryDy=0;" parent="1" source="RYvdms0KDKCRZyWD9pGr-152" target="RYvdms0KDKCRZyWD9pGr-194" edge="1">
          <mxGeometry relative="1" as="geometry">
            <Array as="points">
              <mxPoint x="-400" y="720" />
              <mxPoint x="-400" y="600" />
            </Array>
          </mxGeometry>
        </mxCell>
        <mxCell id="RYvdms0KDKCRZyWD9pGr-199" style="edgeStyle=orthogonalEdgeStyle;rounded=0;orthogonalLoop=1;jettySize=auto;html=1;exitX=0;exitY=0.5;exitDx=0;exitDy=0;entryX=1;entryY=0.5;entryDx=0;entryDy=0;" parent="1" source="RYvdms0KDKCRZyWD9pGr-152" target="RYvdms0KDKCRZyWD9pGr-192" edge="1">
          <mxGeometry relative="1" as="geometry">
            <Array as="points">
              <mxPoint x="-400" y="720" />
              <mxPoint x="-400" y="520" />
            </Array>
          </mxGeometry>
        </mxCell>
        <mxCell id="RYvdms0KDKCRZyWD9pGr-200" style="edgeStyle=orthogonalEdgeStyle;rounded=0;orthogonalLoop=1;jettySize=auto;html=1;exitX=0;exitY=0.5;exitDx=0;exitDy=0;entryX=1;entryY=0.5;entryDx=0;entryDy=0;" parent="1" source="RYvdms0KDKCRZyWD9pGr-152" target="RYvdms0KDKCRZyWD9pGr-191" edge="1">
          <mxGeometry relative="1" as="geometry">
            <Array as="points">
              <mxPoint x="-400" y="720" />
              <mxPoint x="-400" y="440" />
            </Array>
          </mxGeometry>
        </mxCell>
        <mxCell id="RYvdms0KDKCRZyWD9pGr-201" style="edgeStyle=orthogonalEdgeStyle;rounded=0;orthogonalLoop=1;jettySize=auto;html=1;exitX=0;exitY=0.5;exitDx=0;exitDy=0;entryX=1;entryY=0.5;entryDx=0;entryDy=0;" parent="1" source="RYvdms0KDKCRZyWD9pGr-152" target="RYvdms0KDKCRZyWD9pGr-190" edge="1">
          <mxGeometry relative="1" as="geometry">
            <Array as="points">
              <mxPoint x="-400" y="720" />
              <mxPoint x="-400" y="360" />
            </Array>
          </mxGeometry>
        </mxCell>
        <mxCell id="RYvdms0KDKCRZyWD9pGr-202" style="edgeStyle=orthogonalEdgeStyle;rounded=0;orthogonalLoop=1;jettySize=auto;html=1;exitX=0;exitY=0.5;exitDx=0;exitDy=0;entryX=1;entryY=0.5;entryDx=0;entryDy=0;" parent="1" source="RYvdms0KDKCRZyWD9pGr-152" target="RYvdms0KDKCRZyWD9pGr-196" edge="1">
          <mxGeometry relative="1" as="geometry">
            <Array as="points">
              <mxPoint x="-400" y="720" />
              <mxPoint x="-400" y="270" />
            </Array>
          </mxGeometry>
        </mxCell>
        <mxCell id="7lDUcVudsA-5hmDxVSgN-3" style="edgeStyle=orthogonalEdgeStyle;rounded=0;orthogonalLoop=1;jettySize=auto;html=1;exitX=0;exitY=0.5;exitDx=0;exitDy=0;entryX=1;entryY=0.5;entryDx=0;entryDy=0;" edge="1" parent="1" source="RYvdms0KDKCRZyWD9pGr-152" target="RYvdms0KDKCRZyWD9pGr-195">
          <mxGeometry relative="1" as="geometry">
            <Array as="points">
              <mxPoint x="-400" y="720" />
              <mxPoint x="-400" y="675" />
            </Array>
          </mxGeometry>
        </mxCell>
        <mxCell id="RYvdms0KDKCRZyWD9pGr-152" value="metadataModule" style="rounded=1;whiteSpace=wrap;html=1;fillColor=#f8cecc;strokeColor=#b85450;" parent="1" vertex="1">
          <mxGeometry x="-330" y="690" width="120" height="60" as="geometry" />
        </mxCell>
        <mxCell id="RYvdms0KDKCRZyWD9pGr-213" style="edgeStyle=orthogonalEdgeStyle;rounded=0;orthogonalLoop=1;jettySize=auto;html=1;exitX=0.5;exitY=1;exitDx=0;exitDy=0;entryX=1;entryY=0.5;entryDx=0;entryDy=0;" parent="1" source="RYvdms0KDKCRZyWD9pGr-154" target="RYvdms0KDKCRZyWD9pGr-212" edge="1">
          <mxGeometry relative="1" as="geometry" />
        </mxCell>
        <mxCell id="RYvdms0KDKCRZyWD9pGr-222" style="edgeStyle=orthogonalEdgeStyle;rounded=0;orthogonalLoop=1;jettySize=auto;html=1;exitX=0.5;exitY=1;exitDx=0;exitDy=0;entryX=1;entryY=0.5;entryDx=0;entryDy=0;" parent="1" source="RYvdms0KDKCRZyWD9pGr-154" target="RYvdms0KDKCRZyWD9pGr-214" edge="1">
          <mxGeometry relative="1" as="geometry" />
        </mxCell>
        <mxCell id="RYvdms0KDKCRZyWD9pGr-223" style="edgeStyle=orthogonalEdgeStyle;rounded=0;orthogonalLoop=1;jettySize=auto;html=1;exitX=0.5;exitY=1;exitDx=0;exitDy=0;entryX=1;entryY=0.5;entryDx=0;entryDy=0;" parent="1" source="RYvdms0KDKCRZyWD9pGr-154" target="RYvdms0KDKCRZyWD9pGr-215" edge="1">
          <mxGeometry relative="1" as="geometry" />
        </mxCell>
        <mxCell id="RYvdms0KDKCRZyWD9pGr-224" style="edgeStyle=orthogonalEdgeStyle;rounded=0;orthogonalLoop=1;jettySize=auto;html=1;exitX=0.5;exitY=1;exitDx=0;exitDy=0;entryX=1;entryY=0.5;entryDx=0;entryDy=0;" parent="1" source="RYvdms0KDKCRZyWD9pGr-154" target="RYvdms0KDKCRZyWD9pGr-220" edge="1">
          <mxGeometry relative="1" as="geometry" />
        </mxCell>
        <mxCell id="RYvdms0KDKCRZyWD9pGr-154" value="modules" style="rounded=1;whiteSpace=wrap;html=1;fillColor=#f8cecc;strokeColor=#b85450;" parent="1" vertex="1">
          <mxGeometry x="-740" y="820" width="120" height="60" as="geometry" />
        </mxCell>
        <mxCell id="RYvdms0KDKCRZyWD9pGr-170" style="edgeStyle=orthogonalEdgeStyle;rounded=0;orthogonalLoop=1;jettySize=auto;html=1;exitX=0.5;exitY=1;exitDx=0;exitDy=0;entryX=1;entryY=0.5;entryDx=0;entryDy=0;" parent="1" source="RYvdms0KDKCRZyWD9pGr-155" target="RYvdms0KDKCRZyWD9pGr-169" edge="1">
          <mxGeometry relative="1" as="geometry" />
        </mxCell>
        <mxCell id="RYvdms0KDKCRZyWD9pGr-175" style="edgeStyle=orthogonalEdgeStyle;rounded=0;orthogonalLoop=1;jettySize=auto;html=1;exitX=0.5;exitY=1;exitDx=0;exitDy=0;entryX=1;entryY=0.5;entryDx=0;entryDy=0;" parent="1" source="RYvdms0KDKCRZyWD9pGr-155" target="RYvdms0KDKCRZyWD9pGr-172" edge="1">
          <mxGeometry relative="1" as="geometry" />
        </mxCell>
        <mxCell id="RYvdms0KDKCRZyWD9pGr-177" style="edgeStyle=orthogonalEdgeStyle;rounded=0;orthogonalLoop=1;jettySize=auto;html=1;exitX=0.5;exitY=1;exitDx=0;exitDy=0;entryX=1;entryY=0.5;entryDx=0;entryDy=0;" parent="1" source="RYvdms0KDKCRZyWD9pGr-155" target="RYvdms0KDKCRZyWD9pGr-176" edge="1">
          <mxGeometry relative="1" as="geometry" />
        </mxCell>
        <mxCell id="RYvdms0KDKCRZyWD9pGr-181" style="edgeStyle=orthogonalEdgeStyle;rounded=0;orthogonalLoop=1;jettySize=auto;html=1;exitX=0.5;exitY=1;exitDx=0;exitDy=0;entryX=1;entryY=0.5;entryDx=0;entryDy=0;" parent="1" source="RYvdms0KDKCRZyWD9pGr-155" target="RYvdms0KDKCRZyWD9pGr-180" edge="1">
          <mxGeometry relative="1" as="geometry" />
        </mxCell>
        <mxCell id="RYvdms0KDKCRZyWD9pGr-155" value="routing" style="rounded=1;whiteSpace=wrap;html=1;fillColor=#f8cecc;strokeColor=#b85450;" parent="1" vertex="1">
          <mxGeometry x="-160" y="1000" width="120" height="60" as="geometry" />
        </mxCell>
        <mxCell id="RYvdms0KDKCRZyWD9pGr-227" style="edgeStyle=orthogonalEdgeStyle;rounded=0;orthogonalLoop=1;jettySize=auto;html=1;exitX=0.5;exitY=1;exitDx=0;exitDy=0;entryX=1;entryY=0.5;entryDx=0;entryDy=0;" parent="1" source="RYvdms0KDKCRZyWD9pGr-157" target="RYvdms0KDKCRZyWD9pGr-226" edge="1">
          <mxGeometry relative="1" as="geometry" />
        </mxCell>
        <mxCell id="RYvdms0KDKCRZyWD9pGr-233" style="edgeStyle=orthogonalEdgeStyle;rounded=0;orthogonalLoop=1;jettySize=auto;html=1;exitX=0.5;exitY=1;exitDx=0;exitDy=0;entryX=1;entryY=0.5;entryDx=0;entryDy=0;" parent="1" source="RYvdms0KDKCRZyWD9pGr-157" target="RYvdms0KDKCRZyWD9pGr-229" edge="1">
          <mxGeometry relative="1" as="geometry" />
        </mxCell>
        <mxCell id="RYvdms0KDKCRZyWD9pGr-234" style="edgeStyle=orthogonalEdgeStyle;rounded=0;orthogonalLoop=1;jettySize=auto;html=1;exitX=0.5;exitY=1;exitDx=0;exitDy=0;entryX=1;entryY=0.5;entryDx=0;entryDy=0;" parent="1" source="RYvdms0KDKCRZyWD9pGr-157" target="RYvdms0KDKCRZyWD9pGr-230" edge="1">
          <mxGeometry relative="1" as="geometry" />
        </mxCell>
        <mxCell id="RYvdms0KDKCRZyWD9pGr-157" value="services" style="rounded=1;whiteSpace=wrap;html=1;fillColor=#f8cecc;strokeColor=#b85450;" parent="1" vertex="1">
          <mxGeometry x="-890" y="1280" width="120" height="60" as="geometry" />
        </mxCell>
        <mxCell id="RYvdms0KDKCRZyWD9pGr-258" style="edgeStyle=orthogonalEdgeStyle;rounded=0;orthogonalLoop=1;jettySize=auto;html=1;exitX=0.5;exitY=1;exitDx=0;exitDy=0;entryX=1;entryY=0.5;entryDx=0;entryDy=0;" parent="1" source="RYvdms0KDKCRZyWD9pGr-158" target="RYvdms0KDKCRZyWD9pGr-253" edge="1">
          <mxGeometry relative="1" as="geometry" />
        </mxCell>
        <mxCell id="RYvdms0KDKCRZyWD9pGr-259" style="edgeStyle=orthogonalEdgeStyle;rounded=0;orthogonalLoop=1;jettySize=auto;html=1;exitX=0.5;exitY=1;exitDx=0;exitDy=0;entryX=1;entryY=0.5;entryDx=0;entryDy=0;" parent="1" source="RYvdms0KDKCRZyWD9pGr-158" target="RYvdms0KDKCRZyWD9pGr-254" edge="1">
          <mxGeometry relative="1" as="geometry" />
        </mxCell>
        <mxCell id="RYvdms0KDKCRZyWD9pGr-260" style="edgeStyle=orthogonalEdgeStyle;rounded=0;orthogonalLoop=1;jettySize=auto;html=1;exitX=0.5;exitY=1;exitDx=0;exitDy=0;entryX=1;entryY=0.5;entryDx=0;entryDy=0;" parent="1" source="RYvdms0KDKCRZyWD9pGr-158" target="RYvdms0KDKCRZyWD9pGr-255" edge="1">
          <mxGeometry relative="1" as="geometry" />
        </mxCell>
        <mxCell id="RYvdms0KDKCRZyWD9pGr-158" value="shared" style="rounded=1;whiteSpace=wrap;html=1;fillColor=#f8cecc;strokeColor=#b85450;" parent="1" vertex="1">
          <mxGeometry x="-700" y="2117" width="120" height="60" as="geometry" />
        </mxCell>
        <mxCell id="RYvdms0KDKCRZyWD9pGr-246" style="edgeStyle=orthogonalEdgeStyle;rounded=0;orthogonalLoop=1;jettySize=auto;html=1;exitX=0.5;exitY=1;exitDx=0;exitDy=0;entryX=1;entryY=0.5;entryDx=0;entryDy=0;" parent="1" source="RYvdms0KDKCRZyWD9pGr-159" target="RYvdms0KDKCRZyWD9pGr-244" edge="1">
          <mxGeometry relative="1" as="geometry" />
        </mxCell>
        <mxCell id="RYvdms0KDKCRZyWD9pGr-250" style="edgeStyle=orthogonalEdgeStyle;rounded=0;orthogonalLoop=1;jettySize=auto;html=1;exitX=0.5;exitY=1;exitDx=0;exitDy=0;entryX=1;entryY=0.5;entryDx=0;entryDy=0;" parent="1" source="RYvdms0KDKCRZyWD9pGr-159" target="RYvdms0KDKCRZyWD9pGr-249" edge="1">
          <mxGeometry relative="1" as="geometry" />
        </mxCell>
        <mxCell id="RYvdms0KDKCRZyWD9pGr-252" style="edgeStyle=orthogonalEdgeStyle;rounded=0;orthogonalLoop=1;jettySize=auto;html=1;exitX=0.5;exitY=1;exitDx=0;exitDy=0;entryX=1;entryY=0.5;entryDx=0;entryDy=0;" parent="1" source="RYvdms0KDKCRZyWD9pGr-159" target="RYvdms0KDKCRZyWD9pGr-247" edge="1">
          <mxGeometry relative="1" as="geometry" />
        </mxCell>
        <mxCell id="RYvdms0KDKCRZyWD9pGr-159" value="syntheseModule" style="rounded=1;whiteSpace=wrap;html=1;fillColor=#f8cecc;strokeColor=#b85450;" parent="1" vertex="1">
          <mxGeometry x="-700" y="2462" width="120" height="60" as="geometry" />
        </mxCell>
        <mxCell id="RYvdms0KDKCRZyWD9pGr-160" value="templates" style="rounded=1;whiteSpace=wrap;html=1;fillColor=#f8cecc;strokeColor=#b85450;" parent="1" vertex="1">
          <mxGeometry x="-160" y="1440" width="120" height="60" as="geometry" />
        </mxCell>
        <mxCell id="RYvdms0KDKCRZyWD9pGr-161" value="typings" style="rounded=1;whiteSpace=wrap;html=1;fillColor=#f8cecc;strokeColor=#b85450;" parent="1" vertex="1">
          <mxGeometry x="-160" y="1541" width="120" height="60" as="geometry" />
        </mxCell>
        <mxCell id="RYvdms0KDKCRZyWD9pGr-240" style="edgeStyle=orthogonalEdgeStyle;rounded=0;orthogonalLoop=1;jettySize=auto;html=1;exitX=0.5;exitY=1;exitDx=0;exitDy=0;entryX=1;entryY=0.5;entryDx=0;entryDy=0;" parent="1" source="RYvdms0KDKCRZyWD9pGr-162" target="RYvdms0KDKCRZyWD9pGr-239" edge="1">
          <mxGeometry relative="1" as="geometry" />
        </mxCell>
        <mxCell id="7NmA4HexzJIhod1uaeRb-7" style="edgeStyle=orthogonalEdgeStyle;rounded=0;orthogonalLoop=1;jettySize=auto;html=1;exitX=0.5;exitY=1;exitDx=0;exitDy=0;entryX=1;entryY=0.5;entryDx=0;entryDy=0;" parent="1" source="RYvdms0KDKCRZyWD9pGr-162" target="RYvdms0KDKCRZyWD9pGr-242" edge="1">
          <mxGeometry relative="1" as="geometry" />
        </mxCell>
        <mxCell id="RYvdms0KDKCRZyWD9pGr-162" value="userModule" style="rounded=1;whiteSpace=wrap;html=1;fillColor=#f8cecc;strokeColor=#b85450;" parent="1" vertex="1">
          <mxGeometry x="-710" y="1781" width="120" height="60" as="geometry" />
        </mxCell>
        <mxCell id="RYvdms0KDKCRZyWD9pGr-163" value="utils" style="rounded=1;whiteSpace=wrap;html=1;fillColor=#f8cecc;strokeColor=#b85450;" parent="1" vertex="1">
          <mxGeometry x="-160" y="910" width="120" height="60" as="geometry" />
        </mxCell>
        <mxCell id="RYvdms0KDKCRZyWD9pGr-166" value="Filelayer to load&lt;br&gt;local geom files, leaflet-icon.js for ... icon" style="text;html=1;align=center;verticalAlign=middle;resizable=0;points=[];autosize=1;strokeColor=none;fillColor=none;" parent="1" vertex="1">
          <mxGeometry x="-420" y="920" width="240" height="40" as="geometry" />
        </mxCell>
        <mxCell id="RYvdms0KDKCRZyWD9pGr-167" style="edgeStyle=orthogonalEdgeStyle;rounded=0;orthogonalLoop=1;jettySize=auto;html=1;exitX=0.5;exitY=1;exitDx=0;exitDy=0;entryX=1;entryY=0.5;entryDx=0;entryDy=0;" parent="1" source="6K0Z6zfGGAepkqC1vvz3-9" target="RYvdms0KDKCRZyWD9pGr-163" edge="1">
          <mxGeometry relative="1" as="geometry">
            <Array as="points">
              <mxPoint x="20" y="780" />
              <mxPoint x="20" y="940" />
            </Array>
          </mxGeometry>
        </mxCell>
        <mxCell id="RYvdms0KDKCRZyWD9pGr-169" value="app-routing.module.ts" style="rounded=1;whiteSpace=wrap;html=1;fillColor=#ffe6cc;strokeColor=#d79b00;" parent="1" vertex="1">
          <mxGeometry x="-320" y="1090" width="140" height="60" as="geometry" />
        </mxCell>
        <mxCell id="RYvdms0KDKCRZyWD9pGr-171" value="Main routing" style="text;html=1;align=center;verticalAlign=middle;resizable=0;points=[];autosize=1;strokeColor=none;fillColor=none;" parent="1" vertex="1">
          <mxGeometry x="-455" y="1100" width="90" height="30" as="geometry" />
        </mxCell>
        <mxCell id="RYvdms0KDKCRZyWD9pGr-172" value="module guard.service.ts" style="rounded=1;whiteSpace=wrap;html=1;fillColor=#ffe6cc;strokeColor=#d79b00;" parent="1" vertex="1">
          <mxGeometry x="-320" y="1169" width="120" height="60" as="geometry" />
        </mxCell>
        <mxCell id="RYvdms0KDKCRZyWD9pGr-174" value="Check for module access" style="text;html=1;align=center;verticalAlign=middle;resizable=0;points=[];autosize=1;strokeColor=none;fillColor=none;" parent="1" vertex="1">
          <mxGeometry x="-485" y="1183" width="160" height="30" as="geometry" />
        </mxCell>
        <mxCell id="RYvdms0KDKCRZyWD9pGr-176" value="auth-guard.service.ts" style="rounded=1;whiteSpace=wrap;html=1;fillColor=#ffe6cc;strokeColor=#d79b00;" parent="1" vertex="1">
          <mxGeometry x="-320" y="1250" width="120" height="60" as="geometry" />
        </mxCell>
        <mxCell id="RYvdms0KDKCRZyWD9pGr-178" value="Service for user access&lt;br&gt;verification" style="text;html=1;align=center;verticalAlign=middle;resizable=0;points=[];autosize=1;strokeColor=none;fillColor=none;" parent="1" vertex="1">
          <mxGeometry x="-480" y="1260" width="150" height="40" as="geometry" />
        </mxCell>
        <mxCell id="RYvdms0KDKCRZyWD9pGr-180" value="routing.service.ts" style="rounded=1;whiteSpace=wrap;html=1;fillColor=#ffe6cc;strokeColor=#d79b00;" parent="1" vertex="1">
          <mxGeometry x="-320" y="1340" width="120" height="60" as="geometry" />
        </mxCell>
        <mxCell id="RYvdms0KDKCRZyWD9pGr-182" value="Routes for external modules" style="text;html=1;align=center;verticalAlign=middle;resizable=0;points=[];autosize=1;strokeColor=none;fillColor=none;" parent="1" vertex="1">
          <mxGeometry x="-495" y="1358" width="170" height="30" as="geometry" />
        </mxCell>
        <mxCell id="RYvdms0KDKCRZyWD9pGr-185" value="Custom component (gn-panel)" style="text;html=1;align=center;verticalAlign=middle;resizable=0;points=[];autosize=1;strokeColor=none;fillColor=none;" parent="1" vertex="1">
          <mxGeometry x="-365" y="1455" width="190" height="30" as="geometry" />
        </mxCell>
        <mxCell id="RYvdms0KDKCRZyWD9pGr-187" value="webpack require() definition for ts-loader" style="text;html=1;align=center;verticalAlign=middle;resizable=0;points=[];autosize=1;strokeColor=none;fillColor=none;" parent="1" vertex="1">
          <mxGeometry x="-400" y="1559" width="240" height="30" as="geometry" />
        </mxCell>
        <mxCell id="RYvdms0KDKCRZyWD9pGr-190" value="actors" style="rounded=1;whiteSpace=wrap;html=1;fillColor=#ffe6cc;strokeColor=#d79b00;" parent="1" vertex="1">
          <mxGeometry x="-660" y="330" width="200" height="60" as="geometry" />
        </mxCell>
        <mxCell id="RYvdms0KDKCRZyWD9pGr-191" value="af" style="rounded=1;whiteSpace=wrap;html=1;fillColor=#ffe6cc;strokeColor=#d79b00;" parent="1" vertex="1">
          <mxGeometry x="-660" y="410" width="200" height="60" as="geometry" />
        </mxCell>
        <mxCell id="RYvdms0KDKCRZyWD9pGr-192" value="datasets" style="rounded=1;whiteSpace=wrap;html=1;fillColor=#ffe6cc;strokeColor=#d79b00;" parent="1" vertex="1">
          <mxGeometry x="-660" y="490" width="200" height="60" as="geometry" />
        </mxCell>
        <mxCell id="RYvdms0KDKCRZyWD9pGr-194" value="metadata.component.ts" style="rounded=1;whiteSpace=wrap;html=1;fillColor=#ffe6cc;strokeColor=#d79b00;" parent="1" vertex="1">
          <mxGeometry x="-660" y="570" width="200" height="60" as="geometry" />
        </mxCell>
        <mxCell id="RYvdms0KDKCRZyWD9pGr-195" value="metadata-dataset.component.ts" style="rounded=1;whiteSpace=wrap;html=1;fillColor=#ffe6cc;strokeColor=#d79b00;" parent="1" vertex="1">
          <mxGeometry x="-660" y="645" width="200" height="60" as="geometry" />
        </mxCell>
        <mxCell id="RYvdms0KDKCRZyWD9pGr-196" value="services" style="rounded=1;whiteSpace=wrap;html=1;fillColor=#ffe6cc;strokeColor=#d79b00;" parent="1" vertex="1">
          <mxGeometry x="-660" y="240" width="200" height="60" as="geometry" />
        </mxCell>
        <mxCell id="RYvdms0KDKCRZyWD9pGr-203" value="Services for each component in&lt;br&gt;metadataModule" style="text;html=1;align=center;verticalAlign=middle;resizable=0;points=[];autosize=1;strokeColor=none;fillColor=none;" parent="1" vertex="1">
          <mxGeometry x="-885" y="250" width="190" height="40" as="geometry" />
        </mxCell>
        <mxCell id="RYvdms0KDKCRZyWD9pGr-204" value="Component of&lt;br&gt;the form (+list) to&amp;nbsp;&lt;br&gt;indicate the user/organism or both" style="text;html=1;align=center;verticalAlign=middle;resizable=0;points=[];autosize=1;strokeColor=none;fillColor=none;" parent="1" vertex="1">
          <mxGeometry x="-890" y="330" width="200" height="60" as="geometry" />
        </mxCell>
        <mxCell id="RYvdms0KDKCRZyWD9pGr-205" value="Component of&lt;br&gt;acquisation framework&amp;nbsp;&lt;br&gt;forms and list" style="text;html=1;align=center;verticalAlign=middle;resizable=0;points=[];autosize=1;strokeColor=none;fillColor=none;" parent="1" vertex="1">
          <mxGeometry x="-867.5" y="423" width="150" height="60" as="geometry" />
        </mxCell>
        <mxCell id="RYvdms0KDKCRZyWD9pGr-206" value="Component for dataset form and list" style="text;html=1;align=center;verticalAlign=middle;resizable=0;points=[];autosize=1;strokeColor=none;fillColor=none;" parent="1" vertex="1">
          <mxGeometry x="-895" y="505" width="210" height="30" as="geometry" />
        </mxCell>
        <mxCell id="RYvdms0KDKCRZyWD9pGr-207" value="All import plus pagination mechanism" style="text;html=1;align=center;verticalAlign=middle;resizable=0;points=[];autosize=1;strokeColor=none;fillColor=none;" parent="1" vertex="1">
          <mxGeometry x="-895" y="660" width="220" height="30" as="geometry" />
        </mxCell>
        <mxCell id="RYvdms0KDKCRZyWD9pGr-210" value="Metadata homepage component" style="text;html=1;align=center;verticalAlign=middle;resizable=0;points=[];autosize=1;strokeColor=none;fillColor=none;" parent="1" vertex="1">
          <mxGeometry x="-895" y="585" width="200" height="30" as="geometry" />
        </mxCell>
        <mxCell id="RYvdms0KDKCRZyWD9pGr-212" value="login" style="rounded=1;whiteSpace=wrap;html=1;fillColor=#ffe6cc;strokeColor=#d79b00;" parent="1" vertex="1">
          <mxGeometry x="-890" y="890" width="120" height="60" as="geometry" />
        </mxCell>
        <mxCell id="RYvdms0KDKCRZyWD9pGr-214" value="new-password" style="rounded=1;whiteSpace=wrap;html=1;fillColor=#ffe6cc;strokeColor=#d79b00;" parent="1" vertex="1">
          <mxGeometry x="-890" y="960" width="120" height="60" as="geometry" />
        </mxCell>
        <mxCell id="RYvdms0KDKCRZyWD9pGr-215" value="sign-up" style="rounded=1;whiteSpace=wrap;html=1;fillColor=#ffe6cc;strokeColor=#d79b00;" parent="1" vertex="1">
          <mxGeometry x="-890" y="1040" width="120" height="60" as="geometry" />
        </mxCell>
        <mxCell id="RYvdms0KDKCRZyWD9pGr-217" value="Login page component" style="text;html=1;align=center;verticalAlign=middle;resizable=0;points=[];autosize=1;strokeColor=none;fillColor=none;" parent="1" vertex="1">
          <mxGeometry x="-1065" y="908" width="150" height="30" as="geometry" />
        </mxCell>
        <mxCell id="RYvdms0KDKCRZyWD9pGr-218" value="New password page component" style="text;html=1;align=center;verticalAlign=middle;resizable=0;points=[];autosize=1;strokeColor=none;fillColor=none;" parent="1" vertex="1">
          <mxGeometry x="-1085" y="980" width="190" height="30" as="geometry" />
        </mxCell>
        <mxCell id="RYvdms0KDKCRZyWD9pGr-219" value="Register page component" style="text;html=1;align=center;verticalAlign=middle;resizable=0;points=[];autosize=1;strokeColor=none;fillColor=none;" parent="1" vertex="1">
          <mxGeometry x="-1070" y="1048" width="160" height="30" as="geometry" />
        </mxCell>
        <mxCell id="RYvdms0KDKCRZyWD9pGr-220" value="login.routes.ts" style="rounded=1;whiteSpace=wrap;html=1;fillColor=#ffe6cc;strokeColor=#d79b00;" parent="1" vertex="1">
          <mxGeometry x="-890" y="1120" width="120" height="60" as="geometry" />
        </mxCell>
        <mxCell id="RYvdms0KDKCRZyWD9pGr-221" value="routing for the login part" style="text;html=1;align=center;verticalAlign=middle;resizable=0;points=[];autosize=1;strokeColor=none;fillColor=none;" parent="1" vertex="1">
          <mxGeometry x="-1065" y="1138" width="150" height="30" as="geometry" />
        </mxCell>
        <mxCell id="RYvdms0KDKCRZyWD9pGr-226" value="config.service.ts" style="rounded=1;whiteSpace=wrap;html=1;fillColor=#ffe6cc;strokeColor=#d79b00;" parent="1" vertex="1">
          <mxGeometry x="-1015" y="1350" width="120" height="60" as="geometry" />
        </mxCell>
        <mxCell id="RYvdms0KDKCRZyWD9pGr-228" value="Service to retrieve&lt;br&gt;&amp;nbsp;configuration data" style="text;html=1;align=center;verticalAlign=middle;resizable=0;points=[];autosize=1;strokeColor=none;fillColor=none;" parent="1" vertex="1">
          <mxGeometry x="-1170" y="1358" width="120" height="40" as="geometry" />
        </mxCell>
        <mxCell id="RYvdms0KDKCRZyWD9pGr-229" value="module.service.ts" style="rounded=1;whiteSpace=wrap;html=1;fillColor=#ffe6cc;strokeColor=#d79b00;" parent="1" vertex="1">
          <mxGeometry x="-1015" y="1434" width="120" height="60" as="geometry" />
        </mxCell>
        <mxCell id="RYvdms0KDKCRZyWD9pGr-230" value="http.interceptor.ts" style="rounded=1;whiteSpace=wrap;html=1;fillColor=#ffe6cc;strokeColor=#d79b00;" parent="1" vertex="1">
          <mxGeometry x="-1015" y="1519" width="120" height="60" as="geometry" />
        </mxCell>
        <mxCell id="RYvdms0KDKCRZyWD9pGr-231" value="to retrieve module ?" style="text;html=1;align=center;verticalAlign=middle;resizable=0;points=[];autosize=1;strokeColor=none;fillColor=none;fontColor=#FF2B0A;" parent="1" vertex="1">
          <mxGeometry x="-1175" y="1449" width="130" height="30" as="geometry" />
        </mxCell>
        <mxCell id="RYvdms0KDKCRZyWD9pGr-232" value="Custom error message" style="text;html=1;align=center;verticalAlign=middle;resizable=0;points=[];autosize=1;strokeColor=none;fillColor=none;" parent="1" vertex="1">
          <mxGeometry x="-1185" y="1533" width="150" height="30" as="geometry" />
        </mxCell>
        <mxCell id="RYvdms0KDKCRZyWD9pGr-238" value="UserProfile" style="text;html=1;align=center;verticalAlign=middle;resizable=0;points=[];autosize=1;strokeColor=none;fillColor=none;" parent="1" vertex="1">
          <mxGeometry x="-755" y="1733" width="80" height="30" as="geometry" />
        </mxCell>
        <mxCell id="RYvdms0KDKCRZyWD9pGr-239" value="password" style="rounded=1;whiteSpace=wrap;html=1;fillColor=#ffe6cc;strokeColor=#d79b00;" parent="1" vertex="1">
          <mxGeometry x="-880" y="1850" width="120" height="60" as="geometry" />
        </mxCell>
        <mxCell id="RYvdms0KDKCRZyWD9pGr-241" value="Component for user to setup&amp;nbsp;&lt;br&gt;their own password" style="text;html=1;align=center;verticalAlign=middle;resizable=0;points=[];autosize=1;strokeColor=none;fillColor=none;" parent="1" vertex="1">
          <mxGeometry x="-1055" y="1860" width="180" height="40" as="geometry" />
        </mxCell>
        <mxCell id="RYvdms0KDKCRZyWD9pGr-242" value="user.component.ts" style="rounded=1;whiteSpace=wrap;html=1;fillColor=#ffe6cc;strokeColor=#d79b00;" parent="1" vertex="1">
          <mxGeometry x="-880" y="1944" width="120" height="60" as="geometry" />
        </mxCell>
        <mxCell id="RYvdms0KDKCRZyWD9pGr-243" value="Component that shows&amp;nbsp;&lt;br&gt;a user its information" style="text;html=1;align=center;verticalAlign=middle;resizable=0;points=[];autosize=1;strokeColor=none;fillColor=none;" parent="1" vertex="1">
          <mxGeometry x="-1040" y="1954" width="150" height="40" as="geometry" />
        </mxCell>
        <mxCell id="RYvdms0KDKCRZyWD9pGr-244" value="taxon-sheet" style="rounded=1;whiteSpace=wrap;html=1;fillColor=#ffe6cc;strokeColor=#d79b00;" parent="1" vertex="1">
          <mxGeometry x="-840" y="2537" width="125" height="60" as="geometry" />
        </mxCell>
        <mxCell id="RYvdms0KDKCRZyWD9pGr-245" value="Component that shows a synthese of&amp;nbsp;&lt;br&gt;observation for one taxon" style="text;html=1;align=center;verticalAlign=middle;resizable=0;points=[];autosize=1;strokeColor=none;fillColor=none;" parent="1" vertex="1">
          <mxGeometry x="-1090" y="2547" width="220" height="40" as="geometry" />
        </mxCell>
        <mxCell id="RYvdms0KDKCRZyWD9pGr-247" value="synthese.component.ts" style="rounded=1;whiteSpace=wrap;html=1;fillColor=#ffe6cc;strokeColor=#d79b00;" parent="1" vertex="1">
          <mxGeometry x="-840" y="2713" width="125" height="60" as="geometry" />
        </mxCell>
        <mxCell id="RYvdms0KDKCRZyWD9pGr-248" value="Main component of the synthese module" style="text;html=1;align=center;verticalAlign=middle;resizable=0;points=[];autosize=1;strokeColor=none;fillColor=none;" parent="1" vertex="1">
          <mxGeometry x="-1100" y="2723" width="240" height="30" as="geometry" />
        </mxCell>
        <mxCell id="RYvdms0KDKCRZyWD9pGr-249" value="synthese-results" style="rounded=1;whiteSpace=wrap;html=1;fillColor=#ffe6cc;strokeColor=#d79b00;" parent="1" vertex="1">
          <mxGeometry x="-840" y="2620" width="120" height="60" as="geometry" />
        </mxCell>
        <mxCell id="RYvdms0KDKCRZyWD9pGr-251" value="Synthese map component&amp;nbsp; + list of found observations&lt;br&gt;of filtered taxons component" style="text;html=1;align=center;verticalAlign=middle;resizable=0;points=[];autosize=1;strokeColor=none;fillColor=none;" parent="1" vertex="1">
          <mxGeometry x="-1145" y="2633" width="310" height="40" as="geometry" />
        </mxCell>
        <mxCell id="RYvdms0KDKCRZyWD9pGr-253" value="alertInfoModule" style="rounded=1;whiteSpace=wrap;html=1;fillColor=#ffe6cc;strokeColor=#d79b00;" parent="1" vertex="1">
          <mxGeometry x="-870" y="2212" width="120" height="60" as="geometry" />
        </mxCell>
        <mxCell id="RYvdms0KDKCRZyWD9pGr-254" value="discussionCardModule" style="rounded=1;whiteSpace=wrap;html=1;fillColor=#ffe6cc;strokeColor=#d79b00;" parent="1" vertex="1">
          <mxGeometry x="-890" y="2300" width="140" height="60" as="geometry" />
        </mxCell>
        <mxCell id="RYvdms0KDKCRZyWD9pGr-255" value="syntheseSharedModule" style="rounded=1;whiteSpace=wrap;html=1;fillColor=#ffe6cc;strokeColor=#d79b00;" parent="1" vertex="1">
          <mxGeometry x="-890" y="2380" width="140" height="60" as="geometry" />
        </mxCell>
        <mxCell id="RYvdms0KDKCRZyWD9pGr-256" value="Taxon observation sharing component" style="text;html=1;align=center;verticalAlign=middle;resizable=0;points=[];autosize=1;strokeColor=none;fillColor=none;" parent="1" vertex="1">
          <mxGeometry x="-1115" y="2398" width="230" height="30" as="geometry" />
        </mxCell>
        <mxCell id="RYvdms0KDKCRZyWD9pGr-257" value="Alert onTaxon observation component" style="text;html=1;align=center;verticalAlign=middle;resizable=0;points=[];autosize=1;strokeColor=none;fillColor=none;" parent="1" vertex="1">
          <mxGeometry x="-1100" y="2227" width="220" height="30" as="geometry" />
        </mxCell>
        <mxCell id="RYvdms0KDKCRZyWD9pGr-261" value="Discussion on taxon observation component" style="text;html=1;align=center;verticalAlign=middle;resizable=0;points=[];autosize=1;strokeColor=none;fillColor=none;" parent="1" vertex="1">
          <mxGeometry x="-1155" y="2315" width="260" height="30" as="geometry" />
        </mxCell>
        <mxCell id="7NmA4HexzJIhod1uaeRb-2" value="" style="whiteSpace=wrap;html=1;fillColor=#f8cecc;strokeColor=#b85450;" parent="1" vertex="1">
          <mxGeometry x="998" y="500" width="120" height="60" as="geometry" />
        </mxCell>
        <mxCell id="7NmA4HexzJIhod1uaeRb-3" value="" style="whiteSpace=wrap;html=1;fillColor=#fff2cc;strokeColor=#d6b656;" parent="1" vertex="1">
          <mxGeometry x="1235" y="500" width="120" height="60" as="geometry" />
        </mxCell>
        <mxCell id="7NmA4HexzJIhod1uaeRb-4" value="" style="whiteSpace=wrap;html=1;fillColor=#ffe6cc;strokeColor=#d79b00;" parent="1" vertex="1">
          <mxGeometry x="1118" y="500" width="120" height="60" as="geometry" />
        </mxCell>
        <mxCell id="7NmA4HexzJIhod1uaeRb-6" value="" style="whiteSpace=wrap;html=1;" parent="1" vertex="1">
          <mxGeometry x="1355" y="500" width="120" height="60" as="geometry" />
        </mxCell>
        <mxCell id="7NmA4HexzJIhod1uaeRb-8" value="" style="whiteSpace=wrap;html=1;fillColor=#e1d5e7;strokeColor=#9673a6;" parent="1" vertex="1">
          <mxGeometry x="878" y="500" width="120" height="60" as="geometry" />
        </mxCell>
        <mxCell id="7NmA4HexzJIhod1uaeRb-9" value="" style="whiteSpace=wrap;html=1;fillColor=#dae8fc;strokeColor=#6c8ebf;" parent="1" vertex="1">
          <mxGeometry x="758" y="500" width="120" height="60" as="geometry" />
        </mxCell>
        <mxCell id="7NmA4HexzJIhod1uaeRb-10" value="" style="whiteSpace=wrap;html=1;fillColor=#f5f5f5;fontColor=#333333;strokeColor=#666666;" parent="1" vertex="1">
          <mxGeometry x="638" y="500" width="120" height="60" as="geometry" />
        </mxCell>
        <mxCell id="7NmA4HexzJIhod1uaeRb-12" value="Directory Depth gradient" style="text;html=1;align=center;verticalAlign=middle;resizable=0;points=[];autosize=1;strokeColor=none;fillColor=none;fontSize=18;" parent="1" vertex="1">
          <mxGeometry x="645" y="450" width="220" height="40" as="geometry" />
        </mxCell>
      </root>
    </mxGraphModel>
  </diagram>
</mxfile>
